<ttFont>
          <CharString index="0">
            -64 -55 -47 -60 -71 -52 50 74 87 61 46 72 7 9 -1 -1 5 vhcurveto
            54 vlineto
            2 -5 -9 1 -9 hhcurveto
            -104 -89 -70 -118 -107 75 -69 106 -74 callgsubr
            return
          </CharString>
          <CharString index="1">
            -106 callgsubr
            94 return
          </CharString>
          <CharString index="2">
            -36 -62 -14 -106 callsubr
            return
          </CharString>
          <CharString index="3">
            183 callgsubr
            60 79 -17 vhcurveto
            81 25 72 45 129 callgsubr
            return
          </CharString>
          <CharString index="4">
            -40 callsubr
            -27 19 -19 27 27 21 19 27 26 -21 21 -27 hvcurveto
            return
          </CharString>
          <CharString index="5">
            -57 -24 -28 -41 -38 15 -36 12 -23 hvcurveto
            53 hlineto
            -8 23 -6 29 23 vvcurveto
            24 7 13 25 vhcurveto
            return
          </CharString>
          <CharString index="6">
            hhcurveto
            75 57 26 45 34 hvcurveto
            -83 callsubr
            return
          </CharString>
          <CharString index="7">
            -51 -21 -21 -43 -32 -32 15 0 vhcurveto
            -59 vlineto
            -5 12 27 -7 30 hhcurveto
            82 38 49 80 hvcurveto
            239 return
          </CharString>
          <CharString index="8">
            61 -94 callsubr
            return
          </CharString>
          <CharString index="9">
            -24 -5 -18 -21 -26 -79 callgsubr
            return
          </CharString>
          <CharString index="10">
            23 30 7 34 hhcurveto
            23 27 -4 -10 30 hvcurveto
            55 vlineto
            7 -27 -25 4 -31 hhcurveto
            return
          </CharString>
          <CharString index="11">
            -78 -92 callsubr
            return
          </CharString>
          <CharString index="12">
            97 -5 39 -23 -54 vvcurveto
            -65 -53 -33 -77 -62 -75 24 28 -45 vhcurveto
            -63 vlineto
            -26 50 67 -15 189 callsubr
            74 62 88 101 -78 28 -96 5 hvcurveto
            -110 6 -31 23 48 vvcurveto
            52 48 17 45 vhcurveto
            return
          </CharString>
          <CharString index="13">
            579 120 return
          </CharString>
          <CharString index="14">
            -91 callgsubr
            vlineto
            endchar
          </CharString>
          <CharString index="15">
            -95 -126 -128 80 -97 134 21 callgsubr
            return
          </CharString>
          <CharString index="16">
            -161 -88 callsubr
            124 hvcurveto
            return
          </CharString>
          <CharString index="17">
            -86 callgsubr
            100 return
          </CharString>
          <CharString index="18">
            68 -44 64 -91 -82 -53 -58 -61 -37 9 -15 4 -11 vhcurveto
            62 hlineto
            -3 10 -10 11 35 vvcurveto
            39 22 35 51 51 22 -37 -45 return
          </CharString>
          <CharString index="19">
            -96 callsubr
            110 63 57 return
          </CharString>
          <CharString index="20">
            rmoveto
            -212 119 -136 178 182 112 136 212 212 -108 136 -188 -181 -114 -136 -212 vhcurveto
            64 hmoveto
            179 86 109 145 150 82 -109 -179 -179 -82 -109 -148 -140 -93 109 179 vhcurveto
            return
          </CharString>
          <CharString index="21">
            rmoveto
            15 42 rlineto
            104 299 13 39 0 vvcurveto
            0 12 -39 102 -298 vhcurveto
            15 -43 rlineto
            82 -242 rmoveto
            67 hlineto
            -233 674 rlineto
            -90 hlineto
            -238 -674 rlineto
            67 hlineto
            65 187 rlineto
            298 hlineto
            endchar
          </CharString>
          <CharString index="22">
            -53 vlineto
            4 9 18 3 15 hhcurveto
            85 36 -50 -67 -127 -90 -69 -117 -91 -72 42 72 57 43 39 75 hvcurveto
            38 53 -28 hlineto
            -54 -54 34 64 44 22 41 47 22 hvcurveto
            return
          </CharString>
          <CharString index="23">
            vvcurveto
            38 -10 32 -16 24 vhcurveto
            return
          </CharString>
          <CharString index="24">
            -201 -99 callsubr
            return
          </CharString>
          <CharString index="25">
            -99 callsubr
            vlineto
            endchar
          </CharString>
          <CharString index="26">
            -55 370 -313 hlineto
            -107 callgsubr
            return
          </CharString>
          <CharString index="27">
            -55 178 -240 hlineto
            -100 callsubr
            return
          </CharString>
          <CharString index="28">
            rmoveto
            152 86 115 145 145 -81 118 -157 -140 -93 -118 -145 -145 87 -115 146 hvcurveto
            465 vmoveto
            125 49 -98 -107 -107 -58 -95 -116 -104 -65 95 107 107 59 98 110 hvcurveto
            return
          </CharString>
          <CharString index="29">
            vlineto
            -98 callsubr
            return
          </CharString>
          <CharString index="30">
            94 -84 callsubr
            return
          </CharString>
          <CharString index="31">
            -41 -14 -41 -27 -33 vhcurveto
            -217 225 rlineto
            -57 callsubr
            return
          </CharString>
          <CharString index="32">
            107 108 71 136 88 -57 79 -98 -87 -48 -62 -68 -20 3 -21 9 -20 hvcurveto
            return
          </CharString>
          <CharString index="33">
            55 vlineto
            -11 -33 -53 -7 -36 hhcurveto
            -130 -54 55 66 54 50 53 100 74 29 -37 -43 -18 -4 -21 -11 -14 hvcurveto
            61 hlineto
            8 16 3 21 19 vvcurveto
            62 -45 67 -115 -37 -33 -6 -10 -28 vhcurveto
            -21 5 -35 30 146 callgsubr
            return
          </CharString>
          <CharString index="34">
            -21 callgsubr
            vhcurveto
            -179 -82 callsubr
          </CharString>
          <CharString index="35">
            59 35 -65 callsubr
            94 46 39 66 29 23 -12 -8 13 vhcurveto
            -397 -64 callsubr
            return
          </CharString>
          <CharString index="36">
            vvcurveto
            -134 106 -76 141 56 57 17 15 28 vhcurveto
            -63 callgsubr
          </CharString>
          <CharString index="37">
            18 24 10 33 44 vvcurveto
            150 return
          </CharString>
          <CharString index="38">
            76 callgsubr
            -62 57 77 -19 vhcurveto
            88 27 64 64 78 -33 callsubr
            -598 -240 rmoveto
            240 329 vlineto
            19 -20 12 -28 -37 vvcurveto
            -121 -146 -34 -144 vhcurveto
            return
          </CharString>
          <CharString index="39">
            88 -16 -69 54 -109 hhcurveto
            -28 -29 -5 -7 -16 hvcurveto
            -53 vlineto
            8 18 27 5 31 hhcurveto
            82 48 -55 -76 -80 -51 -59 -95 -59 -51 19 22 -36 hvcurveto
            -59 vlineto
            -18 37 45 -18 68 hhcurveto
            120 79 76 103 7 hvcurveto
            return
          </CharString>
          <CharString index="40">
            -69 -61 -47 callsubr
            return
          </CharString>
          <CharString index="41">
            rmoveto
            -147 -73 -54 -106 -101 -75 55 141 vhcurveto
            426 -62 -427 vlineto
            -169 89 -86 149 150 91 87 176 vhcurveto
            419 -62 vlineto
            return
          </CharString>
          <CharString index="42">
            -40 -89 hvcurveto
            -75 61 74 vlineto
            return
          </CharString>
          <CharString index="43">
            62 -94 callsubr
            return
          </CharString>
          <CharString index="44">
            -152 98 callsubr
            return
          </CharString>
          <CharString index="45">
            86 54 40 47 26 hvcurveto
            -179 -82 callsubr
          </CharString>
          <CharString index="46">
            -120 -55 120 66 callsubr
            119 55 -120 return
          </CharString>
          <CharString index="47">
            -55 120 -35 callsubr
            return
          </CharString>
          <CharString index="48">
            62 285 hlineto
            208 -2 108 0 vhcurveto
            0 65 -109 126 -209 vhcurveto
            171 -283 rlineto
            85 674 -62 -286 hlineto
            -211 2 -104 0 vhcurveto
            0 -62 104 -128 212 vhcurveto
            -172 285 rlineto
            -85 hlineto
            return
          </CharString>
          <CharString index="49">
            -67 callgsubr
            101 -391 -99 callsubr
            return
          </CharString>
          <CharString index="50">
            12 -97 callsubr
            return
          </CharString>
          <CharString index="51">
            rmoveto
            -82 -36 -37 -68 -73 -24 50 70 vhcurveto
            229 201 vlineto
            return
          </CharString>
          <CharString index="52">
            118 vvcurveto
            -89 callsubr
            return
          </CharString>
          <CharString index="53">
            -95 callsubr
            endchar
          </CharString>
          <CharString index="54">
            rlineto
            -80 callgsubr
            return
          </CharString>
          <CharString index="55">
            rmoveto
            -24 18 -19 25 24 19 19 24 25 -19 18 -24 -25 -18 -18 -25 vhcurveto
            184 hmoveto
            -24 19 -19 24 25 18 19 24 25 -18 18 -25 -24 -19 -18 -25 vhcurveto
            return
          </CharString>
          <CharString index="56">
            rmoveto
            -18 -28 -35 -11 -43 hhcurveto
            -87 -62 63 88 42 12 35 22 26 hvcurveto
            478 245 rmoveto
            return
          </CharString>
          <CharString index="57">
            rmoveto
            -16 -28 -34 -10 -42 hhcurveto
            -89 -66 63 88 42 12 35 22 26 hvcurveto
            return
          </CharString>
          <CharString index="58">
            rmoveto
            -87 -67 -58 -96 return
          </CharString>
          <CharString index="59">
            -37 callsubr
            403 191 rmoveto
            -634 -4 callsubr
          </CharString>
          <CharString index="60">
            52 83 79 58 52 74 22 return
          </CharString>
          <CharString index="61">
            63 -48 115 vhcurveto
            -5 callgsubr
            return
          </CharString>
          <CharString index="62">
            13 21 31 11 37 hhcurveto
            47 30 -28 -38 -61 -57 -36 -75 -102 -74 65 100 91 66 76 131 31 33 -3 -6 38 hvcurveto
            return
          </CharString>
          <CharString index="63">
            rmoveto
            54 44 -48 -44 -68 -46 -27 -48 -15 hvcurveto
            -60 12 -42 35 64 vvcurveto
            48 40 43 58 vhcurveto
            return
          </CharString>
          <CharString index="64">
            -118 51 -55 108 110 56 62 110 vhcurveto
            return
          </CharString>
          <CharString index="65">
            75 hlineto
            97 128 96 -128 rlineto
            75 hlineto
            return
          </CharString>
          <CharString index="66">
            -54 hlineto
            109 74 -38 -101 -77 -50 -51 -77 -43 -30 17 43 -45 hvcurveto
            -235 243 9 callsubr
            55 47 16 23 37 hvcurveto
            -35 37 44 -22 56 hhcurveto
            114 74 76 106 69 -28 44 -43 24 hvcurveto
            return
          </CharString>
          <CharString index="67">
            -27 -19 -21 -26 return
          </CharString>
          <CharString index="68">
            -8 callgsubr
            -251 vlineto
            return
          </CharString>
          <CharString index="69">
            rmoveto
            251 262 57 -262 252 297 57 -359 -674 365 57 vlineto
            endchar
          </CharString>
          <CharString index="70">
            3 callsubr
            47 hlineto
            -75 callsubr
            return
          </CharString>
          <CharString index="71">
            -90 callsubr
            90 callgsubr
            return
          </CharString>
          <CharString index="72">
            -16 callsubr
            55 return
          </CharString>
          <CharString index="73">
            -14 callsubr
            -425 -305 86 callsubr
            396 -242 -1 vlineto
            109 -15 -81 41 176 callgsubr
            607 412 rmoveto
            -1159 -55 234 -109 hlineto
            -61 callgsubr
            133 85 68 85 36 hvcurveto
            3 -6 22 -50 rlineto
            -55 callgsubr
          </CharString>
          <CharString index="74">
            -7 callsubr
            hlineto
            return
          </CharString>
          <CharString index="75">
            -55 110 -322 hlineto
            -162 102 -59 136 46 58 10 16 37 vhcurveto
            58 vlineto
            -21 -37 -57 -11 -42 hhcurveto
            -106 -75 42 128 hvcurveto
            321 264 -150 vlineto
            -60 -29 -40 -72 -14 -16 2 4 -9 vhcurveto
            -53 vlineto
            -3 9 18 -2 12 hhcurveto
            111 52 66 84 hvcurveto
            152 91 vlineto
            endchar
          </CharString>
          <CharString index="76">
            rmoveto
            -1128 -55 947 -151 -355 hlineto
            25 -22 -33 16 -42 hhcurveto
            -59 -47 -36 -62 -10 -106 callsubr
            36 39 53 32 22 -19 -23 8 vhcurveto
            -1 vlineto
            109 74 -38 -101 -76 -57 -42 -80 -46 -38 166 callsubr
            40 -10 47 hhcurveto
            121 77 70 102 69 -28 44 -43 24 hvcurveto
            213 -374 -16 callgsubr
          </CharString>
          <CharString index="77">
            rmoveto
            -221 -55 159 -231 hlineto
            -16 -31 -45 -15 -61 hhcurveto
            -173 -105 106 178 174 111 112 156 64 71 -17 -37 53 hvcurveto
            69 vlineto
            34 -56 -74 13 -66 hhcurveto
            -186 -137 -145 -203 -217 139 -129 202 75 76 22 36 49 hvcurveto
            endchar
          </CharString>
          <CharString index="78">
            -269 hlineto
            -76 callsubr
            return
          </CharString>
          <CharString index="79">
            -136 -35 callgsubr
            return
          </CharString>
          <CharString index="80">
            153 callsubr
            -904 hmoveto
            253 -196 hlineto
            -53 callgsubr
            1085 259 rmoveto
            -1237 -60 callgsubr
            64 53 47 52 53 28 -26 -32 15 vhcurveto
            -3 vlineto
            111 72 -42 -87 -81 -57 -37 -80 -46 -38 166 callsubr
            40 -10 47 hhcurveto
            121 77 66 106 64 -31 41 -43 22 hvcurveto
            216 -364 -16 callgsubr
          </CharString>
          <CharString index="81">
            55 140 48 hlineto
            57 52 4 8 50 hvcurveto
            -108 35 83 -59 107 -101 callsubr
            vlineto
            endchar
          </CharString>
          <CharString index="82">
            -10 callsubr
            hvcurveto
            return
          </CharString>
          <CharString index="83">
            rmoveto
            623 hlineto
            14 -18 17 -30 -37 vvcurveto
            -64 -52 -38 -70 -18 vhcurveto
            35 -26 -53 39 -94 hhcurveto
            -240 -54 8 hlineto
            104 -3 71 -48 -98 vvcurveto
            181 callsubr
            vhcurveto
            101 callsubr
            71 hlineto
            201 -97 -264 261 hhcurveto
            76 55 25 46 35 hvcurveto
            -83 callsubr
            55 -1073 vlineto
            729 -452 rmoveto
            -84 -53 60 79 -29 37 callsubr
          </CharString>
          <CharString index="84">
            327 rmoveto
            -89 -73 -56 -90 -97 -46 48 87 -26 vhcurveto
            83 23 73 51 129 callgsubr
            -593 hmoveto
            324 hlineto
            -66 callgsubr
            -53 -50 -49 -63 -17 vhcurveto
            55 -25 -39 45 -75 hhcurveto
            -41 -37 -14 -28 -25 hvcurveto
            774 207 rmoveto
            return
          </CharString>
          <CharString index="85">
            rmoveto
            54 hlineto
            110 187 rlineto
            -76 hlineto
            return
          </CharString>
          <CharString index="86">
            rmoveto
            31 -31 -43 18 -52 -90 callgsubr
            44 -53 -79 -112 -86 -88 -28 callsubr
            345 185 callsubr
            -813 -55 224 -109 hlineto
            139 callgsubr
            175 133 93 72 49 53 rrcurveto
            -149 -69 callgsubr
          </CharString>
          <CharString index="87">
            vvcurveto
            38 callgsubr
            vhcurveto
            72 callsubr
          </CharString>
          <CharString index="88">
            120 55 vlineto
            endchar
          </CharString>
          <CharString index="89">
            rmoveto
            -103 callsubr
            -519 244 rmoveto
            -55 352 114 callgsubr
            34 -18 41 -12 43 -6 -107 -141 rcurveline
            65 callsubr
            142 rlineto
            82 19 49 54 71 vvcurveto
            101 -78 28 -96 5 vhcurveto
            152 callgsubr
          </CharString>
          <CharString index="90">
            -64 callsubr
            hlineto
            endchar
          </CharString>
          <CharString index="91">
            -579 -99 callsubr
            return
          </CharString>
          <CharString index="92">
            453 rmoveto
            43 callsubr
            return
          </CharString>
          <CharString index="93">
            rmoveto
            -223 240 223 hlineto
            return
          </CharString>
          <CharString index="94">
            rmoveto
            -80 -72 -34 -80 -71 -75 34 80 76 64 41 87 87 60 -38 -79 vhcurveto
            -290 367 rmoveto
            258 -159 rlineto
            -25 -19 -30 -11 -42 hhcurveto
            -52 hlineto
            -77 -38 37 96 hvcurveto
            282 hmoveto
            -23 -2 -20 -5 -16 vhcurveto
            -274 173 rlineto
            281 hlineto
            return
          </CharString>
          <CharString index="95">
            339 -14 callsubr
            return
          </CharString>
          <CharString index="96">
            rmoveto
            -83 -64 -58 -93 -98 -58 58 84 97 81 38 76 91 65 -46 -90 vhcurveto
            144 323 rmoveto
            55 -601 -55 290 -135 vlineto
            -104 -4 -106 -57 -126 vvcurveto
            return
          </CharString>
          <CharString index="97">
            9 14 1 2 9 return
          </CharString>
          <CharString index="98">
            1 callsubr
            -75 -66 -47 -131 -34 vhcurveto
            70 -19 -32 50 -88 hhcurveto
            -59 -50 -39 -59 63 callgsubr
            86 36 47 58 49 20 -41 return
          </CharString>
          <CharString index="99">
            rmoveto
            35 callsubr
            -53 -79 -112 -80 -88 -134 -35 callgsubr
            317 55 -603 -55 224 -109 vlineto
            139 callgsubr
            269 212 rlineto
            44 35 59 64 101 vvcurveto
            107 -71 77 -110 -86 -67 -65 -82 -79 62 -51 74 19 18 4 8 17 vhcurveto
            endchar
          </CharString>
          <CharString index="100">
            -84 callsubr
            202 return
          </CharString>
          <CharString index="101">
            136 callsubr
            -123 -232 23 callgsubr
            -17 -9 -11 -17 -21 -79 callgsubr
            return
          </CharString>
          <CharString index="102">
            450 920 415 62 callgsubr
            -1062 -55 879 -110 -113 vlineto
            -59 -48 -16 -26 -36 hvcurveto
            26 -28 -36 16 -46 34 callsubr
            -24 -32 -12 -41 -44 vvcurveto
            return
          </CharString>
          <CharString index="103">
            62 -54 callgsubr
          </CharString>
          <CharString index="104">
            -54 vlineto
            109 74 -38 -91 -77 -57 -41 -80 -46 -37 166 callsubr
            39 -10 47 hhcurveto
            129 69 77 95 53 -26 47 -46 27 hvcurveto
            return
          </CharString>
          <CharString index="105">
            24 callsubr
            -59 -8 -46 -48 -71 vvcurveto
            -88 68 -59 102 -16 vhcurveto
            -107 -140 rlineto
            -42 callsubr
            -110 144 rlineto
            118 27 80 94 118 vvcurveto
            return
          </CharString>
          <CharString index="106">
            81 hlineto
            259 262 rlineto
            -262 -69 callgsubr
          </CharString>
          <CharString index="107">
            61 -54 callgsubr
          </CharString>
          <CharString index="108">
            59 -55 callsubr
            return
          </CharString>
          <CharString index="109">
            rmoveto
            -181 -345 hlineto
            -71 -69 -102 -127 -91 -51 45 56 65 54 41 87 vhcurveto
            62 53 -53 hlineto
            -77 -72 26 70 59 54 48 98 hvcurveto
            55 return
          </CharString>
          <CharString index="110">
            rlineto
            83 hlineto
            -229 260 rlineto
            return
          </CharString>
          <CharString index="111">
            551 712 17 callsubr
            -93 -81 -56 -95 -16 hvcurveto
            -1 -1 157 callsubr
            1 570 vlineto
            -570 -62 -50 callgsubr
            1001 204 rmoveto
            55 -1163 -55 100 -209 vlineto
            -141 78 -58 115 vhcurveto
            59 1 50 28 34 36 return
          </CharString>
          <CharString index="112">
            28 callgsubr
            51 64 vvcurveto
            59 -43 56 -129 return
          </CharString>
          <CharString index="113">
            225 685 279 rmoveto
            -80 -50 -53 -80 -63 -51 34 42 -33 vhcurveto
            86 32 12 96 103 hhcurveto
            81 49 -50 -75 hvcurveto
            -450 -133 rmoveto
            30 callsubr
            582 433 rmoveto
            55 -837 -55 551 -124 vlineto
            -64 -6 -37 -28 -24 -36 rrcurveto
            19 callgsubr
            return
          </CharString>
          <CharString index="114">
            -1 rmoveto
            61 hlineto
            353 655 rlineto
            -62 hlineto
            -88 -511 165 callsubr
            -414 367 rmoveto
            -3 callgsubr
            414 -367 rmoveto
            52 42 42 52 52 42 -42 -52 -52 -42 -42 -52 -52 -42 42 52 vhcurveto
            return
          </CharString>
          <CharString index="115">
            rmoveto
            122 55 -559 -55 375 -313 hlineto
            -64 -55 -47 -60 -71 -52 50 74 87 61 46 72 7 9 -1 -1 5 vhcurveto
            54 vlineto
            2 -5 -9 1 -9 hhcurveto
            -104 -89 -70 -118 204 callgsubr
            hvcurveto
            -146 -148 rlineto
            76 hlineto
            194 197 rlineto
            106 callgsubr
          </CharString>
          <CharString index="116">
            rlineto
            -94 callgsubr
            return
          </CharString>
          <CharString index="117" raw="1">
            96958c8c 911f481d 0b 
          </CharString>
          <CharString index="118">
            -9 16 -5 20 20 vvcurveto
            41 22 39 54 54 39 -34 -80 -93 -66 -57 -114 vhcurveto
            return
          </CharString>
          <CharString index="119">
            383 rmoveto
            -53 callgsubr
            204 253 vlineto
            return
          </CharString>
          <CharString index="120">
            vlineto
            -97 callgsubr
            173 -271 -16 callgsubr
          </CharString>
          <CharString index="121">
            -55 100 148 callsubr
            78 -58 115 vhcurveto
            return
          </CharString>
          <CharString index="122">
            16 callgsubr
            -109 79 -89 126 61 49 21 31 26 hvcurveto
            -78 callgsubr
            return
          </CharString>
          <CharString index="123">
            rmoveto
            253 -176 hlineto
            -99 -66 -55 -72 -77 -38 40 106 vhcurveto
            315 184 rmoveto
            168 55 -640 -55 95 -184 hlineto
            -136 60 -57 104 -5 vhcurveto
            176 callsubr
            rlineto
            81 hlineto
            259 262 rlineto
            -262 117 callsubr
          </CharString>
          <CharString index="124">
            266 rmoveto
            -64 -55 -47 -60 -71 -52 50 74 87 61 46 72 7 9 -1 -1 5 vhcurveto
            54 vlineto
            2 -5 -9 1 -9 hhcurveto
            return
          </CharString>
          <CharString index="125">
            62 53 -53 hlineto
            -77 -72 19 70 59 54 48 98 hvcurveto
            55 -315 -55 167 vlineto
            -40 -21 -26 -37 -47 vvcurveto
            -72 50 -36 67 -9 vhcurveto
            -66 -9 -53 -47 -71 vvcurveto
            -82 66 -60 124 -5 vhcurveto
            -86 -49 rlineto
            -40 -23 -16 -23 -29 vvcurveto
            -38 33 -40 34 -21 vhcurveto
            44 27 rlineto
            -21 17 -20 25 26 vvcurveto
            12 6 13 14 9 vhcurveto
            204 133 return
          </CharString>
          <CharString index="126">
            rmoveto
            215 120 callsubr
            -215 283 rlineto
            10 145 callgsubr
            99 55 -405 -55 244 -139 vlineto
            -64 -35 -38 -94 vhcurveto
            -65 hlineto
            endchar
          </CharString>
          <CharString index="127">
            -142 18 92 -63 102 hhcurveto
            75 48 34 38 27 hvcurveto
            -140 61 579 return
          </CharString>
          <CharString index="128">
            6 callgsubr
            315 204 rmoveto
            180 55 -647 -55 90 -209 hlineto
            -141 63 -48 115 vhcurveto
            65 1 45 25 27 39 rrcurveto
            -246 117 callsubr
          </CharString>
          <CharString index="129">
            507 rmoveto
            -89 callsubr
            -86 -86 -49 -170 -35 vhcurveto
            return
          </CharString>
          <CharString index="130">
            251 rmoveto
            372 -14 callgsubr
            -2 hlineto
            79 -15 -52 60 -95 hhcurveto
            -46 -38 -16 -30 -25 hvcurveto
            return
          </CharString>
          <CharString index="131">
            -33 -27 -15 -40 -39 vvcurveto
            -74 55 -37 30 -9 vhcurveto
            return
          </CharString>
          <CharString index="132">
            hhcurveto
            103 73 64 43 20 hvcurveto
            -220 0 callsubr
          </CharString>
          <CharString index="133">
            327 rmoveto
            -87 -91 -88 -121 93 callgsubr
            vhcurveto
            188 callgsubr
            271 hlineto
            86 callgsubr
            return
          </CharString>
          <CharString index="134">
            -29 22 -22 29 29 22 22 29 29 -22 22 -29 -29 -22 -22 -29 vhcurveto
            return
          </CharString>
          <CharString index="135">
            182 callgsubr
            97 callgsubr
            return
          </CharString>
          <CharString index="136">
            -22 callgsubr
            -154 20 98 -80 118 -101 callsubr
            vlineto
            endchar
          </CharString>
          <CharString index="137">
            -73 -50 48 77 76 47 57 78 69 49 -40 -30 25 hvcurveto
            -87 -34 -7 -101 -104 hhcurveto
            return
          </CharString>
          <CharString index="138">
            119 50 340 -87 callsubr
            return
          </CharString>
          <CharString index="139">
            -15 callgsubr
            315 55 -611 -55 234 -109 vlineto
            -61 callgsubr
            return
          </CharString>
          <CharString index="140">
            23 21 0 1 21 hvcurveto
            -59 -38 -21 -62 -68 vvcurveto
            -131 82 -91 132 -34 callgsubr
            vhcurveto
            -86 callgsubr
            98 return
          </CharString>
          <CharString index="141">
            hhcurveto
            -72 -48 -105 callsubr
            47 39 60 33 23 -13 -16 15 vhcurveto
            return
          </CharString>
          <CharString index="142">
            -9 -18 -17 -3 -17 hhcurveto
            -44 -33 31 49 48 33 45 63 81 36 return
          </CharString>
          <CharString index="143">
            153 212 57 rmoveto
            256 184 53 -184 251 39 callsubr
            -308 -90 -53 90 -313 59 callgsubr
          </CharString>
          <CharString index="144">
            hvcurveto
            81 25 72 45 94 170 callsubr
            endchar
          </CharString>
          <CharString index="145">
            vvcurveto
            -109 79 -89 126 61 49 21 31 26 vhcurveto
            -64 callgsubr
          </CharString>
          <CharString index="146">
            130 vlineto
            164 109 -126 -150 -143 -78 -141 -190 hvcurveto
            -197 617 rmoveto
            return
          </CharString>
          <CharString index="147">
            rmoveto
            49 hlineto
            135 150 rlineto
            -81 hlineto
            -251 -150 rmoveto
            49 hlineto
            131 150 rlineto
            -81 hlineto
            return
          </CharString>
          <CharString index="148">
            rmoveto
            -55 404 16 callgsubr
            -106 72 -87 127 -5 hvcurveto
            113 callgsubr
            167 164 122 55 hlineto
            endchar
          </CharString>
          <CharString index="149">
            hhcurveto
            -72 -48 -105 callsubr
            47 39 60 31 return
          </CharString>
          <CharString index="150">
            7 -13 -25 9 -32 hhcurveto
            -75 -47 29 callgsubr
            return
          </CharString>
          <CharString index="151">
            599 rmoveto
            256 55 -318 -355 hlineto
            19 43 53 16 56 hhcurveto
            81 67 -43 -88 -105 -63 -48 -114 -52 -64 14 23 -40 hvcurveto
            -62 vlineto
            -23 49 65 -10 52 hhcurveto
            143 88 81 127 118 -86 74 -129 -27 -29 -4 -7 -31 hvcurveto
            endchar
          </CharString>
          <CharString index="152">
            hhcurveto
            49 callgsubr
          </CharString>
          <CharString index="153">
            -120 hlineto
            -89 34 -49 49 -20 vhcurveto
            -54 -25 -37 -50 -65 vvcurveto
            -105 98 -62 110 117 97 64 103 65 -37 50 -54 25 vhcurveto
            return
          </CharString>
          <CharString index="154">
            60 -39 -51 29 -69 hhcurveto
            -26 -29 -6 0 hvcurveto
            return
          </CharString>
          <CharString index="155">
            -55 90 -204 hlineto
            85 callsubr
            return
          </CharString>
          <CharString index="156">
            -11 278 -9 -79 callsubr
            return
          </CharString>
          <CharString index="157">
            -242 -78 callsubr
            return
          </CharString>
          <CharString index="158">
            rmoveto
            -81 hlineto
            -102 -150 rlineto
            55 hlineto
            return
          </CharString>
          <CharString index="159">
            vvcurveto
            72 -65 70 -99 -90 -66 -72 -71 return
          </CharString>
          <CharString index="160">
            22 -50 130 callsubr
            return
          </CharString>
          <CharString index="161">
            -260 vlineto
            63 callsubr
          </CharString>
          <CharString index="162">
            11 10 1 1 6 hvcurveto
            72 callsubr
          </CharString>
          <CharString index="163">
            51 rmoveto
            -39 -11 -30 -16 -23 vhcurveto
            -149 129 rlineto
            3 13 14 2 15 hhcurveto
            60 48 21 31 26 hvcurveto
            -58 -217 rmoveto
            -18 -25 -30 -8 -26 hhcurveto
            -61 -50 35 57 29 11 25 21 18 hvcurveto
            267 349 62 callgsubr
            return
          </CharString>
          <CharString index="164">
            -192 35 223 rmoveto
            -5 12 27 -7 30 hhcurveto
            82 38 49 80 hvcurveto
            239 176 55 -420 178 callgsubr
            418 42 rmoveto
            -402 -344 rlineto
            88 hlineto
            345 291 rlineto
            return
          </CharString>
          <CharString index="165">
            -68 callgsubr
            191 return
          </CharString>
          <CharString index="166">
            -160 51 115 -107 179 hhcurveto
            -205 -157 rlineto
            94 hlineto
            return
          </CharString>
          <CharString index="167">
            hhcurveto
            -48 -43 -17 -32 -28 hvcurveto
            return
          </CharString>
          <CharString index="168">
            55 rmoveto
            172 137 125 144 130 vvcurveto
            132 -101 62 -103 -53 -59 -19 -35 -44 vhcurveto
            -62 vlineto
            36 49 59 22 46 hhcurveto
            83 59 -46 -93 -134 -163 -154 -157 -120 hvcurveto
            -55 407 55 vlineto
            endchar
          </CharString>
          <CharString index="169">
            vvcurveto
            42 29 8 32 vhcurveto
            return
          </CharString>
          <CharString index="170">
            112 callsubr
            -119 92 -68 97 -62 callsubr
          </CharString>
          <CharString index="171">
            181 callgsubr
            50 79 -17 vhcurveto
            83 24 70 54 96 -33 callsubr
            return
          </CharString>
          <CharString index="172">
            -42 callsubr
            -109 return
          </CharString>
          <CharString index="173">
            -579 62 579 return
          </CharString>
          <CharString index="174">
            vlineto
            73 callgsubr
          </CharString>
          <CharString index="175">
            61 449 167 callgsubr
            49 85 89 70 47 95 vhcurveto
            endchar
          </CharString>
          <CharString index="176">
            107 callgsubr
            -185 283 rlineto
            10 hlineto
            45 35 return
          </CharString>
          <CharString index="177">
            -120 hlineto
            -89 34 -51 49 -20 vhcurveto
            -52 -23 -40 -42 -72 vvcurveto
            return
          </CharString>
          <CharString index="178">
            88 -16 -69 54 -109 hhcurveto
            -28 -29 -5 -7 -16 hvcurveto
            -53 vlineto
            8 18 27 5 31 hhcurveto
            82 48 -55 -76 -80 -51 -59 -95 -59 -51 19 22 -36 hvcurveto
            -60 vlineto
            -16 30 55 -19 189 callsubr
            79 76 103 7 hvcurveto
            return
          </CharString>
          <CharString index="179">
            -36 callsubr
            94 hvcurveto
            21 hlineto
            49 36 -24 -37 19 hvcurveto
            -132 29 92 -68 109 -101 callsubr
            vlineto
            endchar
          </CharString>
          <CharString index="180">
            rmoveto
            -456 -712 rlineto
            163 callgsubr
            -150 -568 rmoveto
            145 242 rlineto
            -242 vlineto
            115 hmoveto
            -65 285 -75 hlineto
            -173 -285 rlineto
            -42 198 -102 50 102 65 vlineto
            endchar
          </CharString>
          <CharString index="181">
            62 39 -29 -49 -45 -32 -27 -52 -36 -37 7 20 -37 hvcurveto
            -51 vlineto
            -15 31 45 -9 34 hhcurveto
            91 47 51 68 57 -44 43 -48 4 hvcurveto
            47 12 31 34 54 vvcurveto
            60 -41 54 -92 -34 -37 -14 -12 -19 vhcurveto
            return
          </CharString>
          <CharString index="182">
            89 callgsubr
            55 return
          </CharString>
          <CharString index="183">
            259 50 rmoveto
            -86 -64 80 117 141 70 69 86 58 95 -43 -158 -162 -86 -44 -73 hvcurveto
            return
          </CharString>
          <CharString index="184">
            -55 260 hlineto
            25 -21 19 -40 -37 vvcurveto
            -63 -31 -46 -92 vhcurveto
            -50 -55 47 hlineto
            87 72 -41 -78 -86 -70 -37 -87 -58 -41 15 15 -31 hvcurveto
            -57 vlineto
            -14 39 42 -12 55 hhcurveto
            141 72 75 98 return
          </CharString>
          <CharString index="185">
            -82 -95 hlineto
            -95 -62 -46 -76 -86 74 -22 100 -7 122 callsubr
            return
          </CharString>
          <CharString index="186">
            -74 -61 16 68 43 21 33 44 20 hvcurveto
            return
          </CharString>
          <CharString index="187">
            rmoveto
            -606 -55 425 -260 hlineto
            -102 callgsubr
            -89 -69 -50 -75 -24 hvcurveto
            -194 return
          </CharString>
          <CharString index="188">
            rmoveto
            -81 hlineto
            128 -150 rlineto
            55 hlineto
            endchar
          </CharString>
          <CharString index="189">
            889 rmoveto
            -53 -36 -43 -68 -67 -36 43 53 vhcurveto
            -62 hlineto
            -103 80 -45 85 86 80 47 101 vhcurveto
            return
          </CharString>
          <CharString index="190">
            56 vlineto
            6 -13 -21 4 -22 hhcurveto
            return
          </CharString>
          <CharString index="191">
            vvcurveto
            161 callsubr
            vhcurveto
            -173 -82 callsubr
          </CharString>
          <CharString index="192">
            -141 65 -57 113 return
          </CharString>
          <CharString index="193">
            rmoveto
            -15 callgsubr
            return
          </CharString>
          <CharString index="194">
            rmoveto
            -435 -57 186 -617 62 617 187 hlineto
            endchar
          </CharString>
          <CharString index="195">
            rmoveto
            -102 150 rlineto
            -81 hlineto
            128 -150 rlineto
            return
          </CharString>
          <CharString index="196">
            22 20 -5 -6 14 vhcurveto
            return
          </CharString>
          <CharString index="197">
            373 rmoveto
            -18 -2 -16 -4 -14 vhcurveto
            -262 253 rlineto
            1 268 vlineto
            -268 -62 rmoveto
            244 -233 rlineto
            -40 -25 -43 -21 -46 hhcurveto
            -77 -53 46 106 hvcurveto
            return
          </CharString>
          <CharString index="198">
            vlineto
            -91 callsubr
            return
          </CharString>
          <CharString index="199">
            207 callsubr
            1 callsubr
            return
          </CharString>
          <CharString index="200">
            rmoveto
            -54 44 -44 54 55 44 44 54 55 -44 44 -55 -54 -44 -44 -55 vhcurveto
            45 hmoveto
            30 24 24 29 30 24 -24 -30 -29 -24 -24 -30 -29 -24 24 29 vhcurveto
            return
          </CharString>
          <CharString index="201">
            vlineto
            -100 callsubr
            191 -579 -82 callsubr
          </CharString>
          <CharString index="202">
            162 callgsubr
            436 -127 vlineto
            85 callgsubr
            -102 -85 -47 -78 -37 hvcurveto
            314 251 rmoveto
            114 55 return
          </CharString>
          <CharString index="203">
            62 callsubr
            endchar
          </CharString>
          <CharString index="204">
            hhcurveto
            -77 -38 40 106 hvcurveto
            return
          </CharString>
          <CharString index="205">
            62 314 vlineto
            return
          </CharString>
          <CharString index="206">
            163 callsubr
            45 38 55 vhcurveto
            142 -90 -287 270 hhcurveto
            87 55 32 39 29 116 callgsubr
          </CharString>
          <CharString index="207">
            rmoveto
            -70 hlineto
            -150 -162 150 -162 rlineto
            70 hlineto
            -147 162 rlineto
            return
          </CharString>
          <CharString index="208">
            144 callsubr
            71 -30 49 -45 27 hvcurveto
            return
          </CharString>
          <CharString index="209">
            87 -107 rlineto
            64 hlineto
            -119 150 rlineto
            -63 return
          </CharString>
          <CharString index="210">
            173 callsubr
            116 52 -116 53 hlineto
            74 39 20 44 29 28 -8 -11 27 vhcurveto
            -635 61 667 vlineto
            23 -36 -58 22 -54 hhcurveto
            return
          </CharString>
          <CharString index="211">
            -79 -44 -30 -41 -27 hvcurveto
            125 callgsubr
            return
          </CharString>
          <CharString index="212">
            -194 -69 callgsubr
          </CharString>
          <CharString index="213">
            162 158 callgsubr
            vhcurveto
            55 vlineto
            -11 -33 -53 -7 -36 hhcurveto
            -130 return
          </CharString>
          <CharString index="214">
            205 callgsubr
            143 callgsubr
            return
          </CharString>
          <CharString index="215">
            -72 -53 38 73 56 34 74 175 return
          </CharString>
          <CharString index="216">
            -351 80 hmoveto
            61 507 -61 hlineto
            return
          </CharString>
          <CharString index="217">
            148 callgsubr
            116 55 return
          </CharString>
          <CharString index="218">
            -78 55 -43 122 -6 return
          </CharString>
          <CharString index="219">
            -102 callgsubr
            -111 -80 -78 -107 return
          </CharString>
          <CharString index="220">
            -55 212 -22 callgsubr
            -154 20 99 -80 117 hhcurveto
            -196 -175 rlineto
            91 hlineto
            return
          </CharString>
          <CharString index="221">
            -35 -12 -44 -50 vvcurveto
            -146 90 -116 140 -10 callsubr
            vhcurveto
            51 vlineto
            -2 -8 -10 0 -5 hhcurveto
            -122 -55 100 109 return
          </CharString>
          <CharString index="222">
            hhcurveto
            -101 -102 27 91 96 122 21 93 23 51 -2 -3 20 hvcurveto
            endchar
          </CharString>
          <CharString index="223">
            106 -76 62 -94 16 vhcurveto
            139 vlineto
            endchar
          </CharString>
          <CharString index="224">
            98 callsubr
            66 55 48 69 53 42 -27 -53 26 vhcurveto
            46 39 rlineto
            52 -30 -56 41 -81 130 callgsubr
            endchar
          </CharString>
          <CharString index="225">
            -83 -89 -39 -93 -98 -83 39 84 84 96 30 86 101 80 -38 -77 vhcurveto
            return
          </CharString>
          <CharString index="226">
            -20 58 hhcurveto
            97 65 64 83 return
          </CharString>
          <CharString index="227">
            -285 rlineto
            75 hlineto
            return
          </CharString>
          <CharString index="228">
            24 callsubr
            -59 -8 -46 -48 -71 vvcurveto
            -103 93 -64 132 155 114 106 141 return
          </CharString>
          <CharString index="229">
            hvcurveto
            48 callgsubr
            return
          </CharString>
          <CharString index="230">
            -36 rlineto
            -50 -8 -20 -26 -33 vvcurveto
            -42 27 -41 16 -22 vhcurveto
            46 11 rlineto
            -9 21 -10 25 22 vvcurveto
            24 12 16 31 5 vhcurveto
            return
          </CharString>
          <CharString index="231">
            184 callgsubr
            -126 75 -99 133 hvcurveto
            54 vlineto
            -94 5 -51 68 97 vvcurveto
            90 callgsubr
            124 vhcurveto
            return
          </CharString>
          <CharString index="232">
            rlineto
            18 -25 -19 7 -20 hhcurveto
            -57 -28 -74 -62 -1 hvcurveto
            45 -15 rlineto
            44 10 15 34 31 hhcurveto
            12 14 -5 -11 16 hvcurveto
            return
          </CharString>
          <CharString index="233">
            -17 290 50 rmoveto
            -58 -95 43 158 162 86 44 73 86 64 -80 -117 -141 -70 -69 -86 hvcurveto
            -153 return
          </CharString>
          <CharString index="234">
            -139 hlineto
            -64 -35 -38 -94 vhcurveto
            return
          </CharString>
          <CharString index="235">
            rmoveto
            -101 -52 -56 -82 -72 -42 40 64 79 70 39 88 vhcurveto
            0 return
          </CharString>
          <CharString index="236">
            93 -33 callsubr
            return
          </CharString>
          <CharString index="237">
            rlineto
            55 140 return
          </CharString>
          <CharString index="238">
            -9 callgsubr
            endchar
          </CharString>
          <CharString index="239">
            137 callgsubr
            45 return
          </CharString>
          <CharString index="240">
            vlineto
            139 callsubr
          </CharString>
          <CharString index="241">
            rmoveto
            171 callsubr
            -302 hlineto
            return
          </CharString>
          <CharString index="242">
            -104 -184 124 callgsubr
            -60 33 -36 33 -22 hvcurveto
            return
          </CharString>
          <CharString index="243">
            46 9 -24 -46 hvcurveto
            return
          </CharString>
          <CharString index="244">
            -47 429 110 callsubr
            -565 200 callgsubr
            return
          </CharString>
          <CharString index="245">
            hhcurveto
            93 callgsubr
            hvcurveto
            188 callgsubr
            return
          </CharString>
          <CharString index="246">
            145 callsubr
            -26 callgsubr
          </CharString>
          <CharString index="247">
            107 74 99 129 28 47 -10 -20 30 return
          </CharString>
          <CharString index="248">
            27 27 28 14 -20 -45 hvcurveto
            -44 50 44 vlineto
            47 21 19 31 12 12 -4 -3 7 vhcurveto
            -100 vlineto
            return
          </CharString>
          <CharString index="249">
            654 rmoveto
            -55 358 vlineto
            -276 -599 rlineto
            66 hlineto
            275 599 rlineto
            55 vlineto
            endchar
          </CharString>
          <CharString index="250">
            -121 108 callsubr
            vhcurveto
            55 return
          </CharString>
          <CharString index="251">
            -57 vlineto
            -13 30 40 -10 47 hhcurveto
            121 77 76 106 return
          </CharString>
          <CharString index="252">
            85 callsubr
            vhcurveto
            return
          </CharString>
          <CharString index="253">
            -64 -15 -34 -84 vhcurveto
            return
          </CharString>
          <CharString index="254">
            72 -23 37 -86 vhcurveto
            return
          </CharString>
          <CharString index="255">
            -209 hlineto
            -141 return
          </CharString>
          <CharString index="256">
            -110 -103 vlineto
            -139 -87 -81 -112 -71 34 -62 68 -30 hvcurveto
            -49 -27 -23 -47 -49 vvcurveto
            return
          </CharString>
          <CharString index="257" raw="1">
            fb26fb28 05f73d1d 0b 
          </CharString>
          <CharString index="258">
            -255 vlineto
            -140 -95 -73 -101 -90 -61 43 89 -19 vhcurveto
            207 callsubr
            59 118 vvcurveto
            return
          </CharString>
          <CharString index="259">
            vlineto
            67 37 27 36 16 15 -3 -5 13 vhcurveto
            endchar
          </CharString>
          <CharString index="260">
            rmoveto
            -348 hlineto
            29 -23 -44 30 -59 hhcurveto
            -47 -41 -17 -31 -27 hvcurveto
            150 589 vlineto
            return
          </CharString>
          <CharString index="261">
            rmoveto
            207 241 rlineto
            -75 hlineto
            -206 -241 212 -266 rlineto
            76 hlineto
            endchar
          </CharString>
          <CharString index="262">
            rmoveto
            266 342 rlineto
            -78 hlineto
            -267 -342 277 -332 rlineto
            82 hlineto
            endchar
          </CharString>
          <CharString index="263">
            -121 97 -66 109 return
          </CharString>
          <CharString index="264">
            -272 263 rlineto
            return
          </CharString>
          <CharString index="265">
            728 rmoveto
            195 callgsubr
            -27 19 -19 27 hvcurveto
            return
          </CharString>
          <CharString index="266">
            168 callsubr
            314 vlineto
            return
          </CharString>
          <CharString index="267">
            -55 110 -229 hlineto
            -43 callsubr
            return
          </CharString>
          <CharString index="268">
            -124 95 -79 110 88 68 42 48 29 return
          </CharString>
          <CharString index="269">
            -109 hlineto
            -71 -3 -31 -76 vhcurveto
            -65 -53 hlineto
            return
          </CharString>
          <CharString index="270">
            -63 callsubr
            65 return
          </CharString>
          <CharString index="271">
            184 339 187 callgsubr
            return
          </CharString>
          <CharString index="272">
            rmoveto
            -83 67 -67 83 82 68 67 83 82 -68 68 -82 -83 -67 -68 -82 vhcurveto
            return
          </CharString>
          <CharString index="273">
            13 15 -31 hvcurveto
            -57 vlineto
            -13 30 return
          </CharString>
          <CharString index="274">
            429 98 callgsubr
            return
          </CharString>
          <CharString index="275">
            -141 -46 callsubr
            return
          </CharString>
          <CharString index="276">
            184 callsubr
            -456 -55 448 197 callgsubr
            return
          </CharString>
          <CharString index="277">
            -7 callsubr
            -252 hlineto
            -87 -67 -58 -96 vhcurveto
            return
          </CharString>
          <CharString index="278">
            120 -579 -64 callsubr
            55 return
          </CharString>
          <CharString index="279">
            vlineto
            -110 -3 -125 -47 -116 vvcurveto
            return
          </CharString>
          <CharString index="280">
            -455 61 455 return
          </CharString>
          <CharString index="281">
            -224 231 return
          </CharString>
          <CharString index="282">
            rmoveto
            22 20 -5 -6 14 hvcurveto
            83 callsubr
            -91 return
          </CharString>
          <CharString index="283">
            -189 -197 return
          </CharString>
          <CharString index="284">
            18 28 35 13 28 hhcurveto
            47 31 -21 -48 -49 -41 -27 -46 hvcurveto
            return
          </CharString>
          <CharString index="285">
            rmoveto
            104 58 rlineto
            -366 52 429 -43 vlineto
            -113 -64 rlineto
            return
          </CharString>
          <CharString index="286">
            hlineto
            -66 callgsubr
            -52 -46 return
          </CharString>
          <CharString index="287">
            45 -77 callsubr
            return
          </CharString>
          <CharString index="288">
            -81 -57 -47 -80 -46 -38 13 15 -31 return
          </CharString>
          <CharString index="289">
            -95 -107 vlineto
            190 callgsubr
            return
          </CharString>
          <CharString index="290">
            -36 32 -22 hvcurveto
            -44 -36 return
          </CharString>
          <CharString index="291">
            vlineto
            147 callsubr
            return
          </CharString>
          <CharString index="292">
            vlineto
            112 callgsubr
            return
          </CharString>
          <CharString index="293">
            4 callgsubr
            -55 return
          </CharString>
          <CharString index="294">
            457 rmoveto
            4 -16 -24 3 -22 hhcurveto
            -111 -80 -78 -107 return
          </CharString>
          <CharString index="295">
            -227 60 243 rmoveto
            225 55 -225 hlineto
            endchar
          </CharString>
          <CharString index="296">
            65 hhcurveto
            120 return
          </CharString>
          <CharString index="297">
            45 57 -23 111 callgsubr
            -37 35 return
          </CharString>
          <CharString index="298">
            56 vlineto
            6 -13 -26 4 -22 hhcurveto
            -87 -44 -62 -80 hvcurveto
            return
          </CharString>
          <CharString index="299">
            hhcurveto
            -46 -38 -14 -19 -31 hvcurveto
            1 8 0 7 8 vvcurveto
            return
          </CharString>
          <CharString index="300">
            -260 vlineto
            -140 -95 -68 -101 return
          </CharString>
          <CharString index="301">
            -55 90 -204 vlineto
            145 callsubr
            return
          </CharString>
          <CharString index="302">
            -104 488 4 callgsubr
            -508 -55 508 hlineto
            return
          </CharString>
          <CharString index="303">
            rmoveto
            54 hlineto
            127 214 rlineto
            -90 hlineto
            endchar
          </CharString>
          <CharString index="304">
            424 56 -424 hlineto
            return
          </CharString>
          <CharString index="305">
            vlineto
            116 61 rlineto
            61 vlineto
            -116 -61 rlineto
            return
          </CharString>
          <CharString index="306">
            vvcurveto
            58 38 43 203 callgsubr
            return
          </CharString>
          <CharString index="307">
            -31 -38 34 hvcurveto
            -235 -191 rlineto
            88 hlineto
            return
          </CharString>
          <CharString index="308">
            vvcurveto
            98 -92 53 -103 13 vhcurveto
            83 vlineto
            endchar
          </CharString>
          <CharString index="309">
            rmoveto
            3 -11 -21 3 -9 hhcurveto
            return
          </CharString>
          <CharString index="310">
            rmoveto
            424 55 -424 hlineto
            return
          </CharString>
          <CharString index="311">
            -179 -56 179 return
          </CharString>
          <CharString index="312">
            hlineto
            112 callgsubr
            return
          </CharString>
          <CharString index="313">
            73 37 42 47 89 callsubr
            return
          </CharString>
          <CharString index="314">
            146 32 99 return
          </CharString>
        <CharString name=".notdef">
          178 180 hmoveto
          390 701 -390 hlineto
          54 -50 rmoveto
          282 -601 -282 hlineto
          endchar
        </CharString>
        <CharString name="A">
          65 189 242 -86 callsubr
        </CharString>
        <CharString name="AE">
          291 238 242 rmoveto
          25 42 94 159 62 108 34 61 rlinecurve
          -370 vlineto
          62 -185 rmoveto
          251 262 57 -262 252 297 57 -387 vlineto
          -398 -674 rlineto
          67 hlineto
          111 187 rlineto
          248 -187 365 57 hlineto
          endchar
        </CharString>
        <CharString name="Aacute">
          65 483 879 51 callsubr
          -166 -487 -86 callsubr
        </CharString>
        <CharString name="Abreve">
          65 424 878 43 callgsubr
          -287 -636 -86 callsubr
        </CharString>
        <CharString name="Acircumflex">
          65 321 836 30 callgsubr
          -46 -487 -86 callsubr
        </CharString>
        <CharString name="Adieresis">
          65 413 762 -51 callgsubr
          -40 -520 -86 callsubr
        </CharString>
        <CharString name="Agrave">
          65 341 729 88 callsubr
          -97 -487 -86 callsubr
        </CharString>
        <CharString name="Amacron">
          65 453 826 164 callgsubr
          -264 -539 -86 callsubr
        </CharString>
        <CharString name="Aogonek">
          65 189 242 rmoveto
          15 42 rlineto
          104 299 13 39 0 vvcurveto
          0 12 -39 102 -298 vhcurveto
          15 -43 rlineto
          -84 432 rmoveto
          -90 hlineto
          -238 -674 rlineto
          67 hlineto
          65 187 rlineto
          298 hlineto
          60 -176 rlineto
          -53 -30 -43 -51 -59 -39 callgsubr
          62 28 hvcurveto
          endchar
        </CharString>
        <CharString name="Aring">
          65 321 871 27 callgsubr
          -132 -477 -86 callsubr
        </CharString>
        <CharString name="Atilde">
          65 440 854 -58 callgsubr
          -293 -584 -86 callsubr
        </CharString>
        <CharString name="B">
          -10 142 55 rmoveto
          258 153 vlineto
          98 59 -47 -85 -83 -52 -43 -86 hvcurveto
          -172 564 rmoveto
          133 hlineto
          110 47 -56 -62 -71 -45 -62 -124 hvcurveto
          -121 hlineto
          -62 306 rmoveto
          -674 234 vlineto
          135 68 75 104 104 -71 52 -69 8 hvcurveto
          69 14 51 61 81 vvcurveto
          111 -96 64 -133 vhcurveto
          endchar
        </CharString>
        <CharString name="C">
          27 557 647 -47 callgsubr
          endchar
        </CharString>
        <CharString name="CR">
          endchar
        </CharString>
        <CharString name="Cacute">
          27 557 647 -47 callgsubr
          -220 147 -12 callgsubr
          endchar
        </CharString>
        <CharString name="Ccaron">
          27 557 647 -47 callgsubr
          -142 147 -70 callgsubr
          endchar
        </CharString>
        <CharString name="Ccedilla">
          27 336 -51 rmoveto
          17 -28 6 -19 -28 vvcurveto
          -42 -30 -25 -57 -6 vhcurveto
          -49 vlineto
          96 4 47 58 65 vvcurveto
          22 -7 32 -11 16 vhcurveto
          160 698 -47 callgsubr
          endchar
        </CharString>
        <CharString name="D">
          83 142 57 rmoveto
          560 39 callsubr
          -674 59 callgsubr
        </CharString>
        <CharString name="Dcaron">
          83 334 728 -70 callgsubr
          -129 -671 rmoveto
          560 39 callsubr
          -674 59 callgsubr
        </CharString>
        <CharString name="Dcroat">
          36 callsubr
        </CharString>
        <CharString name="E">
          -82 142 57 -38 callsubr
        </CharString>
        <CharString name="Eacute">
          -82 433 879 51 callsubr
          -163 -672 -38 callsubr
        </CharString>
        <CharString name="Ecaron">
          -82 301 728 -70 callgsubr
          -96 -671 -38 callsubr
        </CharString>
        <CharString name="Ecircumflex">
          -82 273 836 30 callgsubr
          -45 -672 -38 callsubr
        </CharString>
        <CharString name="Edieresis">
          -82 359 760 -51 callgsubr
          -33 -703 -38 callsubr
        </CharString>
        <CharString name="Edotaccent">
          -82 273 763 rmoveto
          25 18 19 24 25 -18 18 -25 -24 -19 -18 -25 -24 19 -19 24 hvcurveto
          -131 -706 -38 callsubr
        </CharString>
        <CharString name="Egrave">
          -82 313 728 88 callsubr
          -116 -671 -38 callsubr
        </CharString>
        <CharString name="Emacron">
          -82 392 826 164 callgsubr
          -250 -724 -38 callsubr
        </CharString>
        <CharString name="Eogonek">
          -82 445 hmoveto
          57 -303 251 262 57 -262 252 297 57 -359 -674 164 vlineto
          -45 -31 -34 -46 -52 -39 callgsubr
          62 28 hvcurveto
          endchar
        </CharString>
        <CharString name="Eth">
          36 callsubr
        </CharString>
        <CharString name="Euro">
          10 542 640 rmoveto
          15 -30 -43 4 -37 hhcurveto
          -132 -104 -83 -142 -35 hvcurveto
          -106 -49 98 hlineto
          -3 -19 -1 -20 -21 vvcurveto
          -17 1 -17 2 -16 vhcurveto
          -97 -49 104 hlineto
          -146 33 106 -88 127 hhcurveto
          42 40 3 18 35 hvcurveto
          59 vlineto
          -17 -31 -41 -4 -37 hhcurveto
          -95 -83 61 114 -30 hvcurveto
          205 49 -214 hlineto
          -2 16 -1 17 17 vvcurveto
          21 1 20 3 19 vhcurveto
          213 49 -203 hlineto
          109 30 79 57 102 hhcurveto
          37 38 -4 -15 29 hvcurveto
          endchar
        </CharString>
        <CharString name="F">
          -88 439 617 rmoveto
          57 -359 -674 62 303 262 57 -262 257 vlineto
          endchar
        </CharString>
        <CharString name="G">
          89 591 371 -30 callsubr
        </CharString>
        <CharString name="Gbreve">
          89 469 879 43 callgsubr
          70 -508 -30 callsubr
        </CharString>
        <CharString name="H">
          60 490 674 rmoveto
          -302 -348 302 -62 -674 62 315 348 -315 62 674 vlineto
          endchar
        </CharString>
        <CharString name="I">
          109 callgsubr
          endchar
        </CharString>
        <CharString name="Iacute">
          109 callgsubr
          8 55 -12 callgsubr
          endchar
        </CharString>
        <CharString name="Icircumflex">
          -340 85 879 12 callgsubr
          -63 -879 rmoveto
          62 674 -62 hlineto
          endchar
        </CharString>
        <CharString name="Idieresis">
          109 callgsubr
          -103 130 -52 callsubr
          endchar
        </CharString>
        <CharString name="Idotaccent">
          109 callgsubr
          -11 133 rmoveto
          -24 19 -19 24 25 18 19 24 25 -18 18 -25 -24 -19 -18 -25 vhcurveto
          endchar
        </CharString>
        <CharString name="Igrave">
          109 callgsubr
          -48 205 81 callsubr
        </CharString>
        <CharString name="Imacron">
          109 callgsubr
          163 107 157 callgsubr
          endchar
        </CharString>
        <CharString name="Iogonek">
          -340 147 674 rmoveto
          -62 -658 hlineto
          -57 -30 -48 -53 -62 -39 callgsubr
          62 28 hvcurveto
          endchar
        </CharString>
        <CharString name="J">
          -223 30 23 rmoveto
          -15 25 39 -8 28 hhcurveto
          77 70 34 131 hvcurveto
          509 -62 -519 vlineto
          -66 -31 -30 -60 -31 -31 11 16 -24 vhcurveto
          endchar
        </CharString>
        <CharString name="K">
          -23 80 hmoveto
          62 674 -62 hlineto
          159 -342 155 callsubr
        </CharString>
        <CharString name="L">
          -98 142 57 127 callgsubr
        </CharString>
        <CharString name="Lacute">
          -98 438 879 51 callsubr
          -168 -672 127 callgsubr
        </CharString>
        <CharString name="Lcaron">
          -98 404 702 rmoveto
          -76 hlineto
          -88 -187 rlineto
          54 hlineto
          -152 -458 127 callgsubr
        </CharString>
        <CharString name="Lslash">
          -89 151 57 rmoveto
          245 vlineto
          146 108 rlineto
          66 vlineto
          -146 -108 rlineto
          306 -62 -352 vlineto
          -64 -48 rlineto
          -66 vlineto
          64 48 rlineto
          -256 359 57 vlineto
          endchar
        </CharString>
        <CharString name="M">
          276 75 hmoveto
          62 hlineto
          19 267 rlineto
          12 168 9 151 0 vvcurveto
          112 -319 88 -250 rlineto
          73 hlineto
          93 250 rlineto
          59 159 60 167 0 vvcurveto
          0 13 -166 14 -160 vhcurveto
          23 -267 rlineto
          62 hlineto
          -57 674 rlineto
          -85 hlineto
          -92 -247 rlineto
          -57 -153 -69 -190 0 vvcurveto
          0 -67 196 -52 147 vhcurveto
          -88 247 rlineto
          -85 hlineto
          endchar
        </CharString>
        <CharString name="N">
          95 80 hmoveto
          58 callgsubr
        </CharString>
        <CharString name="NULL">
          endchar
        </CharString>
        <CharString name="Nacute">
          95 332 728 -12 callgsubr
          -354 -878 55 callgsubr
        </CharString>
        <CharString name="Ncaron">
          95 80 hmoveto
          -59 callsubr
          304 55 -70 callgsubr
          endchar
        </CharString>
        <CharString name="Ntilde">
          95 80 hmoveto
          -59 callsubr
          382 179 -58 callgsubr
          endchar
        </CharString>
        <CharString name="O">
          31 callsubr
          endchar
        </CharString>
        <CharString name="OE">
          407 342 52 rmoveto
          -140 -88 109 179 179 81 109 145 150 79 -109 -179 -179 -79 -109 -148 hvcurveto
          289 5 rmoveto
          251 262 57 -262 252 297 57 -359 -98 vlineto
          71 -49 -77 41 -103 hhcurveto
          -181 -109 -136 -212 -212 114 -136 178 100 78 41 73 49 hvcurveto
          -106 365 57 vlineto
          endchar
        </CharString>
        <CharString name="Oacute">
          119 327 729 -12 callgsubr
          -379 -539 -87 callsubr
          endchar
        </CharString>
        <CharString name="Ocircumflex">
          119 114 340 rmoveto
          179 86 109 145 150 82 -109 -179 -179 -82 -109 -148 -140 -93 109 179 vhcurveto
          -64 hmoveto
          -212 119 -136 178 182 112 136 212 212 -108 136 -188 -181 -114 -136 -212 vhcurveto
          272 539 12 callgsubr
          endchar
        </CharString>
        <CharString name="Odieresis">
          119 213 805 -52 callsubr
          -347 -465 -87 callsubr
          endchar
        </CharString>
        <CharString name="Ograve">
          31 callsubr
          166 539 81 callsubr
        </CharString>
        <CharString name="Ohungarumlaut">
          119 412 729 40 callsubr
          -313 -539 -87 callsubr
          endchar
        </CharString>
        <CharString name="Omacron">
          119 479 781 157 callgsubr
          -166 -441 -87 callsubr
          endchar
        </CharString>
        <CharString name="Oslash">
          92 520 536 rmoveto
          32 -49 17 -66 -81 vvcurveto
          -179 -82 -109 -148 -56 -49 18 33 -38 vhcurveto
          -39 43 rmoveto
          -33 49 -18 65 80 vvcurveto
          179 86 109 145 59 48 -17 -31 37 vhcurveto
          153 108 rmoveto
          -72 hlineto
          -44 -58 rlineto
          37 -47 -61 21 -73 hhcurveto
          -181 -114 -136 -212 -102 27 -84 49 -60 hvcurveto
          -77 -103 rlineto
          71 hlineto
          46 62 rlineto
          -39 49 61 -22 71 hhcurveto
          182 112 136 212 103 -26 85 -47 61 hvcurveto
          endchar
        </CharString>
        <CharString name="Otilde">
          31 callsubr
          353 515 -58 callgsubr
          endchar
        </CharString>
        <CharString name="P">
          -32 142 311 rmoveto
          308 107 vlineto
          117 66 -64 -97 -81 -63 -66 -109 hvcurveto
          -180 363 rmoveto
          -674 62 256 111 vlineto
          154 88 95 107 126 -92 90 -161 hvcurveto
          endchar
        </CharString>
        <CharString name="Q">
          129 114 340 rmoveto
          179 86 109 145 150 82 -109 -179 -179 -82 -109 -148 -140 -93 109 179 vhcurveto
          554 -451 rmoveto
          -198 128 rlineto
          108 48 63 116 159 vvcurveto
          212 -108 136 -188 -181 -114 -136 -212 -212 119 -136 178 19 18 1 3 17 vhcurveto
          202 -135 rlineto
          endchar
        </CharString>
        <CharString name="R">
          -41 142 329 -13 callgsubr
        </CharString>
        <CharString name="Racute">
          -41 419 879 51 callsubr
          -149 -400 -13 callgsubr
        </CharString>
        <CharString name="Rcaron">
          -41 300 728 -70 callgsubr
          -95 -399 -13 callgsubr
        </CharString>
        <CharString name="S">
          -45 423 650 -75 callgsubr
          endchar
        </CharString>
        <CharString name="Sacute">
          -45 259 728 -12 callgsubr
          62 -228 -75 callgsubr
          endchar
        </CharString>
        <CharString name="Scaron">
          -45 423 650 -75 callgsubr
          -129 147 -70 callgsubr
          endchar
        </CharString>
        <CharString name="T">
          -107 450 674 87 callsubr
        </CharString>
        <CharString name="Tcaron">
          -107 265 729 -70 callgsubr
          248 -55 87 callsubr
        </CharString>
        <CharString name="Thorn">
          -43 142 183 rmoveto
          308 97 vlineto
          127 56 -64 -97 -81 -53 -66 -119 hvcurveto
          -108 363 rmoveto
          128 -62 -674 62 128 101 vlineto
          164 78 95 107 126 -82 90 -171 hvcurveto
          endchar
        </CharString>
        <CharString name="U">
          67 497 253 32 callgsubr
        </CharString>
        <CharString name="Uacute">
          67 304 729 -12 callgsubr
          91 -626 32 callgsubr
        </CharString>
        <CharString name="Ucircumflex">
          67 497 253 -66 callsubr
          -206 205 12 callgsubr
          endchar
        </CharString>
        <CharString name="Udieresis">
          67 185 805 -52 callsubr
          128 -552 32 callgsubr
        </CharString>
        <CharString name="Ugrave">
          67 497 253 -66 callsubr
          -250 205 81 callsubr
        </CharString>
        <CharString name="Uhungarumlaut">
          67 497 253 -66 callsubr
          -133 55 40 callsubr
          endchar
        </CharString>
        <CharString name="Umacron">
          67 497 253 -66 callsubr
          -44 107 157 callgsubr
          endchar
        </CharString>
        <CharString name="Uogonek">
          67 497 674 rmoveto
          -421 vlineto
          -147 -73 -54 -106 -101 -75 55 141 vhcurveto
          426 -62 -427 vlineto
          -164 84 -86 142 -5 vhcurveto
          -36 -30 -25 -40 -45 -39 callgsubr
          61 28 hvcurveto
          94 30 54 83 136 vvcurveto
          419 vlineto
          endchar
        </CharString>
        <CharString name="Uring">
          67 224 816 93 callsubr
          228 -563 32 callgsubr
        </CharString>
        <CharString name="V">
          59 591 674 rmoveto
          -67 hlineto
          -92 -267 -120 -352 rlineto
          0 -43 132 -73 220 vhcurveto
          -89 267 rlineto
          -67 hlineto
          229 -674 rlineto
          85 hlineto
          endchar
        </CharString>
        <CharString name="W">
          357 432 664 rmoveto
          -70 -240 rlineto
          -36 -122 -67 -239 0 vvcurveto
          0 -69 276 -22 85 vhcurveto
          -63 250 rlineto
          -65 hlineto
          175 -674 rlineto
          85 hlineto
          63 213 rlineto
          69 232 38 138 0 vvcurveto
          0 41 -138 73 -232 vhcurveto
          67 -213 rlineto
          85 hlineto
          153 674 rlineto
          -62 hlineto
          -56 -252 rlineto
          -24 -107 -55 -256 0 vvcurveto
          0 -82 267 -30 97 vhcurveto
          -75 241 rlineto
          endchar
        </CharString>
        <CharString name="X">
          28 260 340 rmoveto
          -218 -340 rlineto
          72 hlineto
          181 287 191 -287 rlineto
          72 hlineto
          -229 340 204 334 rlineto
          -72 hlineto
          -167 -278 -167 278 rlineto
          -72 hlineto
          endchar
        </CharString>
        <CharString name="Y">
          8 479 674 17 callgsubr
        </CharString>
        <CharString name="Yacute">
          8 463 878 51 callsubr
          144 -54 17 callgsubr
        </CharString>
        <CharString name="Ydieresis">
          8 381 761 -51 callgsubr
          282 -87 17 callgsubr
        </CharString>
        <CharString name="Z">
          -17 490 674 40 callgsubr
          endchar
        </CharString>
        <CharString name="Zacute">
          -17 261 729 -12 callgsubr
          127 -205 40 callgsubr
          endchar
        </CharString>
        <CharString name="Zcaron">
          -17 490 674 40 callgsubr
          -185 110 -70 callgsubr
          endchar
        </CharString>
        <CharString name="Zdotaccent">
          -17 490 674 40 callgsubr
          -251 188 rmoveto
          -24 19 -19 24 25 18 19 24 25 -18 18 -25 -24 -19 -18 -25 vhcurveto
          endchar
        </CharString>
        <CharString name="a">
          -86 355 241 -98 callgsubr
        </CharString>
        <CharString name="aacute">
          -86 414 712 51 callsubr
          69 -321 -98 callgsubr
        </CharString>
        <CharString name="abreve">
          -86 350 711 43 callgsubr
          -47 -470 -98 callgsubr
        </CharString>
        <CharString name="acircumflex">
          -86 253 668 30 callgsubr
          188 -320 -98 callgsubr
        </CharString>
        <CharString name="acute">
          -172 110 648 -12 callgsubr
          endchar
        </CharString>
        <CharString name="adieresis">
          -86 341 591 -51 callgsubr
          198 -350 -98 callgsubr
        </CharString>
        <CharString name="ae">
          250 778 226 rmoveto
          3 15 1 24 10 vvcurveto
          151 -68 87 -131 -76 -63 -32 -61 -40 vhcurveto
          61 -24 -54 34 -91 hhcurveto
          -50 -58 -15 -22 -35 hvcurveto
          132 callgsubr
          91 66 43 64 26 hvcurveto
          -63 40 78 -44 93 hhcurveto
          43 56 11 19 38 hvcurveto
          62 vlineto
          192 callgsubr
          159 230 rmoveto
          77 61 -49 -102 hvcurveto
          -23 -297 vlineto
          121 11 70 53 78 hhcurveto
          -221 -278 rmoveto
          -77 -61 -47 -71 -73 -36 37 53 64 55 31 104 vhcurveto
          82 hlineto
          endchar
        </CharString>
        <CharString name="agrave">
          -86 282 562 88 callsubr
          128 -321 -98 callgsubr
        </CharString>
        <CharString name="amacron">
          -86 376 659 164 callgsubr
          -21 -373 -98 callgsubr
        </CharString>
        <CharString name="ampersand">
          121 309 52 rmoveto
          -101 -75 46 76 64 56 34 83 35 hvcurveto
          31 -30 84 -76 96 -88 rrcurveto
          -40 -43 -60 -21 -71 hhcurveto
          3 579 rmoveto
          81 37 -53 -55 -65 -48 -41 -96 -43 hvcurveto
          -74 77 -13 33 43 vvcurveto
          67 49 37 64 vhcurveto
          380 -631 rmoveto
          -128 118 25 41 15 48 6 52 rlinecurve
          -61 hlineto
          -4 -38 -10 -34 -16 -28 -86 79 -71 65 -33 30 rrcurveto
          124 54 41 62 73 vvcurveto
          91 -72 78 -108 -112 -68 -69 -94 -58 25 -47 71 -75 vhcurveto
          -100 -41 -61 -51 -82 vvcurveto
          -108 100 -74 143 95 71 30 50 49 vhcurveto
          77 -72 rlineto
          endchar
        </CharString>
        <CharString name="aogonek">
          -86 355 239 rmoveto
          -79 vlineto
          -55 -55 -51 -77 -73 -36 37 53 64 55 31 104 vhcurveto
          143 81 rmoveto
          122 -52 73 -134 -50 -58 -15 -22 -35 vhcurveto
          132 callgsubr
          60 53 28 40 33 hvcurveto
          -47 vlineto
          -58 -29 -48 -53 -63 -39 callgsubr
          62 28 hvcurveto
          endchar
        </CharString>
        <CharString name="apostrophemod">
          -414 8 481 79 callgsubr
          endchar
        </CharString>
        <CharString name="approxequal">
          53 519 288 33 callgsubr
          -47 231 33 callgsubr
          endchar
        </CharString>
        <CharString name="aring">
          -86 253 704 27 callgsubr
          102 -311 -98 callgsubr
        </CharString>
        <CharString name="asciicircum">
          -119 405 332 rmoveto
          -135 262 rlineto
          -82 hlineto
          -140 -262 rlineto
          64 hlineto
          116 226 113 -226 rlineto
          endchar
        </CharString>
        <CharString name="asciitilde">
          13 499 312 33 callgsubr
          endchar
        </CharString>
        <CharString name="asterisk">
          -191 226 504 rmoveto
          9 12 1 4 12 hvcurveto
          92 31 -16 47 -92 -29 -16 -5 -12 -7 -8 -9 rlinecurve
          4 11 3 13 17 vvcurveto
          96 -50 -96 vlineto
          -18 3 -14 6 -10 vhcurveto
          -9 7 -11 7 -17 6 -92 30 rcurveline
          -15 -48 91 -30 rlineto
          -4 12 10 -1 9 hhcurveto
          5 4 0 1 4 hvcurveto
          -11 -6 -10 -8 -11 -15 -57 -78 rcurveline
          41 -29 57 77 11 15 5 13 1 12 rlinecurve
          2 -11 5 -13 11 -15 57 -78 rcurveline
          40 30 -56 78 -10 14 -10 9 -11 5 rlinecurve
          endchar
        </CharString>
        <CharString name="at">
          314 416 77 rmoveto
          -60 -39 47 71 82 49 75 77 74 29 -43 -67 10 hvcurveto
          -2 -21 -2 -17 -17 vvcurveto
          -71 -25 -57 -39 -54 hhcurveto
          158 -135 rmoveto
          -33 -56 -57 -9 -59 hhcurveto
          -139 -136 93 203 208 174 140 181 166 131 -102 -185 -106 -49 -74 -60 -56 -15 42 58 17 1 19 2 19 hvcurveto
          18 169 rlineto
          -53 hlineto
          -1 -20 -1 -19 -1 -17 rrcurveto
          39 -24 -37 23 -57 hhcurveto
          -111 -79 -95 -113 -99 57 -77 98 64 49 33 50 33 hvcurveto
          -39 11 27 -41 71 hhcurveto
          76 94 69 165 209 -159 128 -193 -230 -189 -166 -236 -203 127 -147 208 51 70 6 26 49 hvcurveto
          endchar
        </CharString>
        <CharString name="atilde">
          -86 368 687 -58 callgsubr
          -55 -418 -98 callgsubr
        </CharString>
        <CharString name="b">
          -13 300 50 rmoveto
          -73 -86 44 162 158 95 43 58 86 70 -69 -141 -117 -64 -80 -86 hvcurveto
          -159 657 rmoveto
          -61 -707 61 74 hlineto
          -48 31 50 -34 76 hhcurveto
          142 74 121 135 157 -90 110 -128 -69 -52 -33 -51 -34 hvcurveto
          endchar
        </CharString>
        <CharString name="backslash">
          -186 32 707 rmoveto
          -62 hlineto
          366 -810 rlineto
          62 hlineto
          endchar
        </CharString>
        <CharString name="bar">
          -358 80 -194 rmoveto
          54 889 -54 hlineto
          endchar
        </CharString>
        <CharString name="braceleft">
          -250 112 264 rmoveto
          86 14 37 58 68 62 -23 46 61 vvcurveto
          42 19 37 47 10 13 -3 -6 11 vhcurveto
          62 vlineto
          5 -14 -14 2 -14 hhcurveto
          -64 -58 -51 -90 hvcurveto
          -55 23 -47 -49 vvcurveto
          -61 -28 -51 -61 -11 vhcurveto
          -2 -11 -12 0 -9 hhcurveto
          -61 vlineto
          9 15 0 -2 8 hvcurveto
          65 -16 24 -48 -61 -49 -23 -47 -55 vvcurveto
          -90 58 -51 64 14 14 2 5 14 vhcurveto
          62 vlineto
          -6 -11 -13 -3 -10 hhcurveto
          -47 -19 37 42 hvcurveto
          61 23 46 62 vvcurveto
          68 -37 59 -86 14 vhcurveto
          endchar
        </CharString>
        <CharString name="braceright">
          -250 210 264 rmoveto
          -86 -14 -37 -59 -68 -62 23 -46 -61 vvcurveto
          -42 -19 -37 -47 -10 -13 3 6 -11 vhcurveto
          -62 vlineto
          -5 14 14 -2 14 hhcurveto
          64 58 51 90 hvcurveto
          55 -23 47 49 vvcurveto
          61 24 48 65 16 vhcurveto
          2 8 15 0 9 hhcurveto
          61 vlineto
          -9 -12 0 2 -11 hvcurveto
          -61 11 -28 51 61 49 23 47 55 vvcurveto
          90 -58 51 -64 -14 -14 -2 -5 -14 vhcurveto
          -62 vlineto
          6 11 13 3 10 hhcurveto
          47 19 -37 -42 hvcurveto
          -61 -23 -46 -62 vvcurveto
          -68 37 -58 86 -14 vhcurveto
          endchar
        </CharString>
        <CharString name="bracketleft">
          -276 296 652 rmoveto
          55 -216 -886 216 56 -154 775 vlineto
          endchar
        </CharString>
        <CharString name="bracketright">
          -276 216 707 rmoveto
          -216 -55 154 -775 -154 -56 216 hlineto
          endchar
        </CharString>
        <CharString name="breve">
          -172 45 798 rmoveto
          -83 40 -70 115 115 40 70 83 vhcurveto
          -52 hlineto
          -55 -24 -50 -79 -79 -24 50 55 vhcurveto
          endchar
        </CharString>
        <CharString name="brokenbar">
          -358 134 366 rmoveto
          329 -54 -329 vlineto
          54 -560 rmoveto
          329 -54 -329 vlineto
          endchar
        </CharString>
        <CharString name="bullet">
          -117 95 356 rmoveto
          -75 56 -58 77 74 58 58 75 75 -58 58 -75 -76 -56 -58 -75 vhcurveto
          endchar
        </CharString>
        <CharString name="c">
          -100 109 251 rmoveto
          140 callsubr
          vhcurveto
          62 vlineto
          -10 callgsubr
          hvcurveto
          endchar
        </CharString>
        <CharString name="cacute">
          -100 265 561 -12 callgsubr
          -258 -460 rmoveto
          140 callsubr
          vhcurveto
          62 vlineto
          -10 callgsubr
          hvcurveto
          endchar
        </CharString>
        <CharString name="caron">
          -172 231 648 -70 callgsubr
          endchar
        </CharString>
        <CharString name="ccaron">
          -100 417 489 rmoveto
          -10 callgsubr
          140 callsubr
          hvcurveto
          -110 135 -70 callgsubr
          endchar
        </CharString>
        <CharString name="ccedilla">
          -100 109 251 rmoveto
          140 callsubr
          vhcurveto
          62 vlineto
          -10 callgsubr
          hvcurveto
          222 -372 14 callgsubr
        </CharString>
        <CharString name="cedilla">
          -172 271 -121 14 callgsubr
        </CharString>
        <CharString name="cent">
          -127 405 492 rmoveto
          -28 12 -26 6 -24 1 rrcurveto
          103 -55 -104 vlineto
          -144 -18 -78 -119 -121 vvcurveto
          -125 76 -115 146 -18 vhcurveto
          -105 55 104 vlineto
          25 1 26 6 27 11 rrcurveto
          62 vlineto
          -14 -25 -34 -8 -28 hhcurveto
          -138 -66 94 106 107 74 95 129 28 32 -8 -15 28 hvcurveto
          endchar
        </CharString>
        <CharString name="circumflex">
          -172 168 798 12 callgsubr
          endchar
        </CharString>
        <CharString name="colon">
          -350 60 369 rmoveto
          47 callgsubr
          -320 vmoveto
          47 callgsubr
          endchar
        </CharString>
        <CharString name="comma">
          -365 -8 -122 196 callsubr
        </CharString>
        <CharString name="copyright">
          208 45 336 rmoveto
          -188 157 -157 188 188 157 157 188 188 -157 158 -188 -188 -157 -158 -188 vhcurveto
          59 hmoveto
          157 130 131 157 157 130 -131 -157 -157 -130 -130 -157 -157 -130 130 157 vhcurveto
          178 -3 rmoveto
          82 54 60 84 21 34 -8 -15 22 vhcurveto
          57 vlineto
          15 -26 -34 5 -21 hhcurveto
          -125 -67 -98 -97 -100 66 -94 126 27 36 9 13 18 hvcurveto
          57 vlineto
          -14 -16 -32 -11 -29 hhcurveto
          -85 -53 62 77 hvcurveto
          endchar
        </CharString>
        <CharString name="currency">
          -36 54 309 rmoveto
          -51 14 -44 26 -35 vhcurveto
          -58 -58 41 -41 59 59 rlineto
          -25 34 44 -14 50 hhcurveto
          50 46 15 27 36 hvcurveto
          63 -62 41 41 -63 62 rlineto
          28 36 17 46 51 vvcurveto
          50 -15 44 -25 35 vhcurveto
          58 58 -41 41 -58 -58 rlineto
          25 -35 -44 15 -50 hhcurveto
          -51 -46 -16 -28 -37 hvcurveto
          -61 62 -41 -41 61 -62 rlineto
          -27 -36 -16 -46 -50 vvcurveto
          54 4 rmoveto
          93 67 68 93 93 67 -69 -93 -93 -67 -67 -93 -93 -67 68 93 vhcurveto
          endchar
        </CharString>
        <CharString name="d">
          -17 76 callsubr
          159 657 rmoveto
          -276 vlineto
          64 callgsubr
          707 vlineto
          endchar
        </CharString>
        <CharString name="dagger">
          -58 469 498 rmoveto
          -188 176 -57 -176 204 callsubr
          -442 57 442 188 hlineto
          endchar
        </CharString>
        <CharString name="daggerdbl">
          -58 469 442 rmoveto
          56 -188 176 -57 -176 204 callsubr
          -197 204 callsubr
          -189 57 189 188 56 -188 197 vlineto
          endchar
        </CharString>
        <CharString name="danda">
          -265 145 hmoveto
          62 634 -62 hlineto
          endchar
        </CharString>
        <CharString name="dcaron">
          65 76 callsubr
          159 381 rmoveto
          64 callgsubr
          707 -61 vlineto
          209 hmoveto
          -88 -187 rlineto
          54 hlineto
          110 187 rlineto
          endchar
        </CharString>
        <CharString name="dcroat">
          -17 76 callsubr
          295 591 rmoveto
          -75 66 -61 -66 -205 -48 205 -162 hlineto
          64 callgsubr
          593 75 vlineto
          endchar
        </CharString>
        <CharString name="degree">
          -240 30 539 rmoveto
          -79 55 -52 79 79 59 56 79 79 -55 52 -79 -79 -59 -56 -79 vhcurveto
          53 2 rmoveto
          48 33 38 48 48 37 -38 -48 -48 -33 -38 -48 -48 -37 38 48 vhcurveto
          endchar
        </CharString>
        <CharString name="dieresis">
          -172 65 726 -52 callsubr
          endchar
        </CharString>
        <CharString name="divide">
          -28 226 519 165 callgsubr
          -166 -207 rmoveto
          197 callsubr
          166 -207 165 callgsubr
          endchar
        </CharString>
        <CharString name="dollar">
          -70 408 650 rmoveto
          -29 15 -37 9 -36 4 rrcurveto
          103 -55 -101 vlineto
          -103 -6 -90 -61 -113 vvcurveto
          -106 82 -42 81 -35 vhcurveto
          82 -35 81 -29 -80 vvcurveto
          -79 -57 -41 -93 -67 -68 23 30 -39 vhcurveto
          -69 vlineto
          39 -23 50 -15 51 -4 rrcurveto
          -102 55 100 vlineto
          108 6 84 59 116 vvcurveto
          107 -81 42 -81 35 vhcurveto
          -82 36 -81 29 81 vvcurveto
          69 57 46 90 50 58 -17 -21 31 vhcurveto
          endchar
        </CharString>
        <CharString name="dotaccent">
          -172 157 727 rmoveto
          -24 19 -19 24 25 18 19 24 25 -18 18 -25 -24 -19 -18 -25 vhcurveto
          endchar
        </CharString>
        <CharString name="dotlessi">
          109 callsubr
          endchar
        </CharString>
        <CharString name="dottedcircle">
          88 139 517 rmoveto
          -26 18 -19 26 26 18 19 26 25 -18 19 -26 -26 -18 -19 -25 vhcurveto
          -82 -110 rmoveto
          -25 20 -19 26 24 20 19 25 25 -20 19 -24 -26 -20 -19 -25 vhcurveto
          -13 -126 rmoveto
          -25 19 -18 25 26 18 18 207 callgsubr
          52 -116 rmoveto
          -26 18 -18 26 25 19 18 26 25 -19 19 -25 -26 -18 -19 -25 vhcurveto
          101 -75 rmoveto
          -26 19 -20 26 25 19 20 26 24 -19 20 -25 -26 -19 -20 -24 vhcurveto
          127 -16 rmoveto
          -26 18 -18 26 26 19 18 26 26 -19 18 -26 -26 -18 -18 -26 vhcurveto
          121 53 rmoveto
          -26 19 -18 25 25 20 18 26 25 -20 19 -25 -25 -19 -19 -25 vhcurveto
          73 98 rmoveto
          -25 19 -19 26 24 19 19 25 26 -19 19 -24 -26 -19 -19 -26 vhcurveto
          10 134 rmoveto
          -26 18 -18 26 25 19 18 26 26 -19 18 -25 -26 -18 -18 -26 vhcurveto
          -50 118 rmoveto
          -25 19 -19 25 26 18 19 207 callgsubr
          -95 68 rmoveto
          -24 19 -20 26 25 18 20 24 26 -18 19 -25 -26 -19 -19 -26 vhcurveto
          -126 15 rmoveto
          -26 18 -18 26 26 18 18 26 26 -18 18 -26 -26 -18 -18 -26 vhcurveto
          endchar
        </CharString>
        <CharString name="doubledanda">
          -57 145 hmoveto
          62 634 -62 hlineto
          208 -634 rmoveto
          62 634 -62 hlineto
          endchar
        </CharString>
        <CharString name="dvA">
          75 392 186 callsubr
          94 -256 -170 vlineto
          -89 callgsubr
          120 55 hlineto
          endchar
        </CharString>
        <CharString name="dvAA">
          337 929 4 callgsubr
          -537 -55 94 -256 -170 hlineto
          -89 callgsubr
          200 -579 -17 callsubr
        </CharString>
        <CharString name="dvAI">
          -23 569 4 callgsubr
          -97 hlineto
          -101 154 rlineto
          60 -39 -42 29 -20 callgsubr
          86 -132 rlineto
          -424 -32 callsubr
        </CharString>
        <CharString name="dvAU">
          337 819 4 callgsubr
          -101 154 -59 callgsubr
          -333 -55 94 -256 -170 hlineto
          -89 callgsubr
          200 -579 -64 callsubr
          55 hlineto
          endchar
        </CharString>
        <CharString name="dvAbbreviationsign">
          -156 56 298 rmoveto
          -3 callgsubr
          endchar
        </CharString>
        <CharString name="dvAcandra">
          75 621 82 callsubr
          -291 -310 rmoveto
          94 -256 -170 hlineto
          -89 callgsubr
          120 55 -275 hlineto
          endchar
        </CharString>
        <CharString name="dvAnusvara">
          -180 774 rmoveto
          -56 callgsubr
          endchar
        </CharString>
        <CharString name="dvAnusvara.amI">
          -49 843 rmoveto
          -56 callgsubr
          endchar
        </CharString>
        <CharString name="dvAvagraha">
          -154 209 -3 rmoveto
          142 57 89 77 hvcurveto
          166 -341 99 99 vvcurveto
          36 26 17 32 vhcurveto
          258 54 -264 hlineto
          -72 -41 -41 -65 hvcurveto
          -157 341 -67 -147 vvcurveto
          -49 -40 -57 -96 -62 -77 20 44 -67 vhcurveto
          -67 vlineto
          -23 38 76 -28 90 hhcurveto
          endchar
        </CharString>
        <CharString name="dvB">
          191 callgsubr
          -17 -418 -50 callsubr
          312 -143 rmoveto
          -14 -19 -16 -20 -19 -18 174 callsubr
          rcurveline
          -94 callgsubr
          108 69 56 67 53 hvcurveto
          endchar
        </CharString>
        <CharString name="dvBA">
          39 374 164 -51 callsubr
          -651 -55 470 -269 hlineto
          46 callgsubr
        </CharString>
        <CharString name="dvBH">
          -255 413 339 rmoveto
          -238 -52 callgsubr
          238 hlineto
          endchar
        </CharString>
        <CharString name="dvBHA">
          -27 383 339 rmoveto
          -208 -52 callgsubr
          208 75 callsubr
          -182 hlineto
          endchar
        </CharString>
        <CharString name="dvBH_LA">
          465 290 186 callsubr
          585 -126 vlineto
          43 callsubr
          -77 -57 -51 -76 -22 hvcurveto
          -206 -52 callgsubr
          196 hlineto
          -1 -8 0 -7 -8 vvcurveto
          -146 90 -116 140 -10 callsubr
          vhcurveto
          -91 callgsubr
          55 vlineto
          endchar
        </CharString>
        <CharString name="dvBH_NA">
          -18 392 4 callgsubr
          -253 -208 10 callgsubr
          208 -100 hlineto
          -232 -152 126 callgsubr
          171 110 rlineto
          -161 -4 callsubr
        </CharString>
        <CharString name="dvBH_R">
          -209 184 381 rmoveto
          10 callgsubr
          216 hlineto
          -337 -367 rlineto
          88 hlineto
          329 367 rlineto
          54 vlineto
          endchar
        </CharString>
        <CharString name="dvBH_RA">
          -18 392 4 callgsubr
          -253 -208 10 callgsubr
          208 -74 hlineto
          -329 -293 rlineto
          88 hlineto
          241 213 rlineto
          -173 -64 callsubr
          55 vlineto
          endchar
        </CharString>
        <CharString name="dvBH_R_YA">
          391 802 31 callgsubr
          -83 -65 59 79 -18 vhcurveto
          2 2 rlineto
          80 25 71 45 129 callsubr
          -482 55 rmoveto
          -55 213 202 callgsubr
          -45 -33 -38 -65 -24 vhcurveto
          -282 145 hlineto
          13 callgsubr
          216 hlineto
          -337 -367 rlineto
          88 hlineto
          275 307 rlineto
          -90 41 79 -47 90 hhcurveto
          135 callgsubr
          vlineto
          endchar
        </CharString>
        <CharString name="dvBH_VA">
          304 896 634 80 callsubr
          -52 callgsubr
          185 -6 hlineto
          -73 callsubr
        </CharString>
        <CharString name="dvBH_YA">
          351 596 118 callgsubr
          -663 -55 213 202 callgsubr
          -142 -214 -7 -95 vhcurveto
          -40 -52 callgsubr
          43 hlineto
          44 55 2 10 55 hvcurveto
          -112 34 83 -55 107 hhcurveto
          3 52 rmoveto
          -84 -65 50 79 -17 hvcurveto
          83 24 70 54 96 170 callsubr
          endchar
        </CharString>
        <CharString name="dvB_BA">
          419 754 164 rmoveto
          -18 -28 -35 -11 -43 hhcurveto
          -87 -62 63 88 42 12 35 22 26 hvcurveto
          -155 -228 -50 callsubr
          858 245 rmoveto
          -1031 -55 850 22 callgsubr
          -22 3 -21 6 -19 hvcurveto
          -10 -12 -11 -12 -12 -11 174 callsubr
          rcurveline
          -94 callgsubr
          89 63 38 52 49 hvcurveto
          -57 37 65 -33 71 hhcurveto
          88 68 42 48 29 hvcurveto
          -173 -82 callsubr
        </CharString>
        <CharString name="dvB_BHA">
          343 378 161 -50 callsubr
          600 245 rmoveto
          -295 -208 186 169 callsubr
          -172 vlineto
          -24 -5 -18 -21 -26 vvcurveto
          -16 5 -20 7 -18 vhcurveto
          -11 -15 -12 -14 -14 -13 174 callsubr
          rcurveline
          -94 callgsubr
          92 63 40 54 50 hvcurveto
          14 -32 130 callsubr
          208 75 callsubr
          hlineto
          endchar
        </CharString>
        <CharString name="dvB_BH_RA">
          343 378 161 -50 callsubr
          600 245 rmoveto
          -253 -208 144 169 callsubr
          -130 vlineto
          -24 -5 -18 -21 -26 vvcurveto
          -24 12 -31 11 -27 vhcurveto
          -13 -19 -16 -20 -19 -17 174 callsubr
          rcurveline
          -94 callgsubr
          100 66 48 60 51 hvcurveto
          2 -4 rlineto
          122 callgsubr
        </CharString>
        <CharString name="dvB_DA">
          350 378 161 -50 callsubr
          667 26 62 callgsubr
          -962 -55 779 16 callgsubr
          -21 3 -19 5 -19 hvcurveto
          -7 -8 -7 -8 -8 -7 174 callsubr
          rcurveline
          -94 callgsubr
          83 60 33 45 47 hvcurveto
          -53 34 61 -35 79 hhcurveto
          68 callgsubr
        </CharString>
        <CharString name="dvB_DHA">
          440 378 161 -50 callsubr
          879 245 2 callsubr
          -686 -55 538 vlineto
          -40 -21 -26 -37 -47 vvcurveto
          -77 50 -38 67 -9 vhcurveto
          -64 -9 -52 -42 -3 -73 -10 -13 -11 -12 -13 -12 174 callsubr
          rcurveline
          -94 callgsubr
          83 61 33 46 47 hvcurveto
          -57 26 66 -42 101 hhcurveto
          100 68 51 49 28 hvcurveto
          -163 -82 callsubr
        </CharString>
        <CharString name="dvB_DH_VA">
          804 378 161 -50 callsubr
          1243 245 rmoveto
          -546 -55 365 -260 hlineto
          112 callsubr
          -22 3 -20 6 -18 hvcurveto
          -57 -48 -72 -46 -94 -48 callgsubr
          -686 -55 538 vlineto
          -40 -21 -26 -37 -47 vvcurveto
          -77 50 -38 67 -9 vhcurveto
          -64 -9 -52 -42 -3 -73 -10 -13 -11 -12 -13 -12 174 callsubr
          rcurveline
          -94 callgsubr
          83 61 33 46 47 hvcurveto
          -57 26 66 -42 101 hhcurveto
          107 80 49 54 54 hvcurveto
          -48 35 58 -26 60 hhcurveto
          -62 callsubr
        </CharString>
        <CharString name="dvB_JA">
          456 377 161 rmoveto
          -19 -33 -36 -7 -34 hhcurveto
          -89 -66 63 88 42 12 35 22 26 hvcurveto
          905 245 rmoveto
          -1078 -55 897 -141 -388 -41 callsubr
          213 -384 -16 callgsubr
        </CharString>
        <CharString name="dvB_JHA">
          531 630 311 rmoveto
          0 vlineto
          -11 1 rlineto
          24 callgsubr
          198 -268 hlineto
          -561 -162 rmoveto
          -12 -27 -30 -7 -32 hhcurveto
          -101 -71 64 92 41 12 36 22 26 hvcurveto
          970 245 rmoveto
          -1143 -55 701 78 callsubr
          -65 45 57 -23 vhcurveto
          -55 0 hlineto
          -228 244 rlineto
          13 -84 callgsubr
          90 -82 132 -1 hvcurveto
          51 46 13 24 41 hvcurveto
          -163 60 123 vlineto
          -37 35 57 180 callgsubr
          31 -25 24 hvcurveto
          189 -258 -17 callsubr
        </CharString>
        <CharString name="dvB_J_YA">
          851 1262 31 callgsubr
          -89 -43 62 77 -35 vhcurveto
          81 25 73 45 129 callgsubr
          -885 -418 rmoveto
          -19 -33 -36 -7 -34 hhcurveto
          -89 -66 63 88 42 12 35 22 26 hvcurveto
          1290 245 rmoveto
          -1463 -55 1013 hlineto
          14 -18 17 -30 -37 vvcurveto
          -64 -52 -39 -70 -18 vhcurveto
          35 -30 -49 30 -94 hhcurveto
          -240 -41 callsubr
          67 hlineto
          207 -100 -254 258 hhcurveto
          76 55 25 46 35 116 callgsubr
        </CharString>
        <CharString name="dvB_JxA">
          456 539 -40 rmoveto
          -103 callsubr
          -162 201 rmoveto
          -19 -33 -36 -7 -34 hhcurveto
          -89 -66 63 88 42 12 35 22 26 hvcurveto
          905 245 rmoveto
          -1078 -55 897 -141 -388 -41 callsubr
          213 -384 -16 callgsubr
        </CharString>
        <CharString name="dvB_LA">
          535 378 161 -50 callsubr
          974 245 rmoveto
          -1147 -55 965 154 callgsubr
          -101 -66 -87 -117 -15 1 -15 2 -15 hvcurveto
          -8 -9 -9 -10 -10 -9 174 callsubr
          rcurveline
          -94 callgsubr
          80 59 31 44 47 hvcurveto
          -94 32 77 -64 104 hhcurveto
          -25 callsubr
          -93 callsubr
        </CharString>
        <CharString name="dvB_L_YA">
          921 1332 -103 callgsubr
          -954 -418 -50 callsubr
          1360 245 rmoveto
          -1533 -55 1083 hlineto
          -66 callgsubr
          -48 -38 -41 -74 -23 vhcurveto
          48 -21 -41 35 -60 hhcurveto
          -65 -46 -33 -55 -13 hvcurveto
          62 -14 -45 33 -70 hhcurveto
          -101 -66 -87 -117 -15 1 -15 2 -15 hvcurveto
          -8 -9 -9 -10 -10 -9 174 callsubr
          rcurveline
          -94 callgsubr
          80 59 31 44 47 hvcurveto
          -94 32 77 -64 104 hhcurveto
          -25 callsubr
          51 vlineto
          -2 -8 -10 0 -5 hhcurveto
          -122 -55 100 109 101 51 52 60 59 32 -65 callsubr
          87 41 36 52 45 22 -35 -45 12 vhcurveto
          2 -8 rlineto
          -2 vlineto
          0 vlineto
          -123 32 90 -64 105 -101 callsubr
          vlineto
          endchar
        </CharString>
        <CharString name="dvB_NA">
          49 384 164 -51 callsubr
          -661 -55 480 22 callgsubr
          -121 91 -78 107 -4 hvcurveto
          -66 -38 rlineto
          -40 -23 -16 -25 -27 vvcurveto
          -44 40 -38 29 -18 vhcurveto
          42 27 rlineto
          -18 16 -22 25 26 vvcurveto
          14 6 13 13 9 vhcurveto
          177 124 rlineto
          0 vlineto
          20 15 16 17 11 17 rrcurveto
          -173 -82 callsubr
        </CharString>
        <CharString name="dvB_R">
          -199 393 4 callgsubr
          -413 -55 413 hlineto
          -10 -413 rmoveto
          -19 -29 -34 -12 -42 hhcurveto
          -87 -62 63 88 42 12 35 22 26 hvcurveto
          297 -131 rmoveto
          -11 -22 -14 -21 -17 -18 -216 223 rcurveline
          -83 callgsubr
          96 -81 116 2 hvcurveto
          -167 -148 rlineto
          85 hlineto
          290 256 rlineto
          endchar
        </CharString>
        <CharString name="dvB_RA">
          49 384 164 -51 callsubr
          -661 -55 480 22 callgsubr
          -124 96 -81 116 2 hvcurveto
          -167 -148 rlineto
          85 hlineto
          260 230 rlineto
          -165 -82 callsubr
        </CharString>
        <CharString name="dvB_SA">
          441 644 328 -39 callsubr
          -498 -170 rmoveto
          -14 -25 -32 -9 -40 hhcurveto
          -89 -75 57 94 42 12 35 22 26 hvcurveto
          906 245 rmoveto
          -1079 -55 630 83 callgsubr
          1 -1 rlineto
          -1 hlineto
          -36 -10 -33 -20 -26 vhcurveto
          174 callsubr
          rlineto
          -83 callgsubr
          93 -79 130 104 76 53 81 27 hvcurveto
          141 -217 -92 callgsubr
          173 -271 -16 callgsubr
        </CharString>
        <CharString name="dvB_SHA">
          502 415 4 callgsubr
          -435 -55 435 hlineto
          -36 -420 rmoveto
          -16 -28 -35 -8 -37 hhcurveto
          -94 -66 59 92 42 12 35 22 26 hvcurveto
          417 54 5 callgsubr
          -95 -33 hlineto
          -38 -13 -31 -21 -24 vhcurveto
          174 callsubr
          9 callsubr
          95 91 46 84 32 hvcurveto
          182 -213 -48 callsubr
        </CharString>
        <CharString name="dvB_TA">
          380 378 161 -50 callsubr
          819 245 rmoveto
          -992 -55 811 -133 -112 hlineto
          184 callgsubr
          hvcurveto
          -11 vlineto
          -7 -8 -8 -9 -9 -8 174 callsubr
          rcurveline
          -94 callgsubr
          76 57 28 40 46 hvcurveto
          -90 25 72 -61 107 hhcurveto
          11 10 1 1 6 hvcurveto
          -58 callsubr
          hlineto
          endchar
        </CharString>
        <CharString name="dvB_VA">
          374 378 161 -50 callsubr
          813 245 rmoveto
          -986 -55 805 -260 hlineto
          112 callsubr
          -24 4 -21 6 -20 hvcurveto
          -7 -8 -8 -9 -9 -8 174 callsubr
          rcurveline
          -94 callgsubr
          85 61 35 48 48 hvcurveto
          -48 36 58 -26 60 hhcurveto
          -62 callsubr
        </CharString>
        <CharString name="dvB_YA">
          391 802 -103 callgsubr
          -424 -418 -50 callsubr
          830 245 rmoveto
          -1003 -55 553 hlineto
          -71 callgsubr
          7 -56 18 -46 25 -36 -10 -13 -12 -12 -12 -12 174 callsubr
          rcurveline
          -94 callgsubr
          97 66 45 58 51 hvcurveto
          -37 41 53 -19 57 -101 callsubr
          vlineto
          endchar
        </CharString>
        <CharString name="dvC">
          191 callgsubr
          74 -319 rmoveto
          -49 -26 -71 -58 -84 -30 callgsubr
          103 78 57 59 33 vhcurveto
          endchar
        </CharString>
        <CharString name="dvCA">
          55 647 4 callgsubr
          -667 -55 485 -251 hlineto
          60 callgsubr
          -337 -55 147 vlineto
          -54 -26 -27 -47 -57 vvcurveto
          -107 85 -56 101 vhcurveto
          56 callgsubr
        </CharString>
        <CharString name="dvCH">
          42 634 186 callgsubr
          -654 -55 158 vlineto
          121 callsubr
          96 -53 74 -121 147 callgsubr
          vhcurveto
          -85 callsubr
          endchar
        </CharString>
        <CharString name="dvCHA">
          52 431 473 rmoveto
          2 -13 -13 1 -15 hhcurveto
          147 callgsubr
          hvcurveto
          -85 callsubr
          210 hlineto
          213 hmoveto
          55 -664 -55 158 vlineto
          121 callsubr
          65 -24 55 -53 28 vhcurveto
          125 vlineto
          endchar
        </CharString>
        <CharString name="dvCH_R">
          61 653 186 callgsubr
          -673 -55 167 vlineto
          -2 callsubr
          96 -53 74 -121 147 callgsubr
          vhcurveto
          -85 callsubr
          endchar
        </CharString>
        <CharString name="dvCH_RA">
          61 440 473 rmoveto
          2 -13 -13 1 -15 hhcurveto
          147 callgsubr
          hvcurveto
          -85 callsubr
          210 hlineto
          213 hmoveto
          55 -673 -55 167 vlineto
          -2 callsubr
          65 -24 55 -53 28 vhcurveto
          125 vlineto
          endchar
        </CharString>
        <CharString name="dvCH_R_YA">
          611 1022 274 rmoveto
          5 callsubr
          -47 -81 -13 -27 -51 vhcurveto
          21 -28 -38 12 -49 hhcurveto
          147 callgsubr
          hvcurveto
          -85 callsubr
          792 205 callsubr
          -1224 -55 167 hlineto
          -2 callsubr
          35 -7 32 -15 27 vhcurveto
          19 46 53 11 46 hhcurveto
          -36 callgsubr
          vlineto
          endchar
        </CharString>
        <CharString name="dvCH_YA">
          591 1002 274 rmoveto
          5 callsubr
          -45 -76 -12 -25 -51 vhcurveto
          19 -28 -36 11 -47 hhcurveto
          147 callgsubr
          hvcurveto
          -85 callsubr
          781 205 callsubr
          -1204 -55 158 hlineto
          121 callsubr
          37 -8 33 -16 28 vhcurveto
          16 43 50 10 43 hhcurveto
          -36 callgsubr
          vlineto
          endchar
        </CharString>
        <CharString name="dvC_CA">
          415 1007 4 callgsubr
          -1027 -55 845 -251 hlineto
          60 callgsubr
          -307 -55 117 vlineto
          97 callgsubr
          -8 0 -7 1 -8 vhcurveto
          -43 -32 -63 -45 -74 -30 callgsubr
          84 67 38 45 40 vhcurveto
          -55 30 64 -28 72 hhcurveto
          56 callgsubr
        </CharString>
        <CharString name="dvC_CHA">
          447 826 473 rmoveto
          2 -13 -13 1 -15 hhcurveto
          147 callgsubr
          hvcurveto
          -85 callsubr
          210 hlineto
          213 hmoveto
          55 -1059 -55 553 vlineto
          24 callsubr
          -49 -7 -40 -34 -12 -53 rrcurveto
          -49 -27 -70 -57 -84 -30 callgsubr
          81 65 35 44 41 vhcurveto
          -76 24 83 -45 111 hhcurveto
          155 114 106 141 65 -24 55 -53 28 hvcurveto
          125 vlineto
          endchar
        </CharString>
        <CharString name="dvC_CH_VA">
          456 855 473 rmoveto
          2 -13 -13 1 -15 hhcurveto
          147 callgsubr
          hvcurveto
          -53 vlineto
          4 9 18 3 15 hhcurveto
          85 36 -47 -67 -106 -98 -73 -121 -107 -84 41 75 52 45 37 73 hvcurveto
          38 53 -28 hlineto
          -54 -54 24 64 44 22 37 46 21 hvcurveto
          251 hlineto
          -6 -560 rmoveto
          -87 -52 -90 -111 -74 -56 41 78 75 57 42 86 vhcurveto
          0 8 vlineto
          50 49 12 22 43 hvcurveto
          199 467 rmoveto
          55 -1068 -55 542 vlineto
          -33 -26 -15 -36 -39 vvcurveto
          -74 55 -31 30 -9 vhcurveto
          -52 -7 -53 -44 -66 vvcurveto
          -10 vlineto
          -42 -33 -62 -42 -71 -30 callgsubr
          81 65 35 44 41 vhcurveto
          20 -36 38 -29 49 -17 rrcurveto
          -52 -27 -33 -49 -61 vvcurveto
          -112 92 -59 97 86 54 42 46 26 vhcurveto
          -178 61 452 vlineto
          47 41 31 55 61 vvcurveto
          65 -24 53 -53 28 vhcurveto
          124 vlineto
          endchar
        </CharString>
        <CharString name="dvC_MA">
          357 767 -12 callsubr
          182 55 rmoveto
          -969 -55 502 -242 hlineto
          -24 -5 -18 -21 -26 vvcurveto
          -15 5 -18 6 -18 vhcurveto
          -42 -33 -61 -39 -69 -30 callgsubr
          82 66 36 44 40 vhcurveto
          16 -36 rlineto
          -55 callgsubr
        </CharString>
        <CharString name="dvC_NA">
          65 657 4 callgsubr
          -677 -55 495 -251 hlineto
          60 callgsubr
          -337 -55 147 vlineto
          -54 -26 -27 -47 -57 vvcurveto
          -98 71 -55 89 -9 vhcurveto
          -83 -46 rlineto
          -30 -17 -14 -21 -26 vvcurveto
          -46 45 -41 30 -22 vhcurveto
          43 30 rlineto
          -19 16 -27 35 28 vvcurveto
          14 7 9 13 8 vhcurveto
          171 104 33 17 25 24 15 26 rlinecurve
          105 callsubr
        </CharString>
        <CharString name="dvC_R">
          -156 436 4 callgsubr
          -456 -55 456 hlineto
          61 -286 rmoveto
          -68 -37 -77 -72 -95 hhcurveto
          108 callsubr
          hvcurveto
          28 callsubr
          -104 80 -56 99 -3 vhcurveto
          -176 -146 rlineto
          92 hlineto
          333 270 rlineto
          endchar
        </CharString>
        <CharString name="dvC_RA">
          60 652 4 callgsubr
          -672 -55 490 -269 hlineto
          -67 -61 -90 -121 -72 -53 38 73 56 34 74 175 vhcurveto
          28 callsubr
          -104 80 -56 99 -3 vhcurveto
          -176 -146 rlineto
          90 hlineto
          276 225 rlineto
          -180 -69 callgsubr
        </CharString>
        <CharString name="dvC_YA">
          421 832 -103 callgsubr
          86 callgsubr
          -1033 -55 583 hlineto
          -71 callgsubr
          6 -43 11 -38 17 -31 rrcurveto
          -47 -29 -68 -52 -79 -30 callgsubr
          98 75 51 56 36 vhcurveto
          -52 43 61 -26 68 -101 callsubr
          vlineto
          endchar
        </CharString>
        <CharString name="dvCandrabindu">
          69 callgsubr
        </CharString>
        <CharString name="dvD">
          -30 597 -241 65 callgsubr
          -539 875 rmoveto
          -55 399 15 callsubr
          167 164 122 55 hlineto
          endchar
        </CharString>
        <CharString name="dvDA">
          -30 174 callgsubr
          399 15 callsubr
          167 164 122 55 hlineto
          endchar
        </CharString>
        <CharString name="dvDA_mvR">
          -86 374 579 rmoveto
          132 55 -526 -55 333 -92 hlineto
          2 -21 -22 2 -22 hhcurveto
          -103 -61 -52 -70 -60 42 -35 55 -8 hvcurveto
          -63 -12 -38 -46 -60 vvcurveto
          -82 77 -47 106 61 64 18 23 38 vhcurveto
          60 vlineto
          -28 -40 -63 -21 -59 hhcurveto
          -67 -55 25 54 57 48 33 76 hvcurveto
          57 55 -57 hlineto
          -75 -45 25 48 45 38 25 69 1 hvcurveto
          28 61 -4 -11 32 hvcurveto
          endchar
        </CharString>
        <CharString name="dvDD">
          -55 230 -69 0 callgsubr
          97 498 98 callgsubr
          -557 -55 348 -95 -107 vlineto
          -88 -63 -43 -83 -78 55 -43 122 -6 hvcurveto
          -54 callsubr
        </CharString>
        <CharString name="dvDDA">
          -55 390 167 callsubr
          -557 -55 348 -95 -107 vlineto
          -88 -63 -43 -83 -78 55 -43 122 -6 hvcurveto
          -54 callsubr
        </CharString>
        <CharString name="dvDDH">
          -18 472 -207 65 callgsubr
          -128 422 -41 callgsubr
          endchar
        </CharString>
        <CharString name="dvDDHA">
          -18 266 215 -41 callgsubr
          endchar
        </CharString>
        <CharString name="dvDDH_DDHA">
          -31 422 579 rmoveto
          139 55 -581 -55 380 -85 hlineto
          2 -19 -20 1 -19 hhcurveto
          -136 -96 -77 -101 -82 53 -48 64 -25 hvcurveto
          -80 -31 -33 -66 -57 vvcurveto
          -111 108 -60 118 121 callgsubr
          -96 -67 46 75 69 55 57 118 5 hvcurveto
          92 1 90 43 73 81 callgsubr
        </CharString>
        <CharString name="dvDDH_R">
          -18 261 -181 0 callgsubr
          99 760 -1 callgsubr
        </CharString>
        <CharString name="dvDDH_RA">
          -18 423 579 -1 callgsubr
        </CharString>
        <CharString name="dvDDH_VA">
          -31 391 78 128 callsubr
          6 vlineto
          29 29 4 8 26 hvcurveto
          31 424 rmoveto
          139 55 -581 -55 380 -85 hlineto
          2 -19 -20 1 -19 hhcurveto
          -136 -96 -77 -101 -79 49 -48 61 -25 hvcurveto
          -60 -26 -39 -51 -65 136 callgsubr
          387 vlineto
          24 19 15 25 30 81 callgsubr
        </CharString>
        <CharString name="dvDDH_YA">
          502 587 430 rmoveto
          -36 callgsubr
          55 -1115 -55 381 -109 vlineto
          -183 -22 -118 -80 -135 vvcurveto
          -131 111 -78 130 77 callgsubr
          vhcurveto
          -56 vlineto
          13 21 31 11 37 hhcurveto
          47 30 -28 -38 -61 -57 -36 -75 -99 -77 59 100 134 157 44 166 12 hvcurveto
          4 47 48 1 45 hhcurveto
          -164 149 rmoveto
          490 -305 hlineto
          5 callsubr
          -42 -63 -1 -6 -56 vhcurveto
          endchar
        </CharString>
        <CharString name="dvDDHxA">
          -18 266 215 -41 callgsubr
          -10 -398 rmoveto
          -56 callgsubr
          endchar
        </CharString>
        <CharString name="dvDD_DDA">
          -27 410 454 rmoveto
          125 155 55 -585 -55 368 -70 -125 vlineto
          -94 -69 -29 -78 -53 45 -45 105 hvcurveto
          33 42 7 48 hhcurveto
          45 25 -20 -32 -46 -61 -22 -84 193 callgsubr
          17 -9 21 -7 22 -7 rrcurveto
          -33 -14 -18 -30 -31 vvcurveto
          -55 43 -44 101 vhcurveto
          35 42 8 49 hhcurveto
          46 23 -20 -28 -48 -59 -24 -74 -73 -83 22 30 -49 hvcurveto
          -63 vlineto
          -28 53 83 -13 67 hhcurveto
          129 67 52 76 54 -44 43 -74 hvcurveto
          -54 -41 -7 -33 hhcurveto
          -71 -18 20 27 36 35 20 58 hvcurveto
          -1 10 10 0 10 hhcurveto
          137 68 46 73 2 hvcurveto
          59 -40 45 -78 vhcurveto
          -47 -38 -5 -30 hhcurveto
          -88 -19 22 25 35 32 15 70 hvcurveto
          endchar
        </CharString>
        <CharString name="dvDD_DDHA">
          -23 424 454 rmoveto
          125 145 55 -589 -55 382 -70 -125 vlineto
          -92 -71 -30 -77 -51 43 -48 93 hvcurveto
          36 46 8 55 hhcurveto
          44 26 -20 -32 -46 -61 -22 -84 193 callgsubr
          25 -13 34 -10 35 -7 rrcurveto
          -63 -32 -33 -53 -60 vvcurveto
          -110 100 -61 117 121 callgsubr
          -98 -54 46 73 68 49 56 113 11 hvcurveto
          119 6 61 46 68 vvcurveto
          56 -39 48 -86 vhcurveto
          -49 -58 -7 -26 hhcurveto
          -66 -16 23 24 35 35 15 67 hvcurveto
          endchar
        </CharString>
        <CharString name="dvDD_R">
          -55 220 -206 0 callgsubr
          107 635 7 callgsubr
        </CharString>
        <CharString name="dvDD_RA">
          -55 390 429 7 callgsubr
        </CharString>
        <CharString name="dvDD_VA">
          -33 369 57 rmoveto
          -92 -35 -73 -101 -59 -48 38 67 67 44 55 90 vhcurveto
          0 12 vlineto
          32 34 3 9 31 hvcurveto
          65 323 rmoveto
          125 125 55 -579 -55 392 -70 -135 vlineto
          -94 -69 -39 -78 -53 43 -46 99 hvcurveto
          35 36 8 51 hhcurveto
          46 33 -19 -38 hvcurveto
          -53 -3 -58 -20 -84 hhcurveto
          193 callgsubr
          21 -11 28 -9 29 -7 rrcurveto
          -56 -24 -33 -49 -63 vvcurveto
          -95 74 -62 95 66 47 33 43 23 vhcurveto
          -132 61 374 vlineto
          29 20 20 29 42 vvcurveto
          61 -50 44 -79 vhcurveto
          -64 -39 -6 -33 hhcurveto
          -59 -16 23 28 34 33 21 69 hvcurveto
          endchar
        </CharString>
        <CharString name="dvDD_YA">
          465 876 175 callgsubr
          51 64 vvcurveto
          68 -47 48 -129 vhcurveto
          -149 95 482 hlineto
          86 callgsubr
          -1077 -55 352 -95 -107 hlineto
          190 callgsubr
          -82 61 -50 77 -2 hvcurveto
          88 7 rlineto
          54 33 -32 -50 -65 -53 -33 -77 -62 -75 24 28 -45 hvcurveto
          -63 vlineto
          -26 50 67 -15 189 callsubr
          73 62 88 1 hvcurveto
          76 -47 59 -94 vhcurveto
          -88 -6 rlineto
          -50 1 -36 29 52 vvcurveto
          52 48 17 45 vhcurveto
          317 hlineto
          67 44 -17 -41 -54 -53 -29 -90 -15 hvcurveto
          20 callsubr
          120 vlineto
          endchar
        </CharString>
        <CharString name="dvDDxA">
          -55 249 -90 rmoveto
          -103 callsubr
          141 519 98 callgsubr
          -557 -55 348 -95 -107 vlineto
          -88 -63 -43 -83 -78 55 -43 122 -6 hvcurveto
          -54 callsubr
        </CharString>
        <CharString name="dvDH">
          -145 512 249 rmoveto
          -69 -47 -79 -64 -111 -42 callgsubr
          134 91 77 66 51 vhcurveto
          endchar
        </CharString>
        <CharString name="dvDHA">
          60 652 634 2 callsubr
          -306 -55 158 -43 callgsubr
          100 68 51 49 28 vhcurveto
          -163 -82 callsubr
        </CharString>
        <CharString name="dvDH_MA">
          397 807 -12 callsubr
          -377 55 rmoveto
          -55 92 -242 vlineto
          -24 -5 -18 -21 -26 vvcurveto
          -18 7 -21 7 -21 vhcurveto
          -59 -48 -73 -50 -98 -42 callgsubr
          109 81 51 55 54 vhcurveto
          10 -24 130 callsubr
          223 75 callsubr
          hlineto
          endchar
        </CharString>
        <CharString name="dvDH_NA">
          69 661 119 callgsubr
          59 56 40 85 vhcurveto
          18 callsubr
          27 18 20 22 12 21 rlinecurve
          -183 -82 callsubr
        </CharString>
        <CharString name="dvDH_N_YA">
          441 852 71 callgsubr
          -44 12 -38 17 -31 rrcurveto
          -56 -49 -65 -59 -87 hhcurveto
          -93 -49 37 58 59 56 40 85 hvcurveto
          18 callsubr
          rlineto
          0 vlineto
          37 22 32 29 28 30 rrcurveto
          -48 43 59 -25 66 hhcurveto
          135 callgsubr
          vlineto
          endchar
        </CharString>
        <CharString name="dvDH_R">
          -133 521 285 rmoveto
          -79 -72 -74 -70 -95 hhcurveto
          -93 -49 37 58 62 62 39 79 hvcurveto
          91 callgsubr
          -89 77 -55 127 -3 vhcurveto
          -163 -128 rlineto
          93 hlineto
          349 276 rlineto
          endchar
        </CharString>
        <CharString name="dvDH_RA">
          65 657 119 callgsubr
          62 62 39 79 vhcurveto
          91 callgsubr
          -86 73 -58 127 -3 vhcurveto
          -159 -128 rlineto
          90 hlineto
          270 216 rlineto
          -171 -82 callsubr
        </CharString>
        <CharString name="dvDH_VA">
          424 1016 4 callgsubr
          -546 -55 365 -260 hlineto
          112 callsubr
          -22 3 -20 6 -18 hvcurveto
          -57 -48 -72 -46 -94 -42 callgsubr
          107 80 49 54 54 vhcurveto
          -48 35 58 -26 60 hhcurveto
          -62 callsubr
        </CharString>
        <CharString name="dvDH_YA">
          440 851 -103 callgsubr
          -422 55 rmoveto
          -55 153 -22 callgsubr
          7 -55 17 -45 24 -35 rrcurveto
          -61 -48 -74 -52 -100 -42 callgsubr
          120 86 62 61 53 vhcurveto
          -37 41 53 -19 57 hhcurveto
          135 callgsubr
          vlineto
          endchar
        </CharString>
        <CharString name="dvD_BA">
          -7 414 56 callsubr
          -605 -55 422 149 callsubr
          -82 74 -58 89 55 60 27 44 33 vhcurveto
          -103 68 callsubr
        </CharString>
        <CharString name="dvD_BHA">
          97 567 415 62 callgsubr
          -709 -55 526 16 callgsubr
          -92 56 -77 93 -23 hvcurveto
          -121 -65 -34 66 rlineto
          43 -21 -28 23 -38 hhcurveto
          -38 -37 -25 -28 -21 hvcurveto
          26 -46 rlineto
          19 15 25 19 21 hhcurveto
          22 11 -16 -30 15 hvcurveto
          28 -56 rlineto
          -10 -10 -5 -12 -12 vvcurveto
          -37 63 -37 34 -27 vhcurveto
          43 24 -47 94 211 114 34 9 27 16 17 20 rlinecurve
          -64 callgsubr
        </CharString>
        <CharString name="dvD_B_RA">
          -11 410 56 callsubr
          -601 -55 418 149 callsubr
          -74 61 -55 77 -9 vhcurveto
          -128 -94 rlineto
          86 hlineto
          170 125 rlineto
          0 vlineto
          17 12 16 14 12 16 rrcurveto
          -107 68 callsubr
        </CharString>
        <CharString name="dvD_DA">
          -67 402 579 rmoveto
          123 55 -545 -55 361 -85 hlineto
          4 -24 -27 3 -31 hhcurveto
          -108 -72 -44 -78 -58 38 -36 52 -4 hvcurveto
          -51 -10 -38 -49 -56 vvcurveto
          -82 67 -48 81 56 55 27 39 25 vhcurveto
          -102 61 204 -58 vlineto
          -78 -19 -56 -38 -60 hhcurveto
          -57 -33 32 50 49 41 37 70 hvcurveto
          48 55 -53 hlineto
          -61 -43 19 48 44 48 27 72 50 53 -9 -13 35 hvcurveto
          endchar
        </CharString>
        <CharString name="dvD_DHA">
          149 284 131 callgsubr
          355 301 62 callgsubr
          -761 -55 578 16 callgsubr
          -35 8 -33 16 -29 hvcurveto
          -18 -14 rlineto
          -16 -21 -33 -7 -23 hhcurveto
          -32 -23 15 30 56 60 10 1 76 hvcurveto
          -56 17 rlineto
          -79 -69 -24 -60 vvcurveto
          -60 47 -31 54 16 17 3 7 16 vhcurveto
          -25 -22 -11 -33 -36 vvcurveto
          -66 53 -39 57 72 73 54 118 21 vhcurveto
          5 hlineto
          68 callgsubr
        </CharString>
        <CharString name="dvD_GA">
          -21 449 415 62 callgsubr
          -591 -55 408 82 callgsubr
          59 1 47 21 25 30 rrcurveto
          -64 callgsubr
        </CharString>
        <CharString name="dvD_GHA">
          134 269 131 callgsubr
          -35 157 rmoveto
          -35 8 -33 16 -29 vhcurveto
          -18 -14 rlineto
          -15 -20 -26 -8 -24 hhcurveto
          -35 -31 17 41 56 67 31 63 1 hvcurveto
          390 132 62 callgsubr
          -746 -55 563 -110 -113 vlineto
          -112 -71 -55 -80 -24 hvcurveto
          -7 hlineto
          -86 -110 -48 -101 -63 50 -35 55 16 17 3 7 16 hvcurveto
          -25 -22 -11 -33 -36 vvcurveto
          -66 53 -39 57 72 73 54 118 21 vhcurveto
          5 hlineto
          68 callgsubr
        </CharString>
        <CharString name="dvD_G_RA">
          16 450 415 rmoveto
          164 158 55 -628 -55 409 82 callgsubr
          40 1 35 9 28 16 rrcurveto
          -145 vlineto
          -227 -182 rlineto
          90 hlineto
          137 111 rlineto
          -90 61 373 vlineto
          67 -176 rlineto
          61 hlineto
          -100 257 rlineto
          -58 hlineto
          -67 -52 -55 -86 -83 -55 55 94 89 60 52 95 vhcurveto
          endchar
        </CharString>
        <CharString name="dvD_MA">
          127 537 129 rmoveto
          -163 191 -58 hlineto
          -57 -53 -47 -63 -63 -45 39 64 73 58 36 93 vhcurveto
          131 151 163 205 callsubr
          -739 -55 333 -97 -77 hlineto
          -126 -80 -61 -102 -99 74 -57 89 58 42 24 30 19 hvcurveto
          -90 vlineto
          -24 -5 -18 -21 -26 vvcurveto
          -27 22 -42 27 -48 vhcurveto
          55 117 163 -195 62 699 120 hlineto
          endchar
        </CharString>
        <CharString name="dvD_NA">
          -20 450 415 62 callgsubr
          -592 -55 409 16 callgsubr
          -102 69 -84 112 -11 hvcurveto
          -87 -50 rlineto
          -37 -23 -19 -21 -32 vvcurveto
          -35 28 -38 41 -28 vhcurveto
          43 28 rlineto
          -20 18 -21 25 26 vvcurveto
          18 11 12 14 9 vhcurveto
          176 116 13 8 10 8 8 10 rlinecurve
          -64 callgsubr
        </CharString>
        <CharString name="dvD_R">
          -25 485 -287 65 callgsubr
          -427 921 41 callsubr
        </CharString>
        <CharString name="dvD_RA">
          -25 -20 634 41 callsubr
        </CharString>
        <CharString name="dvD_VA">
          -21 400 123 callgsubr
          -591 -55 408 -110 -103 vlineto
          -139 -87 -81 -112 -71 35 -63 69 -30 hvcurveto
          -50 -26 -25 -46 -49 vvcurveto
          -85 70 -56 93 63 58 31 45 28 vhcurveto
          -108 68 callsubr
        </CharString>
        <CharString name="dvD_YA">
          71 482 297 rmoveto
          -110 -101 -65 -108 -78 -54 25 50 56 64 17 76 vhcurveto
          41 55 -41 hlineto
          -86 -50 22 47 40 35 25 62 28 39 -4 -11 32 hvcurveto
          135 141 120 callgsubr
          -683 -55 300 -71 hlineto
          2 -13 -15 1 -15 hhcurveto
          -96 -58 -52 -65 -64 54 -28 49 -6 hvcurveto
          -47 -2 -60 -33 -62 vvcurveto
          -87 96 -42 92 104 82 48 50 29 vhcurveto
          -168 -82 callsubr
        </CharString>
        <CharString name="dvE">
          -23 569 4 callgsubr
          -589 -32 callsubr
        </CharString>
        <CharString name="dvEcandra">
          -23 394 82 callsubr
          113 -255 rmoveto
          -589 -32 callsubr
        </CharString>
        <CharString name="dvEight">
          -33 267 50 rmoveto
          -97 -49 53 62 67 42 60 104 5 hvcurveto
          109 -4 42 -57 -61 vvcurveto
          -66 -49 -59 -102 vhcurveto
          -135 426 rmoveto
          66 50 60 84 89 46 -58 -66 -82 -57 -41 -74 -76 -62 34 87 vhcurveto
          218 -149 rmoveto
          71 23 43 54 71 vvcurveto
          125 -101 60 -97 -96 -101 -65 -122 -75 43 -52 71 -21 vhcurveto
          -75 -22 -50 -55 -87 vvcurveto
          -106 96 -63 112 117 98 65 109 91 -53 50 -78 20 vhcurveto
          endchar
        </CharString>
        <CharString name="dvEyelash">
          -377 12 368 rmoveto
          -60 vlineto
          -17 30 42 -12 53 hhcurveto
          67 56 21 20 38 hvcurveto
          -15 55 rlineto
          -23 -40 -55 -19 -53 hhcurveto
          -58 -40 17 18 -25 hvcurveto
          203 211 rmoveto
          55 -235 -55 vlineto
          endchar
        </CharString>
        <CharString name="dvEyelash_HA">
          148 624 110 callsubr
          -760 -55 583 -104 -184 124 callgsubr
          -5 0 -5 1 -5 hvcurveto
          -19 -38 -47 -14 -46 hhcurveto
          -58 -40 17 18 -25 hvcurveto
          -60 vlineto
          -17 30 42 -12 53 hhcurveto
          58 51 16 17 37 hvcurveto
          12 -21 18 -16 18 -12 rrcurveto
          -85 callgsubr
          endchar
        </CharString>
        <CharString name="dvEyelash_YA">
          231 642 -103 callgsubr
          86 callgsubr
          -843 -55 393 hlineto
          -25 callgsubr
          -57 -47 -107 -22 vhcurveto
          0 vlineto
          -6 -28 -29 -3 -30 hhcurveto
          -51 -51 10 24 -39 hvcurveto
          -60 vlineto
          -20 38 54 -8 50 hhcurveto
          37 34 4 7 25 hvcurveto
          -119 34 88 -60 104 -101 callsubr
          vlineto
          endchar
        </CharString>
        <CharString name="dvFive">
          -40 170 44 callsubr
        </CharString>
        <CharString name="dvFour">
          -3 123 96 callgsubr
        </CharString>
        <CharString name="dvG">
          -273 174 callgsubr
          178 -68 callgsubr
          100 55 vlineto
          endchar
        </CharString>
        <CharString name="dvGA">
          -1 174 callgsubr
          178 58 callsubr
          201 callgsubr
        </CharString>
        <CharString name="dvGH">
          -205 440 226 rmoveto
          -49 -40 -68 -25 -62 138 callsubr
          176 55 -407 -55 150 hlineto
          3 callgsubr
          -90 73 -58 114 80 77 34 50 45 vhcurveto
          endchar
        </CharString>
        <CharString name="dvGHA">
          71 482 26 callsubr
          -683 -55 150 hlineto
          3 callgsubr
          -90 73 -58 114 101 76 48 50 38 vhcurveto
          -198 -82 callsubr
        </CharString>
        <CharString name="dvGH_MA">
          337 747 -12 callsubr
          -415 -235 rmoveto
          55 -51 vlineto
          79 callsubr
          251 -242 hlineto
          -24 -5 -18 -21 -26 vvcurveto
          -19 7 -23 9 -22 vhcurveto
          -46 -40 -66 -23 -60 hhcurveto
          93 callgsubr
          hvcurveto
          659 290 rmoveto
          -949 -55 150 hlineto
          3 callgsubr
          -90 73 -58 114 73 71 29 43 46 vhcurveto
          12 -27 rlineto
          -55 callgsubr
        </CharString>
        <CharString name="dvGH_NA">
          76 487 327 rmoveto
          -87 -91 -88 -121 93 callgsubr
          vhcurveto
          62 55 -51 hlineto
          -70 -65 24 64 41 23 31 43 20 hvcurveto
          270 hlineto
          86 callgsubr
          -688 -55 155 hlineto
          -32 -25 -14 -32 -38 vvcurveto
          -70 59 -37 43 -7 vhcurveto
          -59 -10 -47 -43 -69 vvcurveto
          -86 67 -57 105 -5 vhcurveto
          -81 -45 rlineto
          -29 -19 -13 -20 -24 vvcurveto
          -47 50 -45 33 -18 vhcurveto
          43 29 rlineto
          -24 21 -28 31 27 vvcurveto
          14 6 12 17 10 vhcurveto
          174 105 36 18 27 24 19 25 rlinecurve
          -198 -82 callsubr
        </CharString>
        <CharString name="dvGH_R">
          -155 496 296 rmoveto
          -66 -30 -85 -78 -106 138 callsubr
          221 55 -457 -55 155 hlineto
          3 callgsubr
          -113 107 -47 102 13 vhcurveto
          -165 -146 rlineto
          89 hlineto
          309 269 rlineto
          endchar
        </CharString>
        <CharString name="dvGH_RA">
          76 487 26 callsubr
          -688 -55 155 hlineto
          3 callgsubr
          -113 107 -47 102 13 vhcurveto
          -165 -146 rlineto
          85 hlineto
          273 239 rlineto
          -194 -82 callsubr
        </CharString>
        <CharString name="dvGH_YA">
          401 812 -103 callgsubr
          -480 -235 rmoveto
          55 -51 vlineto
          79 callsubr
          332 hlineto
          -71 callgsubr
          7 -51 15 -42 21 -35 rrcurveto
          -50 -46 -60 -34 -77 hhcurveto
          93 callgsubr
          hvcurveto
          723 290 rmoveto
          -1013 -55 150 hlineto
          3 callgsubr
          -90 73 -58 114 95 71 41 56 50 vhcurveto
          -44 43 57 -23 63 -101 callsubr
          vlineto
          endchar
        </CharString>
        <CharString name="dvG_BA">
          309 644 164 -51 callsubr
          -921 -80 callsubr
          501 -269 vlineto
          46 callgsubr
        </CharString>
        <CharString name="dvG_BHA">
          253 663 4 callgsubr
          -295 -208 186 184 callsubr
          -366 -80 callsubr
          119 vlineto
          136 callsubr
          -172 -78 callsubr
          208 75 callsubr
          hlineto
          endchar
        </CharString>
        <CharString name="dvG_BH_YA">
          631 1042 64 callsubr
          -432 55 rmoveto
          -55 163 202 callgsubr
          -142 -214 -7 -95 vhcurveto
          -40 186 hlineto
          147 callsubr
          -366 -80 callsubr
          119 vlineto
          136 callsubr
          -172 -78 callsubr
          43 hlineto
          44 55 2 10 55 hvcurveto
          -112 34 83 -55 107 hhcurveto
          135 callgsubr
          vlineto
          endchar
        </CharString>
        <CharString name="dvG_DA">
          270 740 415 62 callgsubr
          -882 -55 178 -68 callgsubr
          460 15 callsubr
          endchar
        </CharString>
        <CharString name="dvG_DHA">
          330 922 634 2 callsubr
          -576 -55 178 -68 callgsubr
          189 -43 callgsubr
          100 68 51 49 28 vhcurveto
          -163 -82 callsubr
        </CharString>
        <CharString name="dvG_DH_VA">
          724 1316 4 callgsubr
          -536 -55 355 -260 hlineto
          112 callsubr
          -25 4 -23 8 -21 hvcurveto
          -52 -48 -69 -42 -90 -48 callgsubr
          -616 -55 178 -68 callgsubr
          229 -43 callgsubr
          103 78 46 51 54 vhcurveto
          -44 36 55 -24 58 hhcurveto
          -62 callsubr
        </CharString>
        <CharString name="dvG_DH_YA">
          731 1142 8 callgsubr
          8 -61 20 -49 29 -38 rrcurveto
          -55 -48 -71 -45 -93 -48 callgsubr
          -616 -55 178 -68 callgsubr
          229 -43 callgsubr
          114 83 56 58 54 vhcurveto
          -31 39 49 -16 52 hhcurveto
          135 callgsubr
          vlineto
          endchar
        </CharString>
        <CharString name="dvG_GA">
          299 891 4 callgsubr
          -911 -80 callsubr
          239 -240 94 callsubr
        </CharString>
        <CharString name="dvG_GHA">
          351 762 26 callsubr
          -963 -80 callsubr
          191 vlineto
          3 callgsubr
          -90 73 -58 114 101 76 48 50 38 vhcurveto
          -198 -82 callsubr
        </CharString>
        <CharString name="dvG_JA">
          386 978 4 callgsubr
          -998 -80 callsubr
          578 -131 -388 -54 vlineto
          -101 callgsubr
          217 -394 -16 callgsubr
        </CharString>
        <CharString name="dvG_LA">
          445 1037 4 callgsubr
          -1057 -80 callsubr
          636 -126 vlineto
          7 -13 -25 9 -32 hhcurveto
          -75 -47 -105 callsubr
          46 39 66 29 23 -12 -8 13 vhcurveto
          -397 62 579 120 vlineto
          endchar
        </CharString>
        <CharString name="dvG_MA">
          277 687 -12 callsubr
          182 55 rmoveto
          -889 -80 callsubr
          183 50 callsubr
          223 89 callgsubr
          hlineto
          endchar
        </CharString>
        <CharString name="dvG_NA">
          9 174 callgsubr
          188 58 callsubr
          -338 vlineto
          -244 -148 rlineto
          -30 -18 -15 -17 -28 vvcurveto
          -47 59 -43 29 -17 vhcurveto
          42 30 rlineto
          -20 16 -38 33 28 vvcurveto
          11 6 9 12 7 vhcurveto
          199 118 rlineto
          -175 0 callsubr
        </CharString>
        <CharString name="dvG_NNA">
          468 643 153 callgsubr
          -1080 -80 callsubr
          161 -229 67 callsubr
        </CharString>
        <CharString name="dvG_N_YA">
          571 982 -103 callgsubr
          86 callgsubr
          -1183 -80 callsubr
          494 202 callgsubr
          -48 -38 -41 -74 -23 vhcurveto
          20 -27 -43 20 -67 hhcurveto
          -82 hlineto
          -102 callsubr
          58 hlineto
          64 26 -22 -11 8 hvcurveto
          -131 29 92 -68 109 -101 callsubr
          vlineto
          endchar
        </CharString>
        <CharString name="dvG_R">
          57 callsubr
          endchar
        </CharString>
        <CharString name="dvG_RA">
          4 -20 634 45 callgsubr
        </CharString>
        <CharString name="dvG_R_YA">
          391 802 -103 callgsubr
          86 callgsubr
          -1003 -55 183 -240 hlineto
          -100 callsubr
          309 -22 callgsubr
          3 -26 6 -24 7 -21 -365 -313 rcurveline
          88 hlineto
          304 256 rlineto
          -70 44 70 -36 79 -101 callsubr
          vlineto
          endchar
        </CharString>
        <CharString name="dvG_SA">
          371 548 328 -39 callsubr
          181 306 rmoveto
          -983 -80 callsubr
          295 -44 callgsubr
          173 -271 -16 callgsubr
        </CharString>
        <CharString name="dvG_VA">
          294 886 4 callgsubr
          -906 -80 callsubr
          486 54 callsubr
        </CharString>
        <CharString name="dvG_YA">
          351 762 -103 callgsubr
          86 callgsubr
          -963 -80 callsubr
          274 29 callsubr
        </CharString>
        <CharString name="dvGx">
          -253 119 80 rmoveto
          -103 callsubr
          -139 554 rmoveto
          -55 178 -68 callgsubr
          -19 callsubr
        </CharString>
        <CharString name="dvGxA">
          -1 119 80 rmoveto
          -103 callsubr
          -139 554 rmoveto
          -55 178 58 callsubr
          201 callgsubr
        </CharString>
        <CharString name="dvGx_R">
          57 callsubr
          -105 -239 rmoveto
          -103 callsubr
          endchar
        </CharString>
        <CharString name="dvGx_RA">
          4 307 -2 rmoveto
          -103 callsubr
          -327 636 45 callgsubr
        </CharString>
        <CharString name="dvH">
          -47 250 -96 0 callgsubr
          -333 730 rmoveto
          -55 388 135 callsubr
          -85 callgsubr
          237 156 116 55 hlineto
          endchar
        </CharString>
        <CharString name="dvHA">
          137 callsubr
          -60 33 -36 33 -22 hvcurveto
          -85 callgsubr
          endchar
        </CharString>
        <CharString name="dvHA_mU">
          137 callsubr
          -60 33 -34 33 -21 hvcurveto
          -41 -31 -21 -43 -44 vvcurveto
          -77 51 -80 120 -12 vhcurveto
          13 -1 rlineto
          12 19 24 7 20 hhcurveto
          40 40 -12 -53 -44 -37 -38 -72 -61 -72 31 39 -48 hvcurveto
          -63 vlineto
          -34 43 74 -25 66 hhcurveto
          102 67 56 78 78 -58 40 -75 -28 -32 -10 -9 -16 hvcurveto
          -82 6 -37 50 60 vvcurveto
          54 50 56 100 74 29 -37 -43 -18 -4 -21 -11 -14 vhcurveto
          61 hlineto
          8 16 3 21 19 vvcurveto
          62 -45 67 -115 -38 -32 -6 -10 -28 vhcurveto
          0 vlineto
          -21 5 -35 27 48 96 callsubr
        </CharString>
        <CharString name="dvHA_mUU">
          137 callsubr
          -57 30 -37 32 -21 hvcurveto
          -38 -29 -20 -42 -42 vvcurveto
          -68 45 -56 66 -18 vhcurveto
          -32 -23 -19 -34 -39 vvcurveto
          -84 64 -43 75 11 16 1 3 11 vhcurveto
          52 vlineto
          -2 -7 -9 -1 -12 hhcurveto
          -42 -45 19 54 44 33 31 50 113 46 -108 -115 hvcurveto
          57 hlineto
          78 -28 196 -187 -81 -64 43 69 51 43 51 94 83 33 -35 -45 -18 -4 -21 -11 -14 vhcurveto
          61 hlineto
          8 16 3 21 19 vvcurveto
          65 -49 64 -126 -34 -29 -5 -9 -26 vhcurveto
          -21 8 -29 29 44 96 callsubr
        </CharString>
        <CharString name="dvHA_mvR">
          -89 363 148 callgsubr
          140 55 -523 -55 322 -104 -134 124 callgsubr
          -56 29 -36 31 -22 hvcurveto
          -37 -32 -19 -44 -43 vvcurveto
          -104 86 -77 153 34 33 5 9 35 vhcurveto
          53 vlineto
          -10 -35 -35 -4 -26 hhcurveto
          -130 -54 61 66 66 57 56 93 30 5 -9 -14 hvcurveto
          -29 -65 -26 -41 vvcurveto
          -46 46 -18 47 38 36 10 14 27 vhcurveto
          55 vlineto
          -20 -35 -31 -8 -28 hhcurveto
          -25 -12 7 14 hvcurveto
          24 66 30 45 vvcurveto
          34 -25 30 -74 -44 -38 -9 -16 -31 vhcurveto
          -19 12 -22 27 38 96 callsubr
        </CharString>
        <CharString name="dvH_LA">
          -15 442 148 callgsubr
          135 55 -597 103 callgsubr
          -59 32 183 callsubr
          -26 -54 -65 vvcurveto
          -118 87 -98 162 22 26 2 4 18 vhcurveto
          54 vlineto
          -4 -15 -25 -3 -20 hhcurveto
          -130 -64 67 95 86 55 70 115 58 43 -18 -30 26 hvcurveto
          1 -3 -4 0 -3 hhcurveto
          -28 -26 -22 -23 -4 hvcurveto
          24 -7 -28 19 -35 hhcurveto
          -50 -36 -42 -60 -80 62 -38 74 hvcurveto
          6 5 1 5 hhcurveto
          45 vlineto
          -1 -5 -6 0 -5 hhcurveto
          -48 -34 23 50 33 13 23 23 30 9 -21 -31 hvcurveto
          -22 52 21 vlineto
          32 10 24 32 10 10 -3 -3 7 vhcurveto
          3 -13 2 -13 -14 vvcurveto
          -43 -8 -40 -14 -32 vhcurveto
          60 hlineto
          14 36 7 36 40 vvcurveto
          126 -97 67 -120 -43 -39 -8 -15 -33 vhcurveto
          -21 9 -28 28 43 96 callsubr
        </CharString>
        <CharString name="dvH_MA">
          128 538 199 rmoveto
          -123 7 hlineto
          58 -39 52 -103 -31 -28 -5 -10 -24 vhcurveto
          -21 5 -33 21 46 62 callsubr
          197 156 144 205 callsubr
          -740 -55 353 -104 -144 hlineto
          -64 -50 -32 -62 -60 33 -29 34 -20 hvcurveto
          -40 -33 -23 -50 -59 vvcurveto
          -112 69 -95 161 35 33 4 8 29 vhcurveto
          52 vlineto
          -8 -29 -37 -4 -32 hhcurveto
          -119 -49 65 85 78 43 61 87 63 20 -27 -31 hvcurveto
          -9 vlineto
          -24 -5 -17 -18 -26 vvcurveto
          -26 24 -35 24 -39 vhcurveto
          55 97 123 -145 -17 callsubr
        </CharString>
        <CharString name="dvH_NA">
          5 439 148 callgsubr
          158 55 -617 -55 398 -104 -194 124 callgsubr
          -56 36 -43 33 -24 hvcurveto
          -51 -39 -25 -57 -63 vvcurveto
          -116 100 -100 150 38 22 0 12 48 vhcurveto
          55 vlineto
          -11 -33 -33 -3 -36 hhcurveto
          -112 -82 68 95 76 50 79 133 49 36 -12 -17 25 hvcurveto
          -137 -61 rlineto
          -34 -15 -17 -19 -29 vvcurveto
          -41 43 -44 25 -18 vhcurveto
          44 20 rlineto
          -23 22 -19 31 22 vvcurveto
          15 8 10 16 7 vhcurveto
          133 58 rlineto
          8 -14 3 -14 -13 vvcurveto
          -33 -7 -21 -7 -19 vhcurveto
          61 hlineto
          6 13 6 30 31 vvcurveto
          69 -61 94 -158 -47 -41 -8 -13 -33 vhcurveto
          -26 15 -30 30 43 96 callsubr
        </CharString>
        <CharString name="dvH_NNA">
          -10 341 140 rmoveto
          -48 -8 -21 -36 -35 -10 20 50 vhcurveto
          119 vlineto
          3 13 15 1 15 hhcurveto
          17 15 -1 -3 14 hvcurveto
          101 163 rmoveto
          156 140 55 -602 103 callgsubr
          -59 32 183 callsubr
          -26 -54 -65 vvcurveto
          -118 87 -98 106 callsubr
          -64 67 95 57 25 51 50 27 hvcurveto
          -102 vlineto
          -87 37 -27 60 68 28 37 76 vhcurveto
          100 vlineto
          39 -24 21 -40 -50 vvcurveto
          -27 -5 -30 -7 -18 vhcurveto
          60 hlineto
          5 17 6 30 25 vvcurveto
          126 -97 67 -120 -43 -39 -8 -15 -33 vhcurveto
          -21 9 -28 28 43 96 callsubr
        </CharString>
        <CharString name="dvH_R">
          -15 250 -176 0 callgsubr
          129 599 -24 callgsubr
        </CharString>
        <CharString name="dvH_RA">
          -15 442 423 -24 callgsubr
        </CharString>
        <CharString name="dvH_VA">
          -37 442 148 callgsubr
          113 55 -575 103 callgsubr
          -58 31 183 callsubr
          -25 -54 -66 vvcurveto
          -118 87 -98 162 38 32 4 12 48 vhcurveto
          55 vlineto
          -11 -33 -43 -7 -36 hhcurveto
          -130 -64 67 95 84 53 72 112 80 44 -41 -56 14 hvcurveto
          0 vlineto
          -64 -48 -37 -51 -43 -26 18 35 37 30 18 32 14 11 -2 -4 11 vhcurveto
          45 vlineto
          5 -12 -13 3 -20 hhcurveto
          -59 -56 -40 -63 -57 45 -47 76 47 38 22 32 24 hvcurveto
          -4 -19 -4 -18 -4 -10 rrcurveto
          60 hlineto
          7 19 10 51 29 vvcurveto
          107 -66 89 -137 -42 -38 -8 -15 -32 vhcurveto
          -21 10 -26 29 41 96 callsubr
        </CharString>
        <CharString name="dvH_YA">
          146 557 217 rmoveto
          -91 -58 -45 -66 -52 -39 24 36 -14 vhcurveto
          54 12 37 39 49 vvcurveto
          69 -56 32 -83 -39 -36 -10 -18 -32 vhcurveto
          -14 11 -13 19 29 62 callsubr
          187 156 163 hlineto
          86 callgsubr
          -758 -55 353 -104 -134 hlineto
          -64 -50 -32 -62 -49 22 -29 27 -19 hvcurveto
          -34 -33 -21 -47 -55 vvcurveto
          -131 104 -94 156 18 25 4 5 15 vhcurveto
          51 vlineto
          -4 -13 -28 -4 -19 hhcurveto
          -116 -81 75 97 87 66 58 82 46 23 -15 -36 -40 -37 -17 -65 -9 hvcurveto
          -95 16 78 -52 80 hhcurveto
          54 47 23 36 27 hvcurveto
          -88 -82 callsubr
        </CharString>
        <CharString name="dvI">
          198 callgsubr
          -508 -55 337 -92 -91 vlineto
          44 callgsubr
        </CharString>
        <CharString name="dvII">
          198 callgsubr
          -121 vlineto
          -21 22 -20 34 34 vvcurveto
          48 27 31 47 34 callgsubr
          -91 -45 -65 -64 -40 14 -33 20 -22 hvcurveto
          -318 -55 337 -92 -91 hlineto
          44 callgsubr
        </CharString>
        <CharString name="dvII_Anusvara">
          -64 389 432 rmoveto
          147 139 55 -147 vlineto
          138 callgsubr
          -91 -59 -68 -85 -52 26 -45 24 -25 hvcurveto
          -333 -55 347 -92 -98 hlineto
          -88 -63 -46 -83 -73 61 -50 77 -2 hvcurveto
          83 7 rlineto
          54 33 -31 -50 -56 -41 -40 -59 -68 -60 44 58 -23 hvcurveto
          84 callgsubr
          -36 34 55 -21 57 hhcurveto
          93 69 66 84 76 -46 58 -93 hvcurveto
          -83 -6 rlineto
          -50 1 -36 30 42 vvcurveto
          52 48 20 45 vhcurveto
          198 358 rmoveto
          -103 callsubr
          endchar
        </CharString>
        <CharString name="dvJ">
          -150 161 callgsubr
          95 -131 rmoveto
          -438 -54 hlineto
          -101 callgsubr
          267 hlineto
          endchar
        </CharString>
        <CharString name="dvJA">
          76 174 callgsubr
          507 -131 -388 -54 vlineto
          -101 callgsubr
          217 -394 -99 callsubr
          55 hlineto
          endchar
        </CharString>
        <CharString name="dvJH">
          -32 639 311 rmoveto
          -359 0 hlineto
          -11 1 rlineto
          24 callgsubr
          167 55 -580 -55 351 -82 -95 hlineto
          -95 -62 -46 -76 -86 74 -22 100 -7 hvcurveto
          -11 callgsubr
          237 hlineto
          endchar
        </CharString>
        <CharString name="dvJHA">
          181 280 311 rmoveto
          0 vlineto
          -11 1 rlineto
          24 callgsubr
          198 -268 hlineto
          182 323 rmoveto
          -793 -55 351 -82 -95 hlineto
          -95 -62 -46 -76 -86 74 -22 100 -7 hvcurveto
          -11 callgsubr
          189 -258 -17 callsubr
        </CharString>
        <CharString name="dvJH_MA">
          507 917 -12 callsubr
          -648 -267 rmoveto
          24 callgsubr
          239 -242 hlineto
          -15 -3 -13 -10 -7 -13 rrcurveto
          -317 0 hlineto
          819 323 rmoveto
          -1119 -55 351 -82 -95 hlineto
          -95 -62 -46 -76 -86 74 -22 100 -7 hvcurveto
          -11 callgsubr
          192 hlineto
          5 -21 10 -23 8 -19 22 -50 rcurveline
          -55 callgsubr
        </CharString>
        <CharString name="dvJH_NA">
          271 311 311 rmoveto
          -6 1 -6 0 -6 1 rrcurveto
          -92 8 -47 14 45 vvcurveto
          41 38 21 63 vhcurveto
          169 137 268 -268 hlineto
          171 323 rmoveto
          -883 -55 382 -82 -112 hlineto
          -98 -60 -48 -70 -86 79 -25 106 -7 hvcurveto
          96 -6 21 -42 -45 vvcurveto
          -56 -47 -37 -59 -68 -62 42 58 -23 111 callgsubr
          -36 34 62 -19 52 hhcurveto
          93 75 62 85 37 -10 30 -19 23 hvcurveto
          265 -39 hlineto
          -243 -217 rlineto
          -26 -22 -11 -23 -21 vvcurveto
          -42 38 -37 48 -21 vhcurveto
          42 27 rlineto
          -30 23 -27 26 27 vvcurveto
          13 8 12 16 15 vhcurveto
          185 165 rlineto
          -144 51 -94 callsubr
          vlineto
          endchar
        </CharString>
        <CharString name="dvJH_R">
          30 709 259 rmoveto
          53 -429 vlineto
          24 callgsubr
          218 55 -642 57 callgsubr
          286 -40 rmoveto
          -377 -348 rlineto
          86 hlineto
          328 299 rlineto
          endchar
        </CharString>
        <CharString name="dvJH_RA">
          261 280 312 rmoveto
          24 callgsubr
          267 -267 hlineto
          182 322 rmoveto
          -873 57 callgsubr
          259 -65 hlineto
          -350 -323 rlineto
          86 hlineto
          264 247 rlineto
          -118 -69 callgsubr
        </CharString>
        <CharString name="dvJH_YA">
          561 972 76 callgsubr
          -63 50 79 -17 vhcurveto
          81 25 70 60 89 -33 callsubr
          -579 -137 rmoveto
          137 310 202 callgsubr
          -98 -121 -47 -146 -19 vhcurveto
          -9 -64 -69 -3 -65 hhcurveto
          -89 7 -38 18 44 vvcurveto
          43 40 18 59 vhcurveto
          912 192 rmoveto
          -1173 -55 351 -82 -95 hlineto
          -95 -62 -44 -73 -86 66 -26 108 -8 122 callsubr
          -63 46 56 -25 111 callgsubr
          -37 35 57 119 callsubr
          40 -17 33 -29 25 hvcurveto
          27 2 26 2 26 4 38 5 36 7 33 9 rrcurveto
          -112 35 87 -51 102 -101 callsubr
          vlineto
          endchar
        </CharString>
        <CharString name="dvJ_BA">
          459 794 164 -51 callsubr
          -1071 -55 890 -29 callsubr
          -53 -48 -16 -27 -37 hvcurveto
          -459 -54 hlineto
          -101 callgsubr
          239 hlineto
          -19 -30 -10 -37 -41 84 callsubr
        </CharString>
        <CharString name="dvJ_DA">
          400 870 415 62 callgsubr
          -1002 -55 819 -110 -113 vlineto
          -41 -36 -8 -13 -30 hvcurveto
          -480 -54 hlineto
          -101 callgsubr
          240 hlineto
          -26 -33 -14 -43 -47 38 callsubr
        </CharString>
        <CharString name="dvJ_DDA">
          337 782 167 callsubr
          -949 -55 740 -95 -107 vlineto
          -47 -39 -12 -24 -27 hvcurveto
          -401 -54 hlineto
          -101 callgsubr
          196 hlineto
          -2 -11 -2 -12 -13 vvcurveto
          111 callsubr
          vhcurveto
          -54 callsubr
        </CharString>
        <CharString name="dvJ_JA">
          476 1068 4 callgsubr
          -1088 -55 907 -131 -788 -54 hlineto
          -101 callgsubr
          229 hlineto
          -101 callgsubr
          217 -394 -16 callgsubr
        </CharString>
        <CharString name="dvJ_JHA">
          581 680 311 rmoveto
          0 vlineto
          -11 1 rlineto
          24 callgsubr
          198 -268 hlineto
          182 323 rmoveto
          -1193 -55 751 -82 -95 hlineto
          -59 -46 -18 -31 -27 hvcurveto
          -405 -54 hlineto
          -101 callgsubr
          210 hlineto
          -1 -6 0 -6 -7 vvcurveto
          -86 74 -22 100 -7 vhcurveto
          -11 callgsubr
          189 -258 -17 callsubr
        </CharString>
        <CharString name="dvJ_J_NYA">
          591 1203 4 callgsubr
          -1223 -55 1021 -92 -326 hlineto
          -55 -43 -14 -25 -29 hvcurveto
          -449 -54 hlineto
          -101 callgsubr
          245 hlineto
          -3 -9 -1 -10 -11 vvcurveto
          -73 58 -44 107 74 62 -11 -67 -55 -40 -41 -61 -68 -63 44 58 -25 vhcurveto
          -55 -222 60 127 hlineto
          -36 33 57 -23 61 hhcurveto
          92 73 59 89 97 -76 34 -99 -94 -32 25 41 46 42 20 58 hvcurveto
          326 -432 62 579 140 hlineto
          endchar
        </CharString>
        <CharString name="dvJ_J_VA">
          814 1406 4 callgsubr
          -1426 -55 1245 -260 hlineto
          -102 callgsubr
          -30 -28 -6 -10 -24 hvcurveto
          -880 -54 hlineto
          -101 callgsubr
          229 hlineto
          -101 callgsubr
          238 hlineto
          -24 -31 -14 -39 -45 vvcurveto
          -73 callsubr
        </CharString>
        <CharString name="dvJ_J_YA">
          861 1272 76 callgsubr
          -53 60 79 -29 vhcurveto
          81 25 72 45 129 callgsubr
          86 callgsubr
          -1473 -55 1023 hlineto
          14 -18 17 -30 -37 vvcurveto
          -64 -52 -38 -70 -18 vhcurveto
          35 -26 -53 39 -94 hhcurveto
          -640 -54 hlineto
          -101 callgsubr
          237 hlineto
          104 -3 71 -48 -98 vvcurveto
          181 callsubr
          vhcurveto
          101 callsubr
          71 hlineto
          201 -97 -264 261 hhcurveto
          76 55 25 46 35 116 callgsubr
        </CharString>
        <CharString name="dvJ_KA">
          629 1221 186 callgsubr
          -1241 -55 810 -313 vlineto
          -64 -55 -47 -60 -71 -52 50 74 87 61 46 72 7 9 -1 -1 5 vhcurveto
          54 vlineto
          2 -5 -9 1 -9 hhcurveto
          -32 -30 -7 -12 -27 hvcurveto
          -495 -54 hlineto
          -101 callgsubr
          256 hlineto
          -22 -30 -14 -39 -46 vvcurveto
          53 callgsubr
          vhcurveto
          -100 callgsubr
        </CharString>
        <CharString name="dvJ_MA">
          417 827 -12 callsubr
          182 55 rmoveto
          -1029 -55 562 -131 -443 -54 hlineto
          -101 callgsubr
          272 -57 -73 callgsubr
          223 89 callgsubr
          hlineto
          endchar
        </CharString>
        <CharString name="dvJ_NA">
          66 174 callgsubr
          497 -131 -388 -54 vlineto
          -101 callgsubr
          217 -225 hlineto
          -184 -122 rlineto
          -30 -20 -11 -22 -23 vvcurveto
          -48 53 -38 30 -16 vhcurveto
          44 30 rlineto
          -23 17 -32 26 29 vvcurveto
          15 6 9 13 9 vhcurveto
          134 88 rlineto
          -103 0 callsubr
        </CharString>
        <CharString name="dvJ_NY">
          -68 524 4 callgsubr
          -554 -55 554 hlineto
          187 -172 rmoveto
          55 -466 vlineto
          67 callgsubr
          endchar
        </CharString>
        <CharString name="dvJ_NYA">
          140 -30 186 callsubr
          601 -92 -326 vlineto
          -100 -64 -47 -76 -73 58 -44 107 74 62 -11 -67 -55 -40 -41 -61 -68 -63 44 58 -25 hvcurveto
          -55 -222 60 127 hlineto
          -36 33 57 -23 61 hhcurveto
          92 73 59 89 97 -76 34 -99 -94 -32 25 41 46 42 20 58 hvcurveto
          326 -432 62 579 140 55 hlineto
          endchar
        </CharString>
        <CharString name="dvJ_NY_YA">
          521 932 31 callgsubr
          -104 -32 57 81 -32 vhcurveto
          87 28 68 43 129 callgsubr
          86 callgsubr
          -1143 -55 693 179 callsubr
          -42 -72 -23 vhcurveto
          49 -35 -41 42 -106 hhcurveto
          -149 hlineto
          67 callgsubr
          130 hlineto
          255 -155 -277 291 -101 callsubr
          vlineto
          endchar
        </CharString>
        <CharString name="dvJ_R">
          195 callsubr
          -359 -679 rmoveto
          90 hlineto
          350 298 -33 49 rlineto
          -428 201 rmoveto
          -3 callsubr
          367 54 hlineto
          endchar
        </CharString>
        <CharString name="dvJ_RA">
          85 174 callgsubr
          516 -131 -388 -3 callsubr
          214 -183 hlineto
          -367 -311 rlineto
          90 hlineto
          277 234 rlineto
          -134 0 callsubr
        </CharString>
        <CharString name="dvJ_TA">
          430 1022 4 callgsubr
          -1042 -55 861 -133 -112 hlineto
          -3 0 -627 -54 hlineto
          109 74 -46 -101 181 callsubr
          hvcurveto
          144 callsubr
          70 -29 49 -45 26 hvcurveto
          288 hlineto
          -46 -40 -23 -59 -68 -77 callgsubr
          hlineto
          endchar
        </CharString>
        <CharString name="dvJ_TTA">
          326 804 579 rmoveto
          114 55 -938 -55 762 110 callgsubr
          -20 -19 -2 -3 -18 hvcurveto
          0 -558 -54 vlineto
          -101 callgsubr
          271 hlineto
          -44 -38 -27 -54 -67 -71 callsubr
        </CharString>
        <CharString name="dvJ_VA">
          414 1006 4 callgsubr
          -1026 -55 845 -260 hlineto
          -102 callgsubr
          -30 -28 -6 -10 -24 hvcurveto
          -480 -54 hlineto
          -101 callgsubr
          238 hlineto
          -24 -31 -14 -39 -45 vvcurveto
          -73 callsubr
        </CharString>
        <CharString name="dvJ_YA">
          461 -20 579 -24 callsubr
        </CharString>
        <CharString name="dvJx">
          -154 161 callgsubr
          -293 -619 rmoveto
          -103 callsubr
          388 488 rmoveto
          -438 -54 hlineto
          -101 callgsubr
          267 hlineto
          endchar
        </CharString>
        <CharString name="dvJxA">
          76 149 -40 rmoveto
          -103 callsubr
          -169 674 rmoveto
          -55 507 -131 -388 -54 vlineto
          -101 callgsubr
          217 -394 -99 callsubr
          55 hlineto
          endchar
        </CharString>
        <CharString name="dvJx_JxA">
          476 149 -40 rmoveto
          -103 callsubr
          400 hmoveto
          -103 callsubr
          519 674 rmoveto
          -1088 -55 907 -131 -788 -54 hlineto
          -101 callgsubr
          229 hlineto
          -101 callgsubr
          217 -394 -16 callgsubr
        </CharString>
        <CharString name="dvJx_R">
          195 callsubr
          21 -589 rmoveto
          -103 callsubr
          -380 -90 rmoveto
          90 hlineto
          350 298 -33 49 rlineto
          -428 201 rmoveto
          -3 callsubr
          367 54 hlineto
          endchar
        </CharString>
        <CharString name="dvJx_RA">
          85 399 -70 rmoveto
          -103 callsubr
          -419 704 rmoveto
          -55 516 -131 -388 -3 callsubr
          214 -183 hlineto
          -367 -311 rlineto
          90 hlineto
          277 234 rlineto
          -134 0 callsubr
        </CharString>
        <CharString name="dvJx_YA">
          461 133 -87 rmoveto
          -56 callgsubr
          -153 666 -24 callsubr
        </CharString>
        <CharString name="dvK">
          -60 412 579 rmoveto
          120 55 -552 -81 callsubr
          55 47 60 34 30 -11 -21 22 vhcurveto
          42 42 rlineto
          27 -31 -44 15 -49 60 callsubr
          endchar
        </CharString>
        <CharString name="dvKA">
          189 781 186 callgsubr
          -801 -55 370 -313 vlineto
          -64 -55 -47 -60 -71 -52 50 74 87 61 46 72 7 9 -1 -1 5 vhcurveto
          54 vlineto
          2 -5 -9 1 -9 hhcurveto
          -104 -89 -70 -118 -107 75 -69 106 49 callgsubr
        </CharString>
        <CharString name="dvKH">
          -1 532 274 1 callgsubr
        </CharString>
        <CharString name="dvKHA">
          191 783 4 callgsubr
          -803 -55 244 127 callsubr
          -65 -53 hlineto
          -76 callgsubr
        </CharString>
        <CharString name="dvKH_KHA">
          761 1171 437 rmoveto
          36 -34 -48 14 -44 -90 callgsubr
          44 -53 -79 -112 -86 -88 -28 callsubr
          345 vlineto
          -506 -211 rmoveto
          86 -25 -73 33 -72 hhcurveto
          -86 -67 -65 -82 -79 62 -51 74 19 18 4 8 17 hvcurveto
          52 vlineto
          -15 callgsubr
          488 -109 vlineto
          -71 -3 -31 -76 vhcurveto
          668 266 rmoveto
          -1373 -55 234 -109 hlineto
          -61 callgsubr
          142 87 78 93 32 hvcurveto
          -97 57 99 -74 133 hhcurveto
          106 73 43 62 42 hvcurveto
          -153 -69 callgsubr
        </CharString>
        <CharString name="dvKH_MA">
          547 957 339 -34 callsubr
        </CharString>
        <CharString name="dvKH_NA">
          211 621 437 rmoveto
          36 -34 -48 14 -44 -90 callgsubr
          44 -53 -79 -112 -86 -88 -28 callsubr
          345 185 callsubr
          -823 -55 234 162 callsubr
          34 -124 96 -113 142 -25 -138 -61 rcurveline
          -41 -16 -17 -22 -29 vvcurveto
          -45 40 -44 21 -19 vhcurveto
          49 15 rlineto
          -19 25 -20 38 24 vvcurveto
          14 7 8 16 7 vhcurveto
          277 121 45 19 34 29 25 36 rlinecurve
          -153 -69 callgsubr
        </CharString>
        <CharString name="dvKH_R">
          -9 522 274 -8 callsubr
        </CharString>
        <CharString name="dvKH_RA">
          201 611 438 -21 callsubr
        </CharString>
        <CharString name="dvKH_SHA">
          682 750 443 5 callgsubr
          -51 hlineto
          126 -8 -86 46 -85 hhcurveto
          -86 -67 -65 -82 -79 62 -51 74 19 18 4 8 17 hvcurveto
          52 vlineto
          32 callsubr
          143 88 79 94 31 hvcurveto
          189 -221 -48 callsubr
        </CharString>
        <CharString name="dvKH_TA">
          552 963 446 rmoveto
          -112 hlineto
          -86 -63 -27 -45 -39 hvcurveto
          82 -27 -71 72 callgsubr
          13 hlineto
          95 26 51 99 hvcurveto
          116 687 120 callgsubr
          -1164 -55 234 -109 hlineto
          -61 callgsubr
          103 75 41 59 45 hvcurveto
          -88 26 72 -60 105 hhcurveto
          11 10 1 1 6 hvcurveto
          -58 callsubr
          hlineto
          endchar
        </CharString>
        <CharString name="dvKH_VA">
          561 972 319 rmoveto
          -102 callgsubr
          -65 -54 -27 -43 -34 hvcurveto
          67 -31 -65 26 -64 hhcurveto
          -86 -67 -65 -82 -79 62 -51 74 19 18 4 8 17 hvcurveto
          52 vlineto
          -15 callgsubr
          696 120 callgsubr
          -1173 -55 234 -109 hlineto
          -61 callgsubr
          121 82 57 74 41 hvcurveto
          -56 34 63 -31 65 hhcurveto
          -62 callsubr
        </CharString>
        <CharString name="dvKH_YA">
          601 1012 -103 callgsubr
          -857 -266 rmoveto
          95 26 51 99 hvcurveto
          116 467 202 callgsubr
          -48 -38 -41 -74 -23 vhcurveto
          80 -27 -70 72 callgsubr
          1051 321 rmoveto
          -1213 -55 234 -109 hlineto
          -61 callgsubr
          144 88 80 95 30 hvcurveto
          -62 44 66 -31 74 -101 callsubr
          vlineto
          endchar
        </CharString>
        <CharString name="dvKHx">
          -4 79 50 rmoveto
          -103 callsubr
          453 224 1 callgsubr
        </CharString>
        <CharString name="dvKHxA">
          191 69 20 rmoveto
          -103 callsubr
          714 614 rmoveto
          -803 -55 244 127 callsubr
          -65 -53 hlineto
          -76 callgsubr
        </CharString>
        <CharString name="dvKHx_MA">
          547 79 50 rmoveto
          -103 callsubr
          878 289 -34 callsubr
        </CharString>
        <CharString name="dvKHx_R">
          -9 524 -80 rmoveto
          -103 callsubr
          -2 354 -8 callsubr
        </CharString>
        <CharString name="dvKHx_RA">
          201 526 -20 rmoveto
          -103 callsubr
          85 458 -21 callsubr
        </CharString>
        <CharString name="dvKHx_SA">
          641 79 50 rmoveto
          -103 callsubr
          739 278 -39 callsubr
          -897 -15 rmoveto
          95 26 51 99 hvcurveto
          116 508 -143 vlineto
          146 callsubr
          -14 hlineto
          109 -15 -81 40 -80 -90 callgsubr
          36 -60 -76 -112 -78 -84 52 callgsubr
          1091 321 rmoveto
          -1253 -55 234 -109 hlineto
          -61 callgsubr
          143 88 79 94 31 hvcurveto
          143 -221 -92 callgsubr
          173 -271 -16 callgsubr
        </CharString>
        <CharString name="dvKHx_SHA">
          681 79 50 rmoveto
          -103 callsubr
          671 393 5 callgsubr
          -51 hlineto
          126 -8 -86 46 -85 hhcurveto
          -86 -67 -65 -82 -79 62 -51 74 19 18 4 8 17 hvcurveto
          52 vlineto
          32 callsubr
          143 88 79 94 31 hvcurveto
          189 -221 -48 callsubr
        </CharString>
        <CharString name="dvKHx_TA">
          552 79 50 rmoveto
          -103 callsubr
          884 396 rmoveto
          -112 hlineto
          -86 -63 -27 -45 -39 hvcurveto
          82 -27 -71 72 callgsubr
          13 hlineto
          95 26 51 99 hvcurveto
          116 687 120 callgsubr
          -1164 -55 234 -109 hlineto
          -61 callgsubr
          103 75 41 59 45 hvcurveto
          -88 26 72 -60 105 hhcurveto
          11 10 1 1 6 hvcurveto
          -58 callsubr
          hlineto
          endchar
        </CharString>
        <CharString name="dvKHx_VA">
          561 79 50 rmoveto
          -103 callsubr
          893 269 rmoveto
          -102 callgsubr
          -65 -54 -27 -43 -34 hvcurveto
          67 -31 -65 26 -64 hhcurveto
          -86 -67 -65 -82 -79 62 -51 74 19 18 4 8 17 hvcurveto
          52 vlineto
          -15 callgsubr
          696 120 callgsubr
          -1173 -55 234 -109 hlineto
          -61 callgsubr
          121 82 57 74 41 hvcurveto
          -56 34 63 -31 65 hhcurveto
          -62 callsubr
        </CharString>
        <CharString name="dvKHx_YA">
          601 79 50 rmoveto
          -103 callsubr
          933 277 -104 callsubr
          -857 -266 rmoveto
          95 26 51 99 hvcurveto
          116 467 202 callgsubr
          -48 -38 -41 -74 -23 vhcurveto
          80 -27 -70 72 callgsubr
          1051 321 rmoveto
          -1213 -55 234 -109 hlineto
          -61 callgsubr
          144 88 80 95 30 hvcurveto
          -62 44 66 -31 74 -101 callsubr
          vlineto
          endchar
        </CharString>
        <CharString name="dvK_CA">
          525 935 328 rmoveto
          60 callgsubr
          -240 vlineto
          18 -26 -30 10 -34 hhcurveto
          -43 -31 -14 -26 -21 hvcurveto
          142 523 185 callsubr
          -1137 -81 callsubr
          31 47 60 32 18 -10 -21 20 vhcurveto
          74 hlineto
          97 callgsubr
          -107 85 -56 101 vhcurveto
          56 callgsubr
        </CharString>
        <CharString name="dvK_DA">
          455 412 579 rmoveto
          426 -95 -107 hlineto
          -42 -36 -10 -19 -27 hvcurveto
          14 -27 -33 8 -35 60 callsubr
          488 1 98 callgsubr
          -1067 -55 370 -313 vlineto
          -107 callgsubr
          55 47 60 23 22 -5 -10 18 vhcurveto
          -7 -15 -3 -17 -20 vvcurveto
          111 callsubr
          vhcurveto
          -54 callsubr
        </CharString>
        <CharString name="dvK_JA">
          590 1001 418 153 callsubr
          181 55 rmoveto
          -1202 -81 callsubr
          53 47 52 53 28 -26 -32 15 vhcurveto
          -3 vlineto
          111 72 -42 -87 -81 -57 -37 -80 -46 -38 166 callsubr
          40 -10 47 hhcurveto
          121 77 66 106 64 -31 41 -43 22 hvcurveto
          216 -364 -16 callgsubr
        </CharString>
        <CharString name="dvK_KA">
          689 850 17 callsubr
          -36 -33 -8 -16 -29 hvcurveto
          22 -31 -39 12 -44 hhcurveto
          36 callgsubr
          438 vlineto
          431 hmoveto
          55 -1301 -55 370 -313 vlineto
          -107 callgsubr
          55 47 60 26 24 -6 -13 19 vhcurveto
          -28 -32 -18 -42 -53 vvcurveto
          53 callgsubr
          vhcurveto
          -100 callgsubr
        </CharString>
        <CharString name="dvK_KHA">
          771 804 440 rmoveto
          -64 -35 -38 -94 vhcurveto
          -1 hlineto
          73 -3 -51 66 -100 hhcurveto
          -45 -38 -16 -30 -25 hvcurveto
          148 392 vlineto
          559 55 rmoveto
          -1383 -6 callgsubr
          49 46 55 61 33 -45 -49 vhcurveto
          -46 vlineto
          -76 callgsubr
        </CharString>
        <CharString name="dvK_LA">
          665 1075 -15 callsubr
          -33 -30 -9 -17 -25 hvcurveto
          24 -30 -42 13 -46 hhcurveto
          36 callgsubr
          663 185 callsubr
          -1277 -81 callsubr
          55 47 60 31 29 -9 -18 21 vhcurveto
          -24 -36 -14 -47 -53 vvcurveto
          -146 90 -116 140 -10 callsubr
          vhcurveto
          -93 callsubr
        </CharString>
        <CharString name="dvK_MA">
          487 897 -12 callsubr
          -485 hmoveto
          200 -118 hlineto
          11 -24 -28 5 -29 60 callsubr
          667 206 rmoveto
          -1099 -81 callsubr
          55 47 60 33 30 -11 -20 22 vhcurveto
          -57 -78 callsubr
          223 89 callgsubr
          hlineto
          endchar
        </CharString>
        <CharString name="dvK_NA">
          200 791 186 callgsubr
          -811 -55 380 -313 vlineto
          -64 -55 -47 -60 -71 -52 50 74 87 61 46 72 7 9 -1 -1 5 vhcurveto
          54 vlineto
          2 -5 -9 1 -9 hhcurveto
          -104 -89 -70 -118 -93 56 -64 84 -15 hvcurveto
          -77 -52 rlineto
          -30 -20 -13 -22 -22 vvcurveto
          -48 59 -41 32 -18 vhcurveto
          40 31 rlineto
          -21 17 -39 33 28 vvcurveto
          9 5 8 11 8 vhcurveto
          163 109 12 7 10 9 8 9 rlinecurve
          -100 callgsubr
        </CharString>
        <CharString name="dvK_NNA">
          698 873 349 -56 callsubr
          -461 hmoveto
          198 -117 hlineto
          10 -24 -26 5 -29 60 callsubr
          878 206 rmoveto
          -1310 -81 callsubr
          55 47 60 32 29 -10 -19 22 vhcurveto
          -46 67 callsubr
        </CharString>
        <CharString name="dvK_PA">
          505 915 -32 callgsubr
          -503 hmoveto
          188 -113 hlineto
          7 -21 -23 4 -25 60 callsubr
          685 206 rmoveto
          -1117 -81 callsubr
          55 47 60 28 25 -7 -14 20 vhcurveto
          -29 133 callsubr
        </CharString>
        <CharString name="dvK_PHA">
          735 915 12 callsubr
          -503 hmoveto
          188 -113 hlineto
          7 -21 -23 4 -25 60 callsubr
          915 151 rmoveto
          55 -1347 -55 370 -313 vlineto
          -107 callgsubr
          55 47 60 28 25 -7 -14 20 vhcurveto
          -34 vlineto
          159 callsubr
          64 52 50 63 -105 callgsubr
          148 vlineto
          endchar
        </CharString>
        <CharString name="dvK_P_RA">
          510 920 -49 callgsubr
          -508 hmoveto
          193 -115 hlineto
          9 -22 -25 4 -27 60 callsubr
          690 206 rmoveto
          -1122 -81 callsubr
          55 47 60 30 27 -9 -16 21 vhcurveto
          -5 vlineto
          -136 60 -57 104 -5 vhcurveto
          176 callsubr
          rlineto
          -1 callsubr
        </CharString>
        <CharString name="dvK_R">
          -53 417 579 8 callsubr
        </CharString>
        <CharString name="dvK_RA">
          194 786 186 callgsubr
          -806 -55 375 -313 vlineto
          -64 -55 -47 -60 -71 -52 50 74 87 61 46 72 7 9 -1 -1 5 vhcurveto
          54 vlineto
          2 -5 -9 1 -9 hhcurveto
          -104 -89 -70 -118 204 callgsubr
          hvcurveto
          -146 -148 rlineto
          76 hlineto
          194 197 rlineto
          -100 callgsubr
        </CharString>
        <CharString name="dvK_SA">
          641 818 328 -39 callsubr
          -640 23 callsubr
          821 203 rmoveto
          -1253 -81 callsubr
          45 47 60 66 37 -53 -60 vhcurveto
          -27 13 callsubr
        </CharString>
        <CharString name="dvK_SHA">
          622 412 579 rmoveto
          100 55 -532 -81 callsubr
          52 47 67 42 29 -19 -20 17 vhcurveto
          58 hlineto
          -17 29 -11 38 30 vvcurveto
          45 23 51 58 58 35 -47 -77 -100 -63 -55 -107 vhcurveto
          -95 -57 hlineto
          211 -243 rlineto
          83 hlineto
          -218 245 rlineto
          40 hlineto
          118 93 74 138 97 -52 80 -103 -91 -49 -74 -71 -9 1 -9 1 -8 hvcurveto
          9 -19 -23 5 -26 hhcurveto
          -48 -39 -20 -31 -25 hvcurveto
          598 208 rmoveto
          -634 -4 callsubr
        </CharString>
        <CharString name="dvK_SS">
          -49 268 587 -44 callsubr
          371 -259 rmoveto
          53 -273 vlineto
          -93 callgsubr
          endchar
        </CharString>
        <CharString name="dvK_SSA">
          168 268 587 -44 callsubr
          312 47 rmoveto
          -253 -214 vlineto
          -93 callgsubr
          258 hlineto
          1 -328 rlineto
          -64 callsubr
          55 hlineto
          endchar
        </CharString>
        <CharString name="dvK_SS_MA">
          497 907 -12 callsubr
          -639 8 -44 callsubr
          212 47 rmoveto
          -55 142 -198 -256 vlineto
          -93 callgsubr
          280 hlineto
          -13 -10 -9 -15 -18 -79 callgsubr
          223 75 callsubr
          hlineto
          endchar
        </CharString>
        <CharString name="dvK_SS_M_YA">
          861 1272 -69 callsubr
          -476 248 -44 callsubr
          202 47 rmoveto
          -55 142 -198 -246 vlineto
          -93 callgsubr
          270 hlineto
          -13 -10 -9 -15 -18 -79 callgsubr
          48 hlineto
          57 52 4 8 50 hvcurveto
          -108 35 83 -59 107 hhcurveto
          135 callgsubr
          vlineto
          endchar
        </CharString>
        <CharString name="dvK_SS_VA">
          484 268 587 -44 callsubr
          808 47 rmoveto
          -569 -55 388 -260 hlineto
          -102 callgsubr
          -71 -58 -32 -51 -33 hvcurveto
          -203 hlineto
          -93 callgsubr
          224 hlineto
          -4 -15 -2 -17 -17 vvcurveto
          -73 callsubr
        </CharString>
        <CharString name="dvK_SS_YA">
          511 922 31 callgsubr
          -88 -60 64 85 -18 vhcurveto
          88 24 65 44 88 vvcurveto
          31 -8 32 -18 29 vhcurveto
          202 hlineto
          -654 8 rmoveto
          54 44 -48 -44 -71 -50 -26 -50 -14 hvcurveto
          -66 21 -30 37 54 vvcurveto
          48 40 43 58 vhcurveto
          232 47 rmoveto
          -55 153 vlineto
          14 -18 17 -30 -37 vvcurveto
          -110 -138 -20 -113 -34 -30 1 3 -27 vhcurveto
          51 23 35 36 70 52 callsubr
          -55 25 -48 56 -33 vhcurveto
          -76 -27 -53 -58 -73 vvcurveto
          -91 70 -62 105 60 62 32 37 19 vhcurveto
          -118 60 222 -55 vlineto
          -68 -17 -58 -53 -71 hhcurveto
          -60 -51 38 63 68 64 42 70 20 hvcurveto
          -13 46 58 -7 70 hhcurveto
          34 35 2 5 30 hvcurveto
          -122 31 84 -67 110 hhcurveto
          135 callgsubr
          vlineto
          endchar
        </CharString>
        <CharString name="dvK_S_DDA">
          455 268 587 -44 callsubr
          632 -158 98 callgsubr
          -557 -55 348 -95 -107 vlineto
          -79 -60 -35 -68 -10 hvcurveto
          -216 hlineto
          -93 callgsubr
          261 hlineto
          13 -59 56 -33 105 -5 rrcurveto
          -54 callsubr
        </CharString>
        <CharString name="dvK_S_P_LA">
          1447 1857 -15 callsubr
          -87 -61 -65 -93 -15 hvcurveto
          -47 -32 -51 -32 -56 97 callsubr
          204 755 vlineto
          -1039 -251 rmoveto
          -70 callsubr
          194 -204 vlineto
          -17 1 -16 2 -14 vhcurveto
          -631 23 callsubr
          1627 203 rmoveto
          -2059 -81 callsubr
          45 47 60 66 37 -53 -60 vhcurveto
          -27 vlineto
          -97 callgsubr
          178 hlineto
          -66 26 56 -28 79 hhcurveto
          56 1 45 21 35 30 rrcurveto
          -130 12 87 -99 129 hhcurveto
          -25 callsubr
          -93 callsubr
        </CharString>
        <CharString name="dvK_S_P_RA">
          940 1350 -49 callgsubr
          -532 -251 rmoveto
          -70 callsubr
          189 -184 vlineto
          -25 2 -22 4 -20 vhcurveto
          -629 23 callsubr
          1120 203 rmoveto
          -1552 -81 callsubr
          45 47 60 66 37 -53 -60 vhcurveto
          -27 vlineto
          -97 callgsubr
          182 hlineto
          27 -48 47 -23 64 -3 176 callsubr
          rcurveline
          -1 callsubr
        </CharString>
        <CharString name="dvK_S_TA">
          500 268 587 -44 callsubr
          252 47 rmoveto
          -55 391 -133 -112 vlineto
          -82 -60 -24 -41 -40 hvcurveto
          -251 hlineto
          -93 callgsubr
          259 hlineto
          -14 -30 -7 -35 -38 -77 callgsubr
          55 hlineto
          endchar
        </CharString>
        <CharString name="dvK_S_TTA">
          416 268 587 -44 callsubr
          626 -8 rmoveto
          114 55 -513 -55 337 110 callgsubr
          -76 -67 -26 -46 -44 hvcurveto
          -251 hlineto
          -93 callgsubr
          258 hlineto
          -13 -27 -7 -32 -34 -71 callsubr
        </CharString>
        <CharString name="dvK_TA">
          325 917 186 callgsubr
          -937 -55 474 -138 -372 -57 56 vlineto
          23 22 0 1 20 hvcurveto
          -59 -38 -21 -62 -68 vvcurveto
          -131 82 -84 132 -34 callgsubr
          vhcurveto
          54 vlineto
          -1 -5 -12 -1 -7 hhcurveto
          -105 -49 63 98 112 63 57 124 hvcurveto
          81 -386 61 270 hlineto
          67 59 49 69 93 47 -79 -85 -102 -54 -63 -79 -14 -17 1 4 -14 vhcurveto
          -54 vlineto
          -4 12 19 -2 16 hhcurveto
          115 81 87 132 128 -77 89 -128 -49 -49 -18 -34 -30 hvcurveto
          193 vlineto
          endchar
        </CharString>
        <CharString name="dvK_THA">
          638 1049 4 callgsubr
          193 callsubr
          -93 -54 47 90 -23 vhcurveto
          207 callsubr
          54 99 callgsubr
          -42 -130 -34 vhcurveto
          65 -21 -35 59 -95 hhcurveto
          -45 -38 -16 -29 -24 hvcurveto
          147 158 55 -590 -55 370 -313 vlineto
          -107 callsubr
          66 45 45 62 vhcurveto
          151 -120 -312 303 25 callsubr
        </CharString>
        <CharString name="dvK_TTA">
          416 412 579 rmoveto
          420 110 callgsubr
          -51 -46 -12 -21 -39 hvcurveto
          38 -33 -50 19 -54 60 callsubr
          482 151 rmoveto
          114 55 -1028 -81 callsubr
          55 47 60 39 29 -10 -29 27 vhcurveto
          -39 -37 -23 -52 -62 -71 callsubr
        </CharString>
        <CharString name="dvK_T_RA">
          473 909 362 rmoveto
          59 -45 -70 27 -77 hhcurveto
          -43 -38 -8 -11 -27 hvcurveto
          23 -24 -32 16 -44 hhcurveto
          -35 -37 -13 -28 -25 hvcurveto
          152 497 185 callsubr
          -1111 -81 callsubr
          50 38 44 44 26 -26 -29 14 vhcurveto
          18 34 40 15 53 hhcurveto
          77 66 -45 -62 32 hvcurveto
          -284 -175 35 -45 266 164 rlineto
          -231 -69 callgsubr
        </CharString>
        <CharString name="dvK_T_VA">
          874 1265 319 rmoveto
          -102 callgsubr
          -32 -29 -6 -12 -25 hvcurveto
          -206 hlineto
          -56 -46 -11 -21 -36 hvcurveto
          35 -31 -51 26 -56 hhcurveto
          -48 -45 -17 -32 -28 hvcurveto
          153 853 120 callgsubr
          -1466 -6 callgsubr
          55 44 62 40 35 -20 -24 21 vhcurveto
          -37 -39 -18 -54 -61 vvcurveto
          38 callgsubr
          vhcurveto
          -67 callgsubr
          126 hlineto
          -23 -30 -13 -39 -43 vvcurveto
          -73 callsubr
        </CharString>
        <CharString name="dvK_T_YA">
          900 1311 -103 callgsubr
          -521 -133 rmoveto
          -49 -42 -11 -21 -33 hvcurveto
          40 -31 -43 23 -61 hhcurveto
          36 callgsubr
          630 vlineto
          20 callgsubr
          683 188 rmoveto
          -1512 -81 callsubr
          55 47 60 43 30 -23 -27 20 vhcurveto
          -33 -39 -17 -52 -59 -20 callsubr
        </CharString>
        <CharString name="dvK_VA">
          507 918 319 rmoveto
          -102 callgsubr
          -39 -34 -9 -17 -29 hvcurveto
          25 -31 -43 14 -47 hhcurveto
          36 callgsubr
          506 120 callgsubr
          -1119 -81 callsubr
          55 47 60 30 27 -9 -16 22 vhcurveto
          -27 -32 -16 -42 -47 vvcurveto
          -73 callsubr
        </CharString>
        <CharString name="dvK_V_YA">
          821 1232 -103 callgsubr
          -419 -122 rmoveto
          4 -16 -24 3 -22 hhcurveto
          -38 -34 -9 -16 -29 hvcurveto
          24 -30 -42 14 -47 hhcurveto
          36 callgsubr
          551 -22 callgsubr
          9 -72 27 -56 38 -39 rrcurveto
          -32 -33 -43 -21 -59 hhcurveto
          -82 -65 -47 callsubr
          20 -2 -6 17 hvcurveto
          600 232 rmoveto
          -1433 -81 callsubr
          55 47 60 29 27 -8 -16 21 vhcurveto
          -28 -32 -16 -42 -48 vvcurveto
          156 callsubr
          81 59 34 38 38 vhcurveto
          -22 35 42 -12 45 -101 callsubr
          vlineto
          endchar
        </CharString>
        <CharString name="dvK_YA">
          584 1005 -23 callsubr
          -1206 -6 callgsubr
          45 38 55 vhcurveto
          142 -90 -287 270 hhcurveto
          87 55 32 39 29 hvcurveto
          -83 callsubr
          vlineto
          endchar
        </CharString>
        <CharString name="dvKx">
          -61 149 10 rmoveto
          -103 callsubr
          263 569 rmoveto
          120 55 -552 -81 callsubr
          55 47 60 34 30 -11 -21 22 vhcurveto
          42 42 rlineto
          27 -31 -44 15 -49 60 callsubr
          endchar
        </CharString>
        <CharString name="dvKxA">
          189 149 10 rmoveto
          -103 callsubr
          632 569 rmoveto
          55 -801 -55 370 -313 vlineto
          -64 -55 -47 -60 -71 -52 50 74 87 61 46 72 7 9 -1 -1 5 vhcurveto
          54 vlineto
          2 -5 -9 1 -9 hhcurveto
          -104 -89 -70 -118 -107 75 -69 106 49 callgsubr
        </CharString>
        <CharString name="dvKx_BA">
          539 149 10 rmoveto
          -103 callsubr
          801 300 rmoveto
          -76 callsubr
          -53 -48 -16 -27 -37 hvcurveto
          19 -29 -37 10 -41 hhcurveto
          36 callgsubr
          538 vlineto
          -76 -415 -51 callsubr
          -1151 -81 callsubr
          55 47 60 26 24 -7 -12 20 vhcurveto
          -24 -33 -13 -41 -46 84 callsubr
        </CharString>
        <CharString name="dvKx_KxA">
          689 149 10 rmoveto
          -103 callsubr
          500 hmoveto
          -103 callsubr
          201 256 rmoveto
          -64 -55 -47 -60 -71 -52 50 74 87 61 46 72 7 9 -1 -1 5 vhcurveto
          54 vlineto
          2 -5 -9 1 -9 hhcurveto
          -36 -33 -8 -16 -29 hvcurveto
          22 -31 -39 12 -44 hhcurveto
          36 callgsubr
          438 vlineto
          431 hmoveto
          55 -1301 -55 370 -313 vlineto
          -107 callgsubr
          55 47 60 26 24 -6 -13 19 vhcurveto
          -28 -32 -18 -42 -53 vvcurveto
          53 callgsubr
          vhcurveto
          -100 callgsubr
        </CharString>
        <CharString name="dvKx_MA">
          487 149 10 rmoveto
          -103 callsubr
          748 329 -14 callsubr
          -485 hmoveto
          200 -118 hlineto
          11 -24 -28 5 -29 60 callsubr
          667 206 rmoveto
          -1099 -81 callsubr
          55 47 60 33 30 -11 -20 22 vhcurveto
          -57 -78 callsubr
          223 89 callgsubr
          hlineto
          endchar
        </CharString>
        <CharString name="dvKx_PHA">
          733 149 10 rmoveto
          -103 callsubr
          764 373 rmoveto
          -53 callgsubr
          204 253 vlineto
          -501 hmoveto
          186 -112 hlineto
          6 -21 -22 4 -24 60 callsubr
          913 151 rmoveto
          55 -1345 -55 370 -313 vlineto
          -107 callgsubr
          55 47 60 27 24 -7 -13 20 vhcurveto
          -35 vlineto
          159 callsubr
          64 52 50 63 -105 callgsubr
          148 vlineto
          endchar
        </CharString>
        <CharString name="dvKx_PHxA">
          733 149 10 rmoveto
          -103 callsubr
          518 47 rmoveto
          -103 callsubr
          246 326 rmoveto
          -53 callgsubr
          204 253 vlineto
          -501 hmoveto
          186 -112 hlineto
          6 -21 -22 4 -24 60 callsubr
          913 151 rmoveto
          55 -1345 -55 370 -313 vlineto
          -107 callgsubr
          55 47 60 27 24 -7 -13 20 vhcurveto
          -35 vlineto
          159 callsubr
          64 52 50 63 -105 callgsubr
          148 vlineto
          endchar
        </CharString>
        <CharString name="dvKx_R">
          -53 280 -80 rmoveto
          -103 callsubr
          137 659 8 callsubr
        </CharString>
        <CharString name="dvKx_RA">
          194 276 -18 rmoveto
          -103 callsubr
          510 597 rmoveto
          55 -806 -55 375 -313 vlineto
          -64 -55 -47 -60 -71 -52 50 74 87 61 46 72 7 9 -1 -1 5 vhcurveto
          54 vlineto
          2 -5 -9 1 -9 hhcurveto
          -104 -89 -70 -118 204 callgsubr
          hvcurveto
          -146 -148 rlineto
          76 hlineto
          194 197 rlineto
          -100 callgsubr
        </CharString>
        <CharString name="dvKx_TA">
          510 149 10 rmoveto
          -103 callsubr
          772 436 rmoveto
          -112 hlineto
          -54 -45 -11 -19 -36 hvcurveto
          33 -35 -43 28 -65 hhcurveto
          36 callgsubr
          509 120 callgsubr
          -1122 -81 callsubr
          55 47 60 41 30 -14 -31 29 vhcurveto
          -38 -39 -19 -54 -62 -77 callgsubr
          hlineto
          endchar
        </CharString>
        <CharString name="dvL">
          -103 322 54 rmoveto
          -2 -8 -10 0 -5 hhcurveto
          -122 -55 100 109 101 51 52 60 59 35 -65 callsubr
          94 47 39 60 37 25 -17 -18 14 vhcurveto
          37 40 rlineto
          29 -29 -37 18 -49 hhcurveto
          -72 -48 150 callgsubr
          -25 callsubr
          -342 576 rmoveto
          509 55 -509 hlineto
          endchar
        </CharString>
        <CharString name="dvLA">
          155 174 callgsubr
          585 -126 vlineto
          7 -13 -25 9 -32 hhcurveto
          -75 -47 -105 callsubr
          46 39 66 29 23 -12 -8 13 vhcurveto
          -397 -4 callsubr
        </CharString>
        <CharString name="dvLL">
          225 558 92 rmoveto
          104 85 73 114 103 -76 74 -115 104 callsubr
          -3 312 rmoveto
          81 49 -50 -75 -80 -50 -53 -80 -63 -51 34 42 -33 hvcurveto
          86 32 12 96 103 hhcurveto
          -320 -258 rmoveto
          30 callsubr
          -255 433 rmoveto
          837 55 -837 hlineto
          endchar
        </CharString>
        <CharString name="dvLLA">
          6 callsubr
          -44 37 58 -33 81 hhcurveto
          104 85 73 114 92 -60 69 -95 13 hvcurveto
          126 vlineto
          endchar
        </CharString>
        <CharString name="dvLL_R">
          225 555 146 rmoveto
          -63 -51 34 42 -33 hvcurveto
          86 32 12 96 103 hhcurveto
          81 49 -50 -75 -80 -50 -53 -80 hvcurveto
          -320 hmoveto
          30 callsubr
          148 -189 rmoveto
          65 callsubr
          143 rlineto
          75 22 55 65 92 vvcurveto
          103 -76 74 -115 -79 -44 -30 -41 -27 vhcurveto
          19 callgsubr
          26 -31 37 -26 47 -12 rrcurveto
          -512 534 rmoveto
          -55 837 55 vlineto
          endchar
        </CharString>
        <CharString name="dvLL_RA">
          6 callsubr
          26 -31 37 -26 47 -12 -109 -143 rcurveline
          65 callsubr
          143 rlineto
          75 22 55 65 92 vvcurveto
          92 -60 69 -95 13 vhcurveto
          126 vlineto
          endchar
        </CharString>
        <CharString name="dvLL_YA">
          661 1072 -103 callgsubr
          -387 -300 rmoveto
          -80 -50 -53 -80 -63 -51 34 42 -33 vhcurveto
          86 32 12 96 103 hhcurveto
          60 43 -28 -45 18 hvcurveto
          2 -10 2 -10 3 -9 rrcurveto
          1 -7 1 -8 -8 vvcurveto
          -450 -133 rmoveto
          30 callsubr
          1018 488 rmoveto
          -1273 -55 823 hlineto
          -66 callgsubr
          -48 -39 -42 -75 -22 vhcurveto
          49 -32 -58 31 -74 hhcurveto
          104 callsubr
          80 69 43 72 27 hvcurveto
          -51 44 61 -26 67 -101 callsubr
          vlineto
          endchar
        </CharString>
        <CharString name="dvL_BA">
          519 854 164 -51 callsubr
          -1131 -55 950 -29 callsubr
          -63 -56 -22 -38 -39 hvcurveto
          24 -27 -34 14 -44 34 callsubr
          -17 -29 -9 -35 -38 84 callsubr
        </CharString>
        <CharString name="dvL_BHA">
          423 838 4 callgsubr
          -295 -208 186 184 callsubr
          -541 -55 533 197 callgsubr
          -57 vlineto
          11 -21 -25 6 -29 hhcurveto
          -72 -48 -105 callsubr
          47 39 60 34 25 -15 -16 14 vhcurveto
          -49 -78 callsubr
          208 75 callsubr
          hlineto
          endchar
        </CharString>
        <CharString name="dvL_DA">
          -5 callsubr
          -109 79 -89 126 61 49 21 31 26 vhcurveto
          -78 callgsubr
          endchar
        </CharString>
        <CharString name="dvL_DDA">
          435 880 167 callsubr
          -1047 -55 838 -95 -107 vlineto
          -52 -44 -15 -30 -27 hvcurveto
          19 -25 -31 11 -39 42 callsubr
          23 -12 -15 15 vhcurveto
          -3 -10 -1 -10 -12 vvcurveto
          111 callsubr
          vhcurveto
          -54 callsubr
        </CharString>
        <CharString name="dvL_DDHA">
          422 863 579 rmoveto
          151 55 -1034 -55 821 -118 hlineto
          2 -19 -19 1 -17 hhcurveto
          -57 -48 -14 -24 -38 hvcurveto
          27 -28 -36 16 -46 hhcurveto
          -72 -48 -105 callsubr
          47 39 60 29 22 -11 -13 15 vhcurveto
          -40 -41 -21 -54 -56 vvcurveto
          51 callgsubr
          vhcurveto
          -56 vlineto
          -45 callsubr
          endchar
        </CharString>
        <CharString name="dvL_D_RA">
          -5 callsubr
          -106 72 -87 127 -5 vhcurveto
          113 callgsubr
          endchar
        </CharString>
        <CharString name="dvL_GA">
          439 1031 4 callgsubr
          -1051 -55 618 -131 hlineto
          14 -29 -34 7 -32 hhcurveto
          -72 -58 -105 callsubr
          57 39 60 35 41 -15 -17 17 vhcurveto
          -46 94 callsubr
        </CharString>
        <CharString name="dvL_HA">
          423 899 110 callsubr
          -1035 -55 858 -104 -184 vlineto
          -33 -29 -8 -17 -21 hvcurveto
          12 -22 -26 7 -30 hhcurveto
          -72 -48 -105 callsubr
          47 39 60 19 16 -5 -6 13 vhcurveto
          -2 -8 -1 -8 -9 vvcurveto
          -60 33 -36 33 -22 vhcurveto
          -85 callgsubr
          endchar
        </CharString>
        <CharString name="dvL_JA">
          516 1108 634 -31 callsubr
        </CharString>
        <CharString name="dvL_JxA">
          516 589 -40 rmoveto
          -103 callsubr
          519 674 -31 callsubr
        </CharString>
        <CharString name="dvL_KA">
          669 1261 186 callgsubr
          -1281 -55 850 -313 vlineto
          -64 -55 -47 -60 -71 -52 50 74 87 61 46 72 7 9 -1 -1 5 vhcurveto
          54 vlineto
          2 -5 -9 1 -9 hhcurveto
          -46 -42 -13 -25 -34 hvcurveto
          25 -28 -35 15 -45 42 callsubr
          23 -12 -15 15 vhcurveto
          -21 -29 -13 -38 -44 vvcurveto
          53 callgsubr
          vhcurveto
          -100 callgsubr
        </CharString>
        <CharString name="dvL_KHA">
          726 1318 4 callgsubr
          -1338 -55 779 127 callsubr
          -4 hlineto
          79 -6 -58 52 -75 hhcurveto
          -72 -44 -38 -60 -12 -106 callsubr
          36 39 59 57 25 -43 -51 vhcurveto
          -38 vlineto
          -76 callgsubr
        </CharString>
        <CharString name="dvL_K_YA">
          1074 1485 -23 callsubr
          -1686 -55 850 -313 hlineto
          -64 -55 -47 -60 -71 -52 50 74 87 61 46 72 7 9 -1 -1 5 vhcurveto
          54 vlineto
          2 -5 -9 1 -9 hhcurveto
          -46 -42 -13 -25 -34 hvcurveto
          25 -28 -35 15 -45 42 callsubr
          23 -12 -15 15 vhcurveto
          -21 -29 -13 -38 -44 78 callgsubr
        </CharString>
        <CharString name="dvL_LA">
          625 1217 4 callgsubr
          -1237 -55 1055 154 callgsubr
          -39 -33 -13 -22 -27 hvcurveto
          24 -27 -34 14 -44 42 callsubr
          23 -12 -14 14 vhcurveto
          -21 -35 -12 -44 -50 vvcurveto
          -146 90 -116 140 9 14 1 2 9 vhcurveto
          -93 callsubr
        </CharString>
        <CharString name="dvL_L_YA">
          1011 1422 -103 callgsubr
          86 callgsubr
          -1623 -55 1173 hlineto
          -66 callgsubr
          -48 -38 -41 -74 -23 vhcurveto
          48 -21 -41 35 -60 hhcurveto
          -65 -46 -33 -55 -13 hvcurveto
          62 -14 -45 33 -70 hhcurveto
          -39 -33 -13 -22 -27 hvcurveto
          24 -27 -34 14 -44 42 callsubr
          23 -12 -14 14 vhcurveto
          -21 114 callsubr
          101 51 52 60 59 32 -65 callsubr
          87 41 36 52 45 22 -35 -45 12 vhcurveto
          2 -8 rlineto
          -2 vlineto
          0 vlineto
          -123 32 90 -64 105 -101 callsubr
          vlineto
          endchar
        </CharString>
        <CharString name="dvL_MA">
          437 847 -12 callsubr
          182 55 rmoveto
          -1049 -55 582 -124 hlineto
          9 -20 -23 5 -26 hhcurveto
          -72 -48 -105 callsubr
          47 39 60 30 22 -11 -14 15 vhcurveto
          -55 -78 callsubr
          223 89 callgsubr
          hlineto
          endchar
        </CharString>
        <CharString name="dvL_PA">
          465 875 -32 callgsubr
          182 55 rmoveto
          -1077 -55 580 -123 hlineto
          8 -19 -23 5 -25 hhcurveto
          -72 -48 -105 callsubr
          47 39 60 29 21 -10 -13 15 vhcurveto
          -19 133 callsubr
        </CharString>
        <CharString name="dvL_PHA">
          695 875 88 callgsubr
          -1307 -55 580 -123 vlineto
          8 -19 -23 5 -25 hhcurveto
          -72 -48 -105 callsubr
          47 39 60 29 21 -10 -13 15 vhcurveto
          -24 vlineto
          159 callsubr
          64 52 50 63 -105 callgsubr
          148 vlineto
          endchar
        </CharString>
        <CharString name="dvL_R">
          -77 302 54 rmoveto
          -2 -8 -10 0 -5 hhcurveto
          -110 -47 114 95 101 51 52 60 59 35 -65 callsubr
          94 48 39 60 38 28 -22 -22 13 vhcurveto
          34 44 rlineto
          30 -23 -38 22 -53 hhcurveto
          -75 -47 29 callgsubr
          -101 -66 -87 -117 -141 70 -121 140 -25 callsubr
          -322 576 rmoveto
          525 55 -525 hlineto
          607 -402 rmoveto
          -260 -272 rlineto
          75 hlineto
          221 235 rlineto
          endchar
        </CharString>
        <CharString name="dvL_RA">
          155 174 callgsubr
          585 -126 vlineto
          43 callsubr
          -101 -66 -87 -117 -141 70 -121 -88 callgsubr
          -110 -47 114 95 101 51 52 60 59 35 -65 callsubr
          94 46 39 66 29 23 -12 -8 13 vhcurveto
          -188 vlineto
          -238 -249 rlineto
          75 hlineto
          163 173 rlineto
          -133 -4 callsubr
        </CharString>
        <CharString name="dvL_SA">
          561 763 328 -39 callsubr
          181 306 rmoveto
          -1198 -55 749 149 callgsubr
          -10 -34 -84 vhcurveto
          -9 hlineto
          75 -7 -51 56 -80 hhcurveto
          -72 -43 -105 callsubr
          42 39 52 62 21 -48 -49 vhcurveto
          -35 13 callsubr
        </CharString>
        <CharString name="dvL_TA">
          428 1040 4 callgsubr
          -1060 -55 879 -133 -112 hlineto
          -54 -44 -11 -19 -36 hvcurveto
          26 -23 -37 27 -60 hhcurveto
          -72 -48 -105 callsubr
          47 39 60 35 21 -14 -18 18 vhcurveto
          -41 -40 -20 -56 -64 -77 callgsubr
          hlineto
          endchar
        </CharString>
        <CharString name="dvL_THA">
          508 489 4 callgsubr
          -509 -55 509 hlineto
          510 55 173 callgsubr
          -63 43 89 -19 vhcurveto
          146 32 101 -9 callsubr
          -48 10 vhcurveto
          -151 19 99 -64 124 25 callsubr
        </CharString>
        <CharString name="dvL_TH_YA">
          961 489 4 callgsubr
          -509 -55 509 hlineto
          883 -252 -104 callsubr
          -402 55 rmoveto
          -55 133 -22 callgsubr
          6 -45 12 -39 18 -32 rrcurveto
          -48 -48 -77 -34 -68 hhcurveto
          -90 -71 43 89 -19 hvcurveto
          146 32 99 -9 callsubr
          -49 10 vhcurveto
          -155 21 111 -59 120 hhcurveto
          91 78 39 52 55 hvcurveto
          -49 43 60 -25 66 hhcurveto
          135 callgsubr
          vlineto
          endchar
        </CharString>
        <CharString name="dvL_TTA">
          371 849 579 rmoveto
          114 55 -983 -55 807 110 callgsubr
          -55 -50 -14 -25 -40 hvcurveto
          33 -28 -43 22 -50 hhcurveto
          -72 -48 -105 callsubr
          47 39 60 34 25 -16 -21 17 vhcurveto
          -35 -37 -21 -49 -59 -71 callsubr
        </CharString>
        <CharString name="dvL_TTHA">
          449 897 256 rmoveto
          -83 -64 -58 -93 -98 -58 58 84 97 81 38 76 91 65 -46 -90 vhcurveto
          144 323 rmoveto
          55 -1061 -55 750 -135 vlineto
          -40 -2 -41 -9 -35 -19 rrcurveto
          36 -29 -44 19 -48 42 callsubr
          25 -12 -22 20 vhcurveto
          -31 -30 -20 -42 -54 vvcurveto
          -114 88 -80 131 132 90 79 114 116 callsubr
        </CharString>
        <CharString name="dvL_VA">
          470 1062 4 callgsubr
          -1082 -55 901 -260 hlineto
          -102 callgsubr
          -45 -40 -13 -22 -31 hvcurveto
          25 -28 -35 15 -45 hhcurveto
          -72 -48 -105 callsubr
          47 39 60 30 22 -11 -14 15 vhcurveto
          -23 -31 -13 -39 -43 vvcurveto
          -73 callsubr
        </CharString>
        <CharString name="dvL_V_DDA">
          741 1186 167 callsubr
          -1353 -55 1144 182 callsubr
          -36 12 -28 24 -21 hvcurveto
          -69 -25 -53 -60 -98 hhcurveto
          -73 -65 54 81 79 58 52 74 22 20 -2 -6 17 hvcurveto
          55 vlineto
          4 -16 -24 3 -22 hhcurveto
          -45 -40 -13 -22 -31 hvcurveto
          25 -28 -35 15 -45 hhcurveto
          -72 -48 -105 callsubr
          47 39 60 30 22 -11 -14 15 vhcurveto
          -23 -31 -13 -39 -43 vvcurveto
          156 callsubr
          130 64 94 61 24 vhcurveto
          25 -9 31 -5 37 -2 rrcurveto
          97 -5 39 -23 -54 vvcurveto
          -65 -53 -33 -77 -47 -62 14 20 -39 vhcurveto
          -59 vlineto
          -15 30 69 -12 49 hhcurveto
          120 74 62 88 101 -78 28 -96 5 hvcurveto
          -110 6 -31 23 48 vvcurveto
          52 48 17 45 vhcurveto
          endchar
        </CharString>
        <CharString name="dvL_YA">
          541 952 -103 callgsubr
          86 callgsubr
          -1153 -55 703 hlineto
          -66 callgsubr
          -48 -38 -41 -74 -23 vhcurveto
          48 -21 -41 35 -60 hhcurveto
          -65 -46 -33 -55 -13 hvcurveto
          62 -14 -45 -104 callgsubr
          32 -65 callsubr
          87 41 36 52 45 22 -35 -45 12 vhcurveto
          2 -8 rlineto
          -2 vlineto
          0 vlineto
          -123 32 90 -64 105 -101 callsubr
          vlineto
          endchar
        </CharString>
        <CharString name="dvM">
          -221 457 339 rmoveto
          -273 240 187 55 -391 -55 -81 callgsubr
          273 hlineto
          endchar
        </CharString>
        <CharString name="dvMA">
          -3 -20 579 rmoveto
          -81 callgsubr
          223 75 callsubr
          -609 hlineto
          427 -55 rmoveto
          -240 -223 240 vlineto
          endchar
        </CharString>
        <CharString name="dvM_BA">
          389 800 310 rmoveto
          -76 callsubr
          -104 -83 -60 -92 -23 hvcurveto
          -232 240 616 hlineto
          -76 -415 -51 callsubr
          -1001 -55 -81 callgsubr
          226 hlineto
          -123 1 94 -79 110 hhcurveto
          88 68 42 48 29 hvcurveto
          -173 -82 callsubr
        </CharString>
        <CharString name="dvM_BHA">
          283 164 callsubr
          270 295 rmoveto
          -295 -208 186 184 callsubr
          -396 -55 -81 callgsubr
          197 144 callgsubr
          208 75 callsubr
          hlineto
          endchar
        </CharString>
</ttFont>
